<svg width="128" height="56" viewBox="0 0 128 56" fill="none" xmlns="http://www.w3.org/2000/svg">
<path d="M77.3031 18.7922C77.3031 20.3294 76.0618 21.5843 74.5411 21.5843C73.0204 21.5843 71.779 20.3294 71.779 18.7922C71.779 17.2549 73.0204 16 74.5411 16C76.0618 16 77.3031 17.2549 77.3031 18.7922Z" fill="#242424"/>
<path d="M72.0273 39.7176V23.1216H77.0549V39.7176H72.0273Z" fill="#242424"/>
<path d="M64.8758 39.7176H69.8413V16.6588L64.8137 17.7569V24C63.5723 23.2784 62.1447 22.902 60.624 22.902C55.8447 22.902 52.0895 26.6353 52.0895 31.4039C52.0895 35.143 54.3601 38.2648 57.5996 39.4386L59.9366 35.3922C58.2248 34.8436 57.024 33.3028 57.024 31.4039C57.024 29.0196 58.8861 27.2 61.3378 27.2C62.7033 27.2 63.9447 27.6706 64.8137 28.4863V34.2902C64.2337 34.8563 63.5376 35.24 62.7422 35.4413L64.4117 38.8111C64.5697 38.7117 64.7245 38.606 64.8758 38.4941V39.7176Z" fill="#242424"/>
<path fill-rule="evenodd" clip-rule="evenodd" d="M21.3379 39.7176H16V17.7569H27.1104C31.5793 17.7569 34.7759 20.6745 34.7759 24.7529C34.7759 27.5137 33.1621 29.8039 30.7104 30.9333L35.4587 39.7176H29.5L25.4035 31.7176H21.3379V39.7176ZM29.3759 24.8471C29.3759 23.3725 28.2586 22.3686 26.6138 22.3686H21.3379V27.3255H26.6138C28.2586 27.3255 29.3759 26.3216 29.3759 24.8471Z" fill="#242424"/>
<path fill-rule="evenodd" clip-rule="evenodd" d="M45.8116 38.7137C44.4771 39.6235 43.0495 40 41.2805 40C37.7736 40 35.3219 37.898 35.3219 34.8549C35.3219 31.6863 37.8047 29.8667 42.0874 29.8667C43.3599 29.8667 44.6012 30.0235 45.8116 30.3373V29.5216C45.8116 27.8588 44.7564 27.0431 42.6771 27.0431C41.3736 27.0431 39.8529 27.451 37.7116 28.3608L35.9116 24.6275C38.5805 23.4039 41.0633 22.8078 43.5771 22.8078C48.1392 22.8078 50.7771 25.098 50.7771 29.0824V39.7176H45.8116V38.7137ZM42.8323 33.1294C41.0943 33.1294 40.1012 33.7255 40.1012 34.7608C40.1012 35.7961 41.0633 36.4235 42.6771 36.4235C43.8874 36.4235 44.9426 36.1725 45.8116 35.6392V33.5059C44.8495 33.2549 43.8564 33.1294 42.8323 33.1294Z" fill="#242424"/>
<path fill-rule="evenodd" clip-rule="evenodd" d="M84.4634 40C86.2324 40 87.66 39.6235 88.9944 38.7137V39.7176H93.96V29.0824C93.96 25.098 91.322 22.8078 86.7599 22.8078C84.2462 22.8078 81.7634 23.4039 79.0944 24.6275L80.8944 28.3608C83.0358 27.451 84.5565 27.0431 85.86 27.0431C87.9393 27.0431 88.9944 27.8588 88.9944 29.5216V30.3373C87.7841 30.0235 86.5427 29.8667 85.2703 29.8667C80.9875 29.8667 78.5048 31.6863 78.5048 34.8549C78.5048 37.898 80.9565 40 84.4634 40ZM83.2841 34.7608C83.2841 33.7255 84.2772 33.1294 86.0151 33.1294C87.0393 33.1294 88.0324 33.2549 88.9944 33.5059V35.6392C88.1255 36.1725 87.0703 36.4235 85.86 36.4235C84.2462 36.4235 83.2841 35.7961 83.2841 34.7608Z" fill="#242424"/>
<path d="M101.045 39.7176H96.0172V23.1216H101.045V24.251C102.255 23.3098 103.776 22.8078 105.452 22.8078C109.3 22.8078 112 25.5686 112 29.4902V39.7176H106.972V30.1804C106.972 28.3608 105.793 27.1686 103.993 27.1686C102.721 27.1686 101.728 27.6392 101.045 28.4863V39.7176Z" fill="#242424"/>
</svg>
