<svg width="40" height="40" viewBox="0 0 40 40" fill="none" xmlns="http://www.w3.org/2000/svg">
<path fill-rule="evenodd" clip-rule="evenodd" d="M40 20C40 31.0457 31.0457 40 20 40C8.95431 40 0 31.0457 0 20C0 8.95431 8.95431 0 20 0C31.0457 0 40 8.95431 40 20ZM20.7166 14.7647C18.7713 15.5738 14.8835 17.2485 9.05307 19.7887C8.10631 20.1652 7.61035 20.5335 7.5652 20.8936C7.47852 21.5851 8.47398 21.8003 9.72648 22.2075C10.7476 22.5394 12.1213 22.9278 12.8354 22.9432C13.4832 22.9572 14.2061 22.6901 15.0043 22.142C20.4518 18.4648 23.2639 16.6061 23.4404 16.5661C23.565 16.5378 23.7376 16.5023 23.8545 16.6062C23.9715 16.7101 23.96 16.907 23.9476 16.9598C23.8485 17.382 18.7312 22.0366 18.4367 22.3425C17.3114 23.5113 16.0313 24.2265 18.0059 25.5278C19.7146 26.6537 20.709 27.372 22.4693 28.5259C23.5942 29.2633 24.4761 30.1377 25.6376 30.0309C26.172 29.9817 26.724 29.4791 27.0044 27.9804C27.6669 24.4384 28.9693 16.7639 29.2703 13.6014C29.2967 13.3243 29.2635 12.9697 29.2368 12.8141C29.2102 12.6584 29.1545 12.4366 28.9522 12.2725C28.7126 12.078 28.3426 12.037 28.1772 12.0399C27.425 12.0532 26.2708 12.4545 20.7166 14.7647Z" fill="#3D3D3D" fill-opacity="0.6"/>
</svg>
