<svg width="40" height="40" viewBox="0 0 40 40" fill="none" xmlns="http://www.w3.org/2000/svg">
<g clip-path="url(#clip0)">
<path fill-rule="evenodd" clip-rule="evenodd" d="M19.9637 39.6086C19.963 39.6086 19.9643 39.6086 19.9636 39.6086H19.9555C16.6421 39.6074 13.3865 38.7761 10.4949 37.1989L0 39.9519L2.80857 29.6931C1.0761 26.6908 0.164571 23.285 0.166 19.7958C0.170381 8.88048 9.05143 0 19.9634 0C25.2593 0.00209524 30.2301 2.06381 33.9678 5.8059C37.7055 9.5479 39.7629 14.5218 39.7608 19.8116C39.7564 30.7272 30.8745 39.6086 19.9637 39.6086ZM31.6033 8.16924C28.4966 5.05895 24.3651 3.34514 19.9701 3.34362C10.8938 3.34362 3.51219 10.7247 3.50857 19.797C3.50724 22.9062 4.37724 25.9342 6.02438 28.5539L6.41562 29.1766L4.75333 35.2486L10.981 33.6149L11.5819 33.9715C14.1083 35.4707 17.0043 36.264 19.9569 36.2651H19.9636C29.0329 36.2651 36.4146 28.8834 36.4182 19.8104C36.4199 15.4136 34.71 11.2794 31.6033 8.16924ZM26.31 29.2235C25.4576 29.351 24.3792 29.4041 23.1943 29.0275C22.4759 28.7996 21.5545 28.4952 20.3743 27.9855C15.412 25.8429 12.1712 20.8466 11.924 20.5163C11.6766 20.1861 9.90409 17.834 9.90409 15.3991C9.90409 12.9645 11.182 11.7677 11.6354 11.2724C12.0889 10.7772 12.6248 10.6534 12.9545 10.6534C13.2843 10.6534 13.6144 10.6565 13.9026 10.6709C14.2062 10.6862 14.614 10.5555 15.0155 11.52C15.4278 12.5105 16.417 14.9454 16.5407 15.193C16.6644 15.4406 16.7469 15.7294 16.5819 16.0596C16.417 16.3895 16.3347 16.596 16.0873 16.8849C15.84 17.1736 15.5678 17.5298 15.3452 17.7514C15.0976 17.9981 14.8398 18.2658 15.1284 18.761C15.417 19.2563 16.4097 20.8761 17.8803 22.1878C19.7697 23.8731 21.3635 24.3954 21.8583 24.643C22.3529 24.8907 22.6414 24.8492 22.9299 24.5192C23.2186 24.189 24.1666 23.0748 24.4963 22.5796C24.826 22.0846 25.1558 22.167 25.6092 22.332C26.0627 22.4972 28.4947 23.6938 28.9893 23.9414C29.484 24.189 29.8137 24.3129 29.9373 24.5192C30.061 24.7254 30.061 25.7159 29.6489 26.8715C29.2367 28.027 27.2604 29.0816 26.31 29.2235Z" fill="#3D3D3D" fill-opacity="0.7"/>
</g>
<defs>
<clipPath id="clip0">
<rect width="39.7608" height="39.9519" fill="white"/>
</clipPath>
</defs>
</svg>
