<svg width="56" height="56" viewBox="0 0 56 56" fill="none" xmlns="http://www.w3.org/2000/svg">
<path d="M42.6995 13.3234C42.4837 13.1071 42.2273 12.9354 41.945 12.8184C41.6627 12.7013 41.3601 12.641 41.0545 12.641C40.7489 12.641 40.4464 12.7013 40.1641 12.8184C39.8818 12.9354 39.6254 13.1071 39.4095 13.3234L27.9995 24.71L16.5895 13.3C16.3735 13.084 16.1171 12.9126 15.8348 12.7957C15.5526 12.6788 15.2501 12.6187 14.9445 12.6187C14.639 12.6187 14.3365 12.6788 14.0543 12.7957C13.772 12.9126 13.5156 13.084 13.2995 13.3C13.0835 13.5161 12.9122 13.7725 12.7952 14.0548C12.6783 14.337 12.6182 14.6395 12.6182 14.945C12.6182 15.2505 12.6783 15.5531 12.7952 15.8353C12.9122 16.1176 13.0835 16.374 13.2995 16.59L24.7095 28L13.2995 39.41C13.0835 39.6261 12.9122 39.8825 12.7952 40.1648C12.6783 40.447 12.6182 40.7495 12.6182 41.055C12.6182 41.3605 12.6783 41.663 12.7952 41.9453C12.9122 42.2275 13.0835 42.484 13.2995 42.7C13.5156 42.9161 13.772 43.0874 14.0543 43.2043C14.3365 43.3212 14.639 43.3814 14.9445 43.3814C15.2501 43.3814 15.5526 43.3212 15.8348 43.2043C16.1171 43.0874 16.3735 42.9161 16.5895 42.7L27.9995 31.29L39.4095 42.7C39.6256 42.9161 39.882 43.0874 40.1643 43.2043C40.4465 43.3212 40.749 43.3814 41.0545 43.3814C41.36 43.3814 41.6626 43.3212 41.9448 43.2043C42.2271 43.0874 42.4835 42.9161 42.6995 42.7C42.9156 42.484 43.0869 42.2275 43.2038 41.9453C43.3207 41.663 43.3809 41.3605 43.3809 41.055C43.3809 40.7495 43.3207 40.447 43.2038 40.1648C43.0869 39.8825 42.9156 39.6261 42.6995 39.41L31.2895 28L42.6995 16.59C43.5862 15.7034 43.5862 14.21 42.6995 13.3234Z" fill="#3D3D3D" fill-opacity="0.6"/>
</svg>
