<svg width="128" height="128" viewBox="0 0 128 128" fill="none" xmlns="http://www.w3.org/2000/svg">
<g clip-path="url(#clip0)">
<path d="M117.611 49.3911L117.588 49.3761C117.554 49.3498 117.524 49.3235 117.491 49.2972L86.3106 31.2541C84.3459 30.2736 82.0206 30.345 80.1235 31.4532L10.1 71.9083C9.97601 71.991 9.86707 72.0811 9.76188 72.175C7.37267 74.0346 7.71077 77.9602 10.4381 79.5418L10.4869 79.5681C10.517 79.5869 10.5433 79.6056 10.5733 79.6244L41.7495 97.6299C43.6804 98.5916 45.972 98.5165 47.8353 97.4308L117.592 57.0884C117.724 57.0095 117.844 56.9231 117.953 56.833C120.601 55.0599 120.428 51.0177 117.611 49.3911Z" fill="#FFBE9C"/>
<path d="M117.693 49.2483L117.63 49.361L117.69 49.2483L117.652 49.2182C117.63 49.1994 117.611 49.1844 117.573 49.1581L86.3858 31.1113C84.3647 30.1008 81.9943 30.1759 80.0446 31.3142L10.0098 71.773C9.89338 71.8519 9.77693 71.9421 9.66423 72.0435C8.52597 72.9263 7.90988 74.3576 8.01131 75.8715C8.12025 77.468 8.9993 78.8918 10.363 79.6807L10.4343 79.722C10.4531 79.7333 10.4719 79.7483 10.4944 79.7596L41.6782 97.7764C42.6098 98.2384 43.6128 98.4713 44.6159 98.4676C45.7579 98.4676 46.8961 98.1671 47.9179 97.5697L117.675 57.2274C117.802 57.1522 117.923 57.0658 118.043 56.9644C119.316 56.1116 120.049 54.6691 119.996 53.1026C119.944 51.4947 119.083 50.0522 117.693 49.2483ZM47.3169 89.1624C47.3169 89.1624 48.2485 93.1106 47.516 95.0115C46.7909 96.8973 44.8938 97.2166 44.8638 97.2204C43.7856 97.273 42.6925 97.0551 41.697 96.5555L10.5207 78.5462C10.4907 78.5274 10.4644 78.5086 10.4343 78.4899L10.3855 78.4636C9.34867 77.8625 8.66496 76.9196 8.33814 75.8828C8.33814 75.8715 8.33438 75.8602 8.33438 75.8489C8.23671 74.444 8.80772 73.1179 9.87084 72.2952C9.98354 72.1937 10.085 72.1149 10.1826 72.051L80.2024 31.5922C80.5968 31.363 81.0138 31.1902 81.4345 31.0512C82.2272 30.8408 84.5525 30.4501 86.9004 32.1932C87.1221 32.3547 87.3137 32.5013 87.494 32.6327C87.4752 32.6853 87.4451 32.7417 87.3888 32.7905L47.3169 89.1624Z" fill="black"/>
<path d="M55.7692 91.9836L54.7174 92.5884C54.4131 92.765 54.1652 92.5772 54.1652 92.1715C54.1652 91.7657 54.4093 91.2962 54.7136 91.1196L55.7655 90.5148C56.0698 90.3382 56.3177 90.526 56.3177 90.9318C56.3177 91.3375 56.0735 91.8108 55.7692 91.9836Z" fill="#EA824A"/>
<path d="M54.7174 91.1271C54.4131 91.3037 54.1689 91.7733 54.1689 92.179C54.1689 92.2767 54.1952 92.3555 54.2215 92.4269C54.2666 92.4156 54.3042 92.4044 54.353 92.3743L55.4049 91.7695C55.7092 91.593 55.9533 91.1234 55.9533 90.7177C55.9533 90.62 55.9383 90.5373 55.912 90.4697C55.8669 90.481 55.8181 90.496 55.7693 90.5223L54.7174 91.1271Z" fill="white"/>
<path d="M54.1652 92.5209L54.1389 92.4532C54.1126 92.3781 54.0825 92.288 54.0825 92.179C54.0825 91.7395 54.3417 91.2474 54.6723 91.0558L55.7242 90.451C55.7768 90.4209 55.8294 90.4021 55.8895 90.3871L55.9571 90.3721L55.9834 90.4397C56.0134 90.5223 56.0285 90.6163 56.0285 90.7177C56.0285 91.1572 55.7692 91.6493 55.4387 91.8409L54.3868 92.4457C54.3342 92.4758 54.2891 92.4946 54.2328 92.5058L54.1652 92.5209ZM54.7587 91.1985C54.477 91.3601 54.2478 91.8033 54.2516 92.1828C54.2516 92.2354 54.2591 92.2842 54.2741 92.3293C54.2854 92.3255 54.2966 92.318 54.3117 92.3105L55.3635 91.7057C55.6453 91.5441 55.8707 91.1009 55.8707 90.7252C55.8707 90.6726 55.8669 90.6238 55.8556 90.5787C55.8406 90.5862 55.8256 90.5937 55.8106 90.6012L54.7587 91.1985Z" fill="black"/>
<path d="M56.2427 92.3668C55.9384 92.5434 55.6904 92.3555 55.6904 91.9498C55.6904 91.5441 55.9346 91.0745 56.2389 90.898C56.5432 90.7214 56.7911 90.9092 56.7911 91.3149C56.7911 91.7207 56.5469 92.1902 56.2427 92.3668Z" fill="#EA824A"/>
<path d="M56.0247 92.5321C55.957 92.5321 55.8932 92.5171 55.8331 92.4833C55.6828 92.3969 55.5927 92.2015 55.5927 91.9536C55.5927 91.5103 55.8556 91.0107 56.19 90.8153C56.3515 90.7214 56.5168 90.7101 56.6483 90.7853C56.7985 90.8717 56.8887 91.067 56.8887 91.315C56.8887 91.7582 56.6257 92.2579 56.2914 92.4532C56.1975 92.5058 56.1073 92.5321 56.0247 92.5321ZM56.4567 90.9318C56.3966 90.9318 56.3327 90.9581 56.2876 90.9844C56.0171 91.1422 55.788 91.5854 55.788 91.9536C55.788 92.1301 55.8406 92.2616 55.9307 92.3142C56.0171 92.3631 56.1223 92.3255 56.1937 92.2842C56.4642 92.1264 56.6933 91.6831 56.6933 91.315C56.6933 91.1422 56.6408 91.0069 56.5506 90.9543C56.5205 90.9355 56.4905 90.9318 56.4567 90.9318Z" fill="black"/>
<path d="M55.7054 91.9573C55.7054 91.5516 55.9496 91.082 56.2539 90.9055C56.3816 90.8303 56.5018 90.8266 56.5957 90.8716L56.2163 90.5937C56.205 90.5824 56.1862 90.5711 56.1712 90.5636L56.1374 90.5411L56.1111 90.5223C56.0134 90.4659 55.9195 90.4847 55.7805 90.5636C55.4762 90.7402 55.2321 91.2097 55.2321 91.6155C55.2321 91.8108 55.2922 91.9573 55.3861 92.0325L55.3673 92.0174L55.3898 92.0362C55.3936 92.04 55.4199 92.0587 55.4236 92.0625L55.8519 92.3705C55.7617 92.2917 55.7054 92.1489 55.7054 91.9573Z" fill="white"/>
<path d="M55.7956 92.4494L55.3673 92.1414C55.3673 92.1414 55.3335 92.1151 55.3298 92.1113L55.3185 92.1C55.202 91.9986 55.1382 91.8296 55.1382 91.6154C55.1382 91.1722 55.4011 90.6725 55.7355 90.4772C55.8519 90.4096 56.0022 90.3457 56.1637 90.4359L56.2276 90.4772C56.2464 90.4885 56.2689 90.5035 56.2839 90.5185L56.7197 90.8378L56.6521 91.0031L56.5582 90.958C56.468 90.9167 56.3741 90.9543 56.3065 90.9918C56.036 91.1496 55.8069 91.5929 55.8069 91.9611C55.8069 92.1151 55.8482 92.2353 55.9196 92.2991L55.7956 92.4494ZM55.4462 91.9573L55.4763 91.9761L55.6153 92.0775C55.6115 92.0399 55.6078 91.9986 55.6078 91.9573C55.6078 91.514 55.8707 91.0144 56.2051 90.819C56.2389 90.8003 56.2689 90.7852 56.3027 90.774L56.1562 90.665C56.1412 90.6538 56.1299 90.6462 56.1224 90.6425L56.0586 90.6012C56.021 90.5786 55.9684 90.5636 55.8294 90.6425C55.5589 90.8003 55.3298 91.2435 55.3298 91.6117C55.3298 91.7582 55.3673 91.8784 55.435 91.9423L55.4462 91.9573Z" fill="black"/>
<path d="M57.8428 90.8191C57.8428 90.4134 58.087 89.9438 58.3913 89.7672L61.5394 87.9453C61.6859 87.8589 61.8174 87.8626 61.915 87.9302L61.3929 87.5696L61.344 87.5358C61.2313 87.4494 61.0961 87.4306 60.9346 87.5283L57.7865 89.3502C57.4822 89.5268 57.238 89.9964 57.238 90.4021C57.238 90.5974 57.2681 90.7214 57.3658 90.7965L57.3921 90.8191L57.3958 90.8228C57.3996 90.8266 57.4071 90.8303 57.4108 90.8341L58.0044 91.2473C57.903 91.1684 57.8428 91.0219 57.8428 90.8191Z" fill="white"/>
<path d="M57.9481 91.3262L57.3019 90.8717C57.1592 90.7552 57.1404 90.5786 57.1404 90.4021C57.1404 89.9588 57.4033 89.4592 57.7377 89.2638L60.8857 87.4419C61.1224 87.3066 61.299 87.3742 61.4042 87.4569L61.9714 87.8476L61.8625 88.0091C61.7723 87.949 61.6634 87.9866 61.5882 88.0279L58.4402 89.8499C58.1697 90.0076 57.9405 90.4509 57.9405 90.8191C57.9405 90.9806 57.9856 91.1083 58.0645 91.1684L57.9481 91.3262ZM61.1449 87.5583C61.0999 87.5583 61.0473 87.5733 60.9834 87.6072L57.8354 89.4291C57.5649 89.5869 57.3357 90.0302 57.3357 90.3983C57.3357 90.5749 57.362 90.665 57.4259 90.7176L57.4522 90.7402L57.7527 90.9506C57.7452 90.9092 57.7452 90.8641 57.7452 90.8191C57.7452 90.3758 58.0082 89.8762 58.3425 89.6808L61.4906 87.8588C61.5206 87.8401 61.5507 87.825 61.5845 87.8138L61.2915 87.6109C61.2539 87.5884 61.2088 87.5583 61.1449 87.5583Z" fill="black"/>
<path d="M61.5394 89.4142L58.3913 91.2361C58.087 91.4127 57.8391 91.2249 57.8391 90.8191C57.8391 90.4134 58.0833 89.9438 58.3876 89.7673L61.5356 87.9453C61.8399 87.7688 62.0879 87.9566 62.0879 88.3623C62.0916 88.7643 61.8437 89.2376 61.5394 89.4142Z" fill="#EA824A"/>
<path d="M58.1735 91.3976C58.1058 91.3976 58.042 91.3826 57.9819 91.3488C57.8316 91.2624 57.7415 91.0671 57.7415 90.8191C57.7415 90.3758 58.0044 89.8762 58.3388 89.6809L61.4868 87.8589C61.6521 87.765 61.8136 87.7537 61.9451 87.8289C62.0954 87.9153 62.1855 88.1106 62.1855 88.3585C62.1855 88.8018 61.9226 89.3015 61.5882 89.4968L58.4402 91.3188C58.35 91.3713 58.2599 91.3976 58.1735 91.3976ZM61.7573 87.9754C61.6972 87.9754 61.6333 88.0017 61.5882 88.028L58.4402 89.8499C58.1697 90.0077 57.9406 90.451 57.9406 90.8191C57.9406 90.9919 57.9932 91.1272 58.0833 91.1798C58.1735 91.2286 58.2749 91.191 58.3463 91.1497L61.4943 89.3277C61.7648 89.17 61.994 88.7267 61.994 88.3585C61.994 88.182 61.9414 88.0505 61.8512 87.9979C61.8212 87.9829 61.7873 87.9754 61.7573 87.9754Z" fill="black"/>
<path d="M62.9519 87.8326C62.9519 87.4269 63.196 86.9573 63.5003 86.7808L66.6484 84.9588C66.7949 84.8724 66.9264 84.8762 67.024 84.9438L66.5019 84.5831L66.453 84.5493C66.3403 84.4629 66.2051 84.4441 66.0436 84.5418L62.8955 86.3638C62.5912 86.5403 62.347 87.0099 62.347 87.4156C62.347 87.611 62.3771 87.735 62.4748 87.8101L62.5011 87.8326L62.5048 87.8364C62.5086 87.8401 62.5161 87.8439 62.5199 87.8477L63.1134 88.2609C63.0157 88.182 62.9519 88.0355 62.9519 87.8326Z" fill="white"/>
<path d="M63.0608 88.336L62.4147 87.8814C62.272 87.765 62.2532 87.5884 62.2532 87.4118C62.2532 86.9686 62.5161 86.4689 62.8505 86.2736L65.9985 84.4516C66.2352 84.3164 66.4118 84.384 66.5169 84.4667L67.0842 84.8573L66.9752 85.0189C66.8851 84.9588 66.7761 84.9963 66.701 85.0377L63.553 86.8596C63.2825 87.0174 63.0533 87.4607 63.0533 87.8288C63.0533 87.9904 63.0984 88.1181 63.1773 88.1782L63.0608 88.336ZM66.254 84.5718C66.2089 84.5718 66.1563 84.5869 66.0924 84.6207L62.9444 86.4426C62.6739 86.6004 62.4448 87.0437 62.4448 87.4118C62.4448 87.5884 62.4711 87.6786 62.5349 87.7311L62.5612 87.7537L62.8617 87.9641C62.8542 87.9227 62.8542 87.8777 62.8542 87.8326C62.8542 87.3893 63.1172 86.8897 63.4515 86.6943L66.5996 84.8724C66.6296 84.8536 66.6597 84.8386 66.6935 84.8273L66.4005 84.6244C66.3667 84.6019 66.3178 84.5718 66.254 84.5718Z" fill="black"/>
<path d="M66.6522 86.4276L63.5041 88.2496C63.1998 88.4261 62.9519 88.2383 62.9519 87.8326C62.9519 87.4269 63.1961 86.9573 63.5004 86.7807L66.6484 84.9587C66.9527 84.7822 67.2006 84.97 67.2006 85.3757C67.2006 85.7777 66.9565 86.251 66.6522 86.4276Z" fill="#EA824A"/>
<path d="M63.2863 88.4111C63.2186 88.4111 63.1548 88.3961 63.0947 88.3622C62.9444 88.2758 62.8542 88.0805 62.8542 87.8326C62.8542 87.3893 63.1172 86.8896 63.4515 86.6943L66.5996 84.8723C66.7649 84.7784 66.9264 84.7672 67.0579 84.8423C67.2082 84.9287 67.2983 85.124 67.2983 85.372C67.2983 85.8152 67.0354 86.3149 66.701 86.5102L63.553 88.3322C63.4628 88.3848 63.3727 88.4111 63.2863 88.4111ZM66.8701 84.9888C66.81 84.9888 66.7461 85.0151 66.701 85.0414L63.553 86.8633C63.2825 87.0211 63.0533 87.4644 63.0533 87.8326C63.0533 88.0091 63.1059 88.1406 63.1961 88.1932C63.2863 88.242 63.3877 88.2045 63.4591 88.1631L66.6071 86.3412C66.8776 86.1834 67.1067 85.7401 67.1067 85.372C67.1067 85.1954 67.0542 85.0639 66.964 85.0113C66.9339 84.9963 66.9001 84.9888 66.8701 84.9888Z" fill="black"/>
<path d="M10.0512 72.4793L80.0746 32.0242C81.9717 30.9197 84.2971 30.8446 86.2618 31.8251L117.442 49.8682C119.053 51.0402 119.365 53.3843 117.588 54.4249L47.8315 94.7673C45.9683 95.8568 43.6767 95.9319 41.7458 94.9664L10.5733 76.9572C8.33816 75.6273 8.46212 73.5424 10.0512 72.4793Z" fill="white"/>
<path d="M47.9818 94.3729L117.742 54.0305C118.539 53.5647 118.997 52.8246 119.042 51.9381C119.072 51.3558 118.914 50.7698 118.614 50.2438C118.37 49.8193 118.024 49.4324 117.603 49.1281L86.4083 31.0775C84.3685 30.0557 81.983 30.1346 80.0221 31.2766L9.99859 71.7317C9.15711 72.2952 8.69504 73.1142 8.71758 73.9857C8.74388 74.9737 9.38251 75.8903 10.517 76.5627L41.7007 94.5758C42.6249 95.0341 43.6467 95.2782 44.6647 95.2745C45.8255 95.2745 46.975 94.9627 47.9818 94.3729ZM118.633 51.9193C118.595 52.6631 118.204 53.2867 117.536 53.6774L47.779 94.0198C45.9683 95.0791 43.7669 95.1505 41.8923 94.2151L10.7236 76.2096C10.1301 75.8565 9.68679 75.432 9.42007 74.9737C9.236 74.6544 9.13833 74.32 9.12706 73.9744C9.10827 73.2456 9.50272 72.5544 10.2127 72.0773L80.2249 31.6298C82.0694 30.5554 84.3084 30.484 86.213 31.4344L117.378 49.47C118.197 50.0635 118.681 51.0027 118.633 51.9193Z" fill="black"/>
<path d="M115.12 50.0935L84.9282 32.7642C83.5533 32.0767 81.9229 32.1293 80.593 32.9032L15.2052 70.6685C14.0933 71.4161 14.0031 72.8774 15.5696 73.8053L45.7579 91.1158C47.1103 91.792 48.7143 91.7394 50.0216 90.9768L115.222 53.2866C116.469 52.5578 116.409 50.7396 115.12 50.0935Z" fill="white" stroke="black" stroke-miterlimit="10"/>
<path d="M23.3345 81.4088L23.2969 81.3862C23.0978 81.2735 23.1203 81.0707 23.3495 80.9354C23.5787 80.8002 23.928 80.7852 24.1271 80.8979L24.1647 80.9204C24.3638 81.0331 24.3413 81.236 24.1121 81.3712C23.8829 81.5064 23.5336 81.5215 23.3345 81.4088Z" fill="#EA824A"/>
<path d="M31.4 86.0144L24.4652 82.0549C24.2661 81.9422 24.2887 81.7394 24.5178 81.6041C24.747 81.4689 25.0964 81.4539 25.2955 81.5666L32.2302 85.5261C32.4293 85.6388 32.4067 85.8416 32.1776 85.9768C31.9484 86.1121 31.5991 86.1271 31.4 86.0144Z" fill="#EA824A"/>
<path d="M23.6689 81.2999C23.8567 81.2999 24.0408 81.251 24.1873 81.1684C24.3563 81.0707 24.454 80.928 24.4502 80.7814C24.4502 80.7213 24.4352 80.665 24.4052 80.6162C24.3714 80.5561 24.315 80.4997 24.2399 80.4584L24.2023 80.4358C23.9581 80.2968 23.5487 80.3119 23.2744 80.4734C23.1054 80.5711 23.0077 80.7138 23.0115 80.8603C23.0115 80.9918 23.0866 81.1083 23.2218 81.1872L23.2594 81.2097C23.3683 81.2661 23.5148 81.2999 23.6689 81.2999ZM23.4097 80.943L23.3721 80.9204C23.3458 80.9054 23.327 80.8866 23.3195 80.8716C23.3157 80.8641 23.3157 80.8603 23.3157 80.8528C23.3157 80.8265 23.3496 80.7739 23.4322 80.7289C23.5299 80.6725 23.6689 80.6387 23.8003 80.6387C23.9055 80.6387 23.9957 80.6575 24.0596 80.695L24.0971 80.7176C24.1347 80.7401 24.1572 80.7627 24.1572 80.7814C24.1572 80.8115 24.1197 80.8603 24.0408 80.9054C23.8529 81.0144 23.5599 81.0294 23.4097 80.943Z" fill="black"/>
<path d="M32.2566 85.774C32.4256 85.6764 32.5195 85.5336 32.5195 85.3871C32.5195 85.327 32.5045 85.2706 32.4744 85.2218C32.4369 85.1617 32.3843 85.1054 32.3091 85.064L25.3744 81.1045C25.1302 80.9655 24.7208 80.9806 24.4465 81.1421C24.2775 81.2398 24.1798 81.3825 24.1836 81.529C24.1836 81.6605 24.2587 81.777 24.3939 81.8521L31.3287 85.8116C31.4376 85.8755 31.5804 85.9093 31.7381 85.9093C31.9222 85.9055 32.1063 85.8604 32.2566 85.774ZM31.4752 85.5486L24.5405 81.5892C24.5142 81.5741 24.4954 81.5591 24.4879 81.5441C24.4841 81.5366 24.4841 81.5328 24.4841 81.529C24.4841 81.499 24.5179 81.4502 24.5968 81.4051C24.6982 81.345 24.8297 81.3112 24.965 81.3112C25.0701 81.3112 25.1603 81.3299 25.2242 81.3675L32.1589 85.327C32.1927 85.3458 32.219 85.3721 32.219 85.3909C32.219 85.4209 32.1852 85.4697 32.1025 85.5148C31.9222 85.62 31.6292 85.635 31.4752 85.5486Z" fill="black"/>
<path d="M42.9516 96.6983C43.0943 96.781 43.2145 96.7133 43.2145 96.548C43.2145 96.3828 43.0981 96.1799 42.9516 96.0935C42.8088 96.0109 42.6886 96.0785 42.6886 96.2438C42.6886 96.4128 42.8051 96.6157 42.9516 96.6983Z" fill="black"/>
<path d="M41.5843 95.9094C41.727 95.992 41.8472 95.9244 41.8472 95.7591C41.8472 95.5938 41.7308 95.391 41.5843 95.3046C41.4415 95.2219 41.3213 95.2895 41.3213 95.4548C41.3213 95.6239 41.4377 95.8267 41.5843 95.9094Z" fill="black"/>
<path d="M40.2168 95.1204C40.3596 95.2031 40.4798 95.1355 40.4798 94.9702C40.4798 94.8049 40.3633 94.602 40.2168 94.5156C40.0741 94.433 39.9539 94.5006 39.9539 94.6659C39.9539 94.8312 40.0703 95.034 40.2168 95.1204Z" fill="black"/>
<path d="M38.8494 93.723C38.7066 93.6404 38.5864 93.708 38.5864 93.8733C38.5864 94.0386 38.7029 94.2414 38.8494 94.3278C38.9921 94.4105 39.1124 94.3429 39.1124 94.1776C39.1086 94.0123 38.9921 93.8094 38.8494 93.723Z" fill="black"/>
<path d="M37.4669 93.5314C37.6097 93.6141 37.7299 93.5465 37.7299 93.3812C37.7299 93.2159 37.6135 93.013 37.4669 92.9266C37.3242 92.844 37.204 92.9116 37.204 93.0769C37.204 93.2459 37.3242 93.4488 37.4669 93.5314Z" fill="black"/>
<path d="M36.0995 92.7425C36.2423 92.8252 36.3625 92.7575 36.3625 92.5922C36.3625 92.427 36.246 92.2241 36.0995 92.1377C35.9568 92.055 35.8365 92.1227 35.8365 92.288C35.8365 92.457 35.9568 92.6599 36.0995 92.7425Z" fill="black"/>
<path d="M34.7321 91.9536C34.8748 92.0362 34.995 91.9686 34.995 91.8033C34.995 91.638 34.8786 91.4352 34.7321 91.3488C34.5893 91.2661 34.4691 91.3337 34.4691 91.499C34.4691 91.6681 34.5856 91.8709 34.7321 91.9536Z" fill="black"/>
<path d="M33.3646 91.1647C33.5074 91.2474 33.6276 91.1798 33.6276 91.0145C33.6276 90.8492 33.5112 90.6463 33.3646 90.5599C33.2219 90.4773 33.1017 90.5449 33.1017 90.7102C33.1017 90.8755 33.2181 91.0783 33.3646 91.1647Z" fill="black"/>
<path d="M12.9136 79.399C13.0564 79.4816 13.1766 79.414 13.1766 79.2487C13.1766 79.0834 13.0601 78.8806 12.9136 78.7942C12.7708 78.7115 12.6506 78.7792 12.6506 78.9444C12.6506 79.1097 12.7671 79.3126 12.9136 79.399Z" fill="black"/>
<path d="M11.5463 78.6064C11.689 78.689 11.8093 78.6214 11.8093 78.4561C11.8093 78.2908 11.6928 78.088 11.5463 78.0016C11.4035 77.9189 11.2833 77.9866 11.2833 78.1518C11.2833 78.3209 11.3998 78.5238 11.5463 78.6064Z" fill="black"/>
<path d="M10.1751 77.8175C10.3178 77.9001 10.438 77.8325 10.438 77.6672C10.438 77.5019 10.3216 77.299 10.1751 77.2126C10.0323 77.13 9.91211 77.1976 9.91211 77.3629C9.91211 77.5282 10.0323 77.7348 10.1751 77.8175Z" fill="black"/>
<path d="M99.5377 54.7217L77.3473 41.9116C76.9228 41.6674 76.9754 41.2392 77.4676 40.9537L83.8576 37.2647C84.3497 36.9829 85.0897 36.9491 85.5142 37.197L107.705 50.0109C108.129 50.2551 108.077 50.6833 107.584 50.9688L101.194 54.6578C100.702 54.9358 99.9622 54.9659 99.5377 54.7217Z" fill="white"/>
<path d="M100.259 55.2288C99.9284 55.2288 99.6091 55.1612 99.3649 55.0185L77.1745 42.2046C76.8815 42.0356 76.7162 41.7764 76.7162 41.4909C76.7162 41.1716 76.9266 40.8635 77.2947 40.6531L83.6847 36.9641C84.2783 36.6223 85.1573 36.5922 85.6832 36.8965L107.874 49.7104C108.167 49.8794 108.332 50.1386 108.332 50.4241C108.332 50.7472 108.122 51.0515 107.753 51.2656L101.367 54.9546C101.048 55.1349 100.646 55.2288 100.259 55.2288ZM99.7105 54.4249C100.03 54.609 100.642 54.5752 101.025 54.3573L107.412 50.6683C107.584 50.5706 107.644 50.4692 107.644 50.4241C107.644 50.3978 107.611 50.3527 107.532 50.3077L85.3414 37.4976C85.0258 37.3135 84.4098 37.3436 84.0266 37.5652L77.6366 41.2542C77.4638 41.3519 77.4036 41.4533 77.4036 41.4984C77.4036 41.5247 77.4375 41.5698 77.5201 41.6148L99.7105 54.4249Z" fill="black"/>
<path d="M77.6103 69.4928L67.4749 63.6399C66.9039 63.3094 66.9753 62.7346 67.6364 62.3552L74.2819 58.5197C74.9393 58.1402 75.9386 58.0989 76.5058 58.4258L86.6412 64.2748C87.2122 64.6054 87.1408 65.1802 86.4797 65.5596L79.8342 69.3951C79.1768 69.782 78.1813 69.8234 77.6103 69.4928Z" fill="#FFBE9C"/>
<path d="M78.2075 67.8135C77.783 67.8135 77.3773 67.7234 77.0693 67.5468L66.9339 61.6978C66.577 61.4912 66.3779 61.1869 66.3779 60.8413C66.3779 60.4543 66.6371 60.0787 67.0954 59.8157L73.7409 55.9802C74.5073 55.5407 75.6343 55.4993 76.3104 55.89L86.4458 61.7391C86.8065 61.9457 87.0018 62.25 87.0018 62.5956C87.0018 62.9825 86.7426 63.3582 86.2843 63.6212L79.6388 67.4567C79.2218 67.6896 78.7034 67.8135 78.2075 67.8135ZM75.1684 56.3033C74.789 56.3033 74.3871 56.3934 74.079 56.5737L67.4335 60.4092C67.1593 60.567 67.0616 60.7361 67.0616 60.8375C67.0616 60.9577 67.1969 61.0516 67.2758 61.0967L77.4111 66.9495C77.877 67.22 78.741 67.1749 79.2932 66.8556L85.9387 63.0201C86.2129 62.8623 86.3106 62.6933 86.3106 62.5918C86.3106 62.4716 86.1753 62.3777 86.0965 62.3326L75.9611 56.4836C75.7545 56.3634 75.4727 56.3033 75.1684 56.3033Z" fill="black"/>
<path d="M62.5124 75.7963L40.6601 63.1815C40.1529 62.8885 40.2168 62.3738 40.8028 62.0357L51.7271 55.811C52.3131 55.4729 53.2035 55.4354 53.7106 55.7284L75.5591 68.3431C76.0663 68.6361 76.0024 69.1508 75.4164 69.4889L64.4921 75.7136C63.9098 76.0555 63.0195 76.0893 62.5124 75.7963Z" fill="white"/>
<path d="M63.3764 76.3372C62.9932 76.3372 62.6251 76.2583 62.3396 76.093L40.4873 63.4783C40.1567 63.2867 39.9727 63.005 39.9727 62.6819C39.9727 62.3213 40.2131 61.9794 40.6301 61.7352L51.5581 55.5105C52.2493 55.1123 53.2711 55.0785 53.8834 55.4278L75.732 68.0426C76.0625 68.2342 76.2466 68.5159 76.2466 68.839C76.2466 69.1996 76.0062 69.5415 75.5892 69.7819L64.6612 76.0066C64.293 76.2283 63.8235 76.3372 63.3764 76.3372ZM52.8541 55.8749C52.5235 55.8749 52.1704 55.9538 51.8999 56.1116L40.9719 62.3363C40.7428 62.4678 40.6601 62.6068 40.6601 62.6856C40.6601 62.7758 40.7803 62.8547 40.8329 62.8885L62.6852 75.5032C63.0834 75.7324 63.8498 75.6948 64.3268 75.4206L75.2549 69.1959C75.484 69.0644 75.5667 68.9254 75.5667 68.8465C75.5667 68.7563 75.4464 68.6775 75.3939 68.6474L53.5453 56.0327C53.3613 55.9237 53.1133 55.8749 52.8541 55.8749Z" fill="black"/>
<path d="M93.5533 58.4333L70.9159 45.364C70.6153 45.1912 70.6529 44.8869 71.0023 44.684L73.4253 43.2865C73.7747 43.0837 74.3006 43.0649 74.6011 43.2377L97.2385 56.307C97.5391 56.4798 97.5015 56.7841 97.1521 56.987L94.7291 58.3844C94.3835 58.5873 93.8538 58.6098 93.5533 58.4333Z" fill="white"/>
<path d="M94.068 58.8953C93.8163 58.8953 93.5721 58.8427 93.3805 58.73L70.7431 45.6607C70.5064 45.5217 70.3674 45.3076 70.3674 45.0671C70.3674 44.8042 70.5327 44.5562 70.8257 44.3872L73.2488 42.9897C73.7071 42.7267 74.357 42.7042 74.7702 42.9409L97.4076 56.0102C97.6443 56.1492 97.7833 56.3633 97.7833 56.6037C97.7833 56.8704 97.6142 57.1184 97.325 57.2874L94.9019 58.6849C94.6578 58.8239 94.3572 58.8953 94.068 58.8953ZM93.7261 58.1364C93.9027 58.2378 94.2971 58.2416 94.5601 58.0876L96.9831 56.6901C97.0808 56.6338 97.1033 56.5887 97.1033 56.5887L74.4321 43.5344C74.2555 43.4292 73.8611 43.4292 73.5981 43.5833L71.1751 44.9807C71.0774 45.0371 71.0587 45.0822 71.0549 45.0822L93.7261 58.1364Z" fill="black"/>
<path d="M88.4444 62.6444L65.807 49.5751C65.5064 49.4023 65.544 49.0981 65.8934 48.8952L68.3164 47.4977C68.6658 47.2949 69.1917 47.2761 69.4922 47.4489L92.1296 60.5182C92.4302 60.691 92.3926 60.9953 92.0432 61.1981L89.6202 62.5956C89.2746 62.7947 88.7449 62.8172 88.4444 62.6444Z" fill="#EA824A"/>
<path d="M88.9666 61.8405C88.7149 61.8405 88.4707 61.7879 88.2829 61.6752L65.6454 48.6059C65.4088 48.4669 65.2698 48.2527 65.2698 48.0123C65.2698 47.7494 65.4388 47.4977 65.7281 47.3324L68.1511 45.9349C68.6094 45.6719 69.2631 45.6494 69.6725 45.8861L92.31 58.9554C92.5466 59.0944 92.6856 59.3085 92.6856 59.5489C92.6856 59.8156 92.5166 60.0636 92.2273 60.2326L89.8043 61.6301C89.5563 61.7691 89.2558 61.8405 88.9666 61.8405ZM68.9888 46.4082C68.8235 46.4082 68.6395 46.4458 68.4967 46.5285L66.0737 47.9259C65.976 47.9823 65.9535 48.0273 65.9535 48.0273L88.6247 61.0816C88.8013 61.183 89.1957 61.183 89.4587 61.0328L91.8817 59.6353C91.9794 59.579 92.0019 59.5339 92.0019 59.5339L69.3307 46.4834C69.2518 46.4345 69.1241 46.4082 68.9888 46.4082Z" fill="black"/>
<path d="M69.2556 57.7345L60.5703 52.7194C60.2096 52.5128 60.2547 52.1484 60.6717 51.9079L62.8468 50.6532C63.2638 50.4128 63.8949 50.3865 64.2555 50.5931L72.9408 55.6082C73.3015 55.8148 73.2564 56.1792 72.8394 56.4197L70.6643 57.6744C70.2473 57.9185 69.6162 57.9448 69.2556 57.7345Z" fill="#EA824A"/>
<path d="M69.8791 56.9569C69.5899 56.9569 69.3119 56.8968 69.094 56.769L60.4087 51.7539C60.1457 51.5999 59.9917 51.3632 59.9917 51.104C59.9917 50.811 60.1795 50.5368 60.5064 50.349L62.6814 49.0942C63.2111 48.79 63.9625 48.7637 64.432 49.0379L73.1173 54.0492C73.3803 54.2033 73.5343 54.4399 73.5343 54.6991C73.5343 54.9921 73.3465 55.2664 73.0197 55.4542L70.8446 56.7089C70.5591 56.8742 70.2135 56.9569 69.8791 56.9569ZM60.6792 51.104C60.6792 51.104 60.7017 51.1303 60.7505 51.1604L69.4358 56.1755C69.6913 56.322 70.1909 56.2957 70.5027 56.1154L72.6778 54.8607C72.8131 54.7818 72.8506 54.7142 72.8506 54.6954C72.8506 54.6954 72.8281 54.6691 72.7792 54.639L64.0939 49.6277C63.8385 49.4774 63.3426 49.5037 63.0308 49.684L60.8557 50.9388C60.7167 51.0214 60.6792 51.089 60.6792 51.104Z" fill="black"/>
<path d="M63.9099 60.8225L55.2246 55.8074C54.8639 55.6008 54.909 55.2364 55.326 54.996L57.5011 53.7412C57.9181 53.5008 58.5492 53.4745 58.9098 53.6811L67.5951 58.6962C67.9557 58.9028 67.9107 59.2672 67.4937 59.5077L65.3186 60.7624C64.9016 61.0028 64.2705 61.0291 63.9099 60.8225Z" fill="#EA824A"/>
<path d="M64.5334 60.0411C64.2442 60.0411 63.9662 59.981 63.7445 59.8533L55.063 54.8419C54.8 54.6879 54.6498 54.4513 54.646 54.192C54.646 53.899 54.8338 53.6248 55.1644 53.4332L57.3395 52.1747C57.8654 51.8742 58.6205 51.8442 59.0901 52.1184L67.7754 57.1335C68.0384 57.2875 68.1924 57.5242 68.1924 57.7834C68.1924 58.0764 68.0045 58.3506 67.6777 58.5385L65.5026 59.7932C65.2134 59.9585 64.8678 60.0411 64.5334 60.0411ZM64.0901 59.2597C64.3456 59.41 64.8452 59.3837 65.1533 59.2034L67.3284 57.9487C67.4636 57.8698 67.5012 57.8022 67.5012 57.7834C67.5012 57.7834 67.4824 57.7571 67.4298 57.727L58.7445 52.7119C58.489 52.5617 57.9894 52.588 57.6776 52.7683L55.5025 54.023C55.3673 54.0981 55.3335 54.1695 55.3297 54.1845C55.3297 54.1845 55.3485 54.2071 55.4011 54.2409L64.0901 59.2597Z" fill="black"/>
<path d="M46.8547 86.8596L29.9686 77.2276C28.3495 76.2997 28.5486 74.6693 30.4119 73.5874C32.2752 72.5055 35.1002 72.3816 36.7155 73.3132L53.6016 82.9452C55.2207 83.8731 55.0216 85.5034 53.1583 86.5854C51.295 87.6673 48.47 87.7875 46.8547 86.8596Z" fill="#EA824A"/>
<path d="M49.5895 86.4915C48.5377 86.4952 47.5309 86.2848 46.7796 85.8528L29.8936 76.2208C29.1422 75.7888 28.729 75.1878 28.729 74.5191C28.729 73.7264 29.315 72.93 30.3368 72.3365C32.2377 71.2358 35.1265 71.1118 36.7832 72.0623L53.6692 81.6905C54.4206 82.1225 54.8338 82.7236 54.8338 83.3885C54.8338 84.1811 54.2478 84.9775 53.226 85.5711C52.1891 86.1759 50.8555 86.4877 49.5895 86.4915ZM46.9223 85.6086C48.5001 86.514 51.265 86.39 53.087 85.3344C54.0224 84.7935 54.5596 84.0835 54.5558 83.3922C54.5558 82.8325 54.1914 82.3141 53.5302 81.9347L36.6442 72.3027C35.0664 71.3973 32.3016 71.5213 30.4796 72.5769C29.5442 73.1216 29.007 73.8279 29.0108 74.5191C29.0108 75.0788 29.3751 75.5972 30.0363 75.9767L46.9223 85.6086Z" fill="black"/>
<path d="M37.219 78.1291C37.1552 78.0916 37.1552 78.0502 37.219 78.0127L39.2326 76.8481C39.2965 76.8106 39.3641 76.8106 39.4317 76.8481L40.1229 77.2463C40.4497 77.4342 40.4573 77.6821 40.1417 77.8662C39.9764 77.9601 39.7585 78.0014 39.5482 77.9901C39.6383 78.178 39.5594 78.3883 39.304 78.5349C38.8907 78.7715 38.3348 78.7678 37.9103 78.5236L37.219 78.1291ZM38.1281 78.4034C38.4099 78.5649 38.7893 78.5649 39.0711 78.4034C39.3528 78.2418 39.3528 78.0239 39.0711 77.8587L38.5076 77.5318L37.5646 78.0765L38.1281 78.4034ZM39.2852 77.7347C39.473 77.8436 39.721 77.8436 39.905 77.7347C40.0891 77.6257 40.0891 77.483 39.905 77.3778L39.3415 77.051L38.7217 77.4079L39.2852 77.7347Z" fill="black"/>
<path d="M39.7435 78.6626L41.0583 77.9038C41.1222 77.8662 41.1898 77.8662 41.2574 77.9038L41.2837 77.9188C41.3476 77.9564 41.3476 77.9939 41.2837 78.0315L39.9689 78.7903C39.5782 79.0157 39.5782 79.2825 39.9726 79.5116C40.3633 79.737 40.8254 79.737 41.2161 79.5079L42.5309 78.749C42.5948 78.7115 42.6624 78.7115 42.73 78.749L42.7563 78.764C42.8202 78.8016 42.8202 78.8392 42.7563 78.8767L41.4415 79.6356C40.908 79.9436 40.2807 79.9436 39.7472 79.6393C39.21 79.3351 39.21 78.9707 39.7435 78.6626Z" fill="black"/>
<path d="M41.4002 80.5446C41.3251 80.5033 41.3514 80.4582 41.4491 80.4357L42.2379 80.2816L42.9742 79.0344C43.0118 78.9781 43.0907 78.9631 43.1658 79.0081L43.1996 79.0269C43.256 79.0607 43.271 79.0945 43.2447 79.1359L42.6099 80.2065L44.4656 79.8384C44.537 79.8233 44.5971 79.8308 44.6497 79.8647L44.6835 79.8834C44.7624 79.9285 44.7399 79.9736 44.6384 79.9924L41.6219 80.5897C41.5505 80.6047 41.4904 80.5972 41.4378 80.5634L41.4002 80.5446Z" fill="black"/>
<path d="M41.0132 60.6009C40.2581 60.1463 39.5894 60.2853 39.3415 60.6722C39.2964 60.7436 39.1837 60.6835 39.1386 60.5595C38.887 59.9096 38.2333 58.9216 37.4895 58.4709C37.0011 58.1778 36.5578 58.1328 36.2197 58.2943V58.2905L36.1784 58.3131C36.1596 58.3206 36.0056 58.4107 35.9868 58.422L33.9094 59.6166C33.9094 59.6166 35.5436 65.1126 35.5924 65.353C35.6375 65.5934 37.6059 68.888 37.6059 68.888L39.751 67.6558C39.7773 67.6445 39.7998 67.6333 39.8224 67.6145L42.2228 65.7963C42.6624 65.4582 42.9065 64.8271 42.9065 64.0231C42.9028 62.7684 42.0575 61.232 41.0132 60.6009Z" fill="white"/>
<path d="M35.9193 58.3018C35.9306 58.2943 36.0959 58.2004 36.1146 58.1891L36.2574 58.1064C36.6331 57.975 37.0951 58.0689 37.5572 58.3469C38.3047 58.7977 38.9809 59.7744 39.2664 60.5069C39.2702 60.5144 39.2702 60.5182 39.274 60.522C39.582 60.1388 40.2882 59.996 41.0809 60.4731C42.159 61.123 43.0381 62.7196 43.0381 64.0306C43.0381 64.8871 42.7751 65.5596 42.298 65.924L39.8976 67.7422C39.8675 67.7647 39.8375 67.7835 39.7999 67.7985L37.5534 69.0908L37.482 68.9744C37.0162 68.1967 35.4986 65.6385 35.4497 65.3905C35.4159 65.2177 34.4279 61.8743 33.7705 59.6692L33.7367 59.5565L35.9193 58.3018ZM35.7277 65.3342C35.7841 65.5295 36.9073 67.4567 37.6511 68.7039L39.6797 67.5393C39.7097 67.5243 39.7248 67.5168 39.736 67.5093L42.1365 65.6911C42.5385 65.383 42.7639 64.7932 42.7639 64.0344C42.7639 62.8173 41.9487 61.3371 40.9457 60.7323C40.2544 60.3153 39.6646 60.4355 39.4618 60.7586C39.443 60.7849 39.4205 60.8037 39.3979 60.8225L40.2432 62.0584L38.8232 63.5911L36.3889 64.0945C36.3889 64.0945 35.4535 62.3702 35.4535 62.0208C35.4535 61.6715 35.8442 60.2064 35.8442 60.2064L37.8765 58.9592C37.73 58.8202 37.576 58.6962 37.4182 58.6023C36.9899 58.3431 36.588 58.283 36.2799 58.4333L36.2461 58.4483C36.2273 58.4596 36.0808 58.5422 36.062 58.5535L34.0785 59.6917C34.3528 60.6196 35.6864 65.1013 35.7277 65.3342Z" fill="black"/>
<path d="M41.002 60.6346C40.4949 60.3303 40.0328 60.2965 39.7022 60.4205L39.6985 60.4167L39.6684 60.4355C39.6045 60.4618 39.5444 60.4956 39.4918 60.537L37.5421 61.6715L36.5316 64.981L37.5421 68.7452C37.5684 68.8391 37.6699 68.8842 37.7525 68.8391L39.736 67.7008C39.7623 67.6896 39.7849 67.6783 39.8074 67.6595L42.2079 65.8413C42.6474 65.5032 42.8916 64.8721 42.8916 64.0682C42.8916 62.7984 42.0463 61.262 41.002 60.6346Z" fill="white"/>
<path d="M37.4256 61.5701L39.4241 60.4093C39.4692 60.3717 39.5368 60.3341 39.6157 60.3003L39.7209 60.2402L39.7397 60.259C40.1341 60.1426 40.6112 60.2327 41.0733 60.5107C42.1515 61.1606 43.0305 62.7572 43.0305 64.0682C43.0305 64.9247 42.7675 65.5972 42.2905 65.9616L39.89 67.7798C39.8599 67.8023 39.8299 67.8211 39.7923 67.8361L37.8238 68.9706C37.79 68.9894 37.7524 69.0007 37.7149 69.0044L37.6886 69.0232L37.6848 69.0082C37.6473 69.0082 37.6135 69.0007 37.5759 68.9856C37.4932 68.9518 37.4331 68.8805 37.4106 68.7903L36.3888 64.9811L37.4256 61.5701ZM40.9306 60.7624C40.5098 60.5069 40.0778 60.4318 39.751 60.5595L39.7284 60.5671C39.6646 60.5971 39.6195 60.6234 39.5782 60.6535L37.6585 61.7692L36.6781 64.9811L37.4369 67.8098L38.5376 66.8594L40.0628 63.3394L42.1702 62.1035C41.8434 61.54 41.4114 61.0517 40.9306 60.7624Z" fill="black"/>
<path d="M40.0027 67.0811C40.4422 66.743 40.6864 66.1119 40.6864 65.308C40.6864 64.042 39.8411 62.5055 38.7968 61.8782C38.0417 61.4236 37.373 61.5626 37.1251 61.9495C37.08 62.0209 36.9673 61.9608 36.9222 61.8368C36.6705 61.1869 36.0169 60.199 35.2731 59.7482C34.225 59.117 33.376 59.6279 33.376 60.8939C33.376 61.7016 33.6202 62.6257 34.0634 63.4973L36.4602 68.2081C36.7645 68.8054 37.2979 69.1284 37.6022 68.8993L40.0027 67.0811Z" fill="#FFBE9C"/>
<path d="M38.5752 67.9376C38.9508 67.6484 39.1612 67.1074 39.1612 66.4162C39.1612 65.3343 38.4362 64.0157 37.5459 63.4785C36.8997 63.0878 36.325 63.208 36.1146 63.5424C36.077 63.6025 35.9794 63.5499 35.938 63.4447C35.7202 62.8887 35.1604 62.0397 34.5255 61.6565C33.6277 61.1156 32.8989 61.5551 32.8989 62.637C32.8989 63.3282 33.1093 64.1209 33.4887 64.8647L35.5436 68.8993C35.8028 69.4102 36.2611 69.6882 36.5203 69.4891L38.5752 67.9376Z" fill="white"/>
<path d="M37.3731 69.1171C37.3243 69.1171 37.2717 69.1096 37.2191 69.0984C36.8923 69.0195 36.5542 68.7039 36.3363 68.2757L33.9396 63.5649C33.485 62.6745 33.2371 61.7241 33.2371 60.8939C33.2371 60.229 33.4587 59.7256 33.8644 59.4814C34.2664 59.2372 34.7961 59.2861 35.3483 59.6204C36.0921 60.0712 36.772 61.0479 37.0575 61.7805C37.0613 61.788 37.0613 61.7917 37.0651 61.7955C37.3731 61.4123 38.0793 61.2696 38.872 61.7467C39.9501 62.3966 40.8292 63.9931 40.8292 65.3042C40.8292 66.1607 40.5662 66.8331 40.0891 67.1975L37.6887 69.0157C37.5947 69.0833 37.4896 69.1171 37.3731 69.1171ZM34.4279 59.6242C34.2701 59.6242 34.1274 59.6617 34.0034 59.7369C33.6916 59.9247 33.5188 60.3379 33.5188 60.8939C33.5188 61.6753 33.7555 62.5769 34.1912 63.4259L36.588 68.1367C36.7645 68.486 37.0388 68.7528 37.2867 68.8129C37.3806 68.8354 37.4633 68.8241 37.5234 68.7791L39.9239 66.9646C40.3258 66.6566 40.5512 66.0668 40.5512 65.3079C40.5512 64.0908 39.736 62.6107 38.733 62.0059C38.0418 61.5889 37.452 61.7091 37.2491 62.0322C37.2078 62.0998 37.1327 62.1336 37.0575 62.1261C36.9486 62.1148 36.8472 62.0246 36.7983 61.8932C36.5391 61.2245 35.893 60.2891 35.2093 59.8796C34.9275 59.7068 34.6608 59.6242 34.4279 59.6242Z" fill="black"/>
<path d="M64.3456 78.0879C64.2291 77.9864 64.0863 77.8963 63.9361 77.8174C62.3883 76.9759 59.924 77.036 58.4251 77.9338C58.2748 78.024 58.1396 78.1254 58.0307 78.2193L57.3019 78.4598L57.3244 79.5417C57.3394 80.3456 58.0833 81.1195 59.5559 81.5252C60.6791 81.837 61.8662 81.8069 62.9669 81.4613C64.4169 80.9955 65.1232 80.1765 65.1081 79.3726L65.0856 78.2907L64.3456 78.0879Z" fill="#FFBE9C"/>
<path d="M58.5529 81.2961C57.7001 80.8678 57.2005 80.2367 57.1854 79.5568L57.1554 78.3246H57.2794L57.9593 78.0992C58.0946 77.9978 58.2298 77.9001 58.3538 77.8137C59.8902 76.8896 62.4184 76.8219 64 77.6785C64.1352 77.7461 64.2742 77.84 64.4094 77.9489L65.1044 78.1518H65.2284L65.2584 79.384C65.2735 80.3156 64.4395 81.1308 63.0082 81.6041C61.8775 81.976 60.6716 81.9986 59.5146 81.668C59.1502 81.5741 58.8384 81.4388 58.5529 81.2961ZM57.4334 78.5688L57.4634 79.5493C57.4785 80.3532 58.2899 81.0331 59.5934 81.3975C60.6829 81.6943 61.8474 81.6717 62.9181 81.3299C63.6168 81.1083 64.1577 80.7927 64.5109 80.4283C64.8151 80.1128 64.9729 79.7559 64.9692 79.384L64.9391 78.4035L64.2629 78.2081L64.2479 78.2006C64.1127 78.0917 63.9887 78.009 63.8535 77.9414C62.3546 77.1262 59.9428 77.1676 58.4852 78.0691C58.3575 78.1518 58.2335 78.2344 58.0983 78.3359L58.072 78.3434L57.4334 78.5688Z" fill="black"/>
<path d="M63.9023 76.6304C65.45 77.4718 65.4688 78.8881 63.9774 79.8122C62.4672 80.7288 60.0142 80.7739 58.4664 79.9287C56.9187 79.0872 56.8999 77.6709 58.3913 76.7468C59.894 75.8452 62.3583 75.7851 63.9023 76.6304Z" fill="white"/>
<path d="M58.5153 80.124C58.4815 80.109 58.4327 80.0827 58.3989 80.0639C57.6137 79.6244 57.163 79.0233 57.1479 78.3847C57.1404 77.731 57.5536 77.1225 58.3162 76.6454C59.8527 75.7212 62.3809 75.6536 63.9624 76.5101C64.7476 76.9496 65.1984 77.5507 65.2134 78.1893C65.2209 78.843 64.8077 79.4516 64.0451 79.9287C62.5612 80.8378 60.1044 80.9242 58.5153 80.124ZM63.7295 76.6867C62.2231 75.9278 59.9015 75.9955 58.4778 76.8708C57.7903 77.2802 57.4372 77.8137 57.4334 78.3584C57.4485 78.9106 57.8391 79.4215 58.5341 79.7934C60.033 80.6086 62.4448 80.5673 63.9023 79.6657C64.5898 79.2562 64.9429 78.7228 64.9467 78.1781C64.9316 77.6258 64.541 77.1112 63.846 76.743C63.7934 76.7205 63.7633 76.7055 63.7295 76.6867Z" fill="black"/>
<path d="M63.0571 77.145C64.1127 77.716 64.1427 78.6965 63.1097 79.3314C62.0766 79.9662 60.3861 79.9925 59.3305 79.4215C58.2749 78.8505 58.2448 77.8701 59.2779 77.2352C60.311 76.6003 61.9864 76.5628 63.0571 77.145Z" fill="#FFBE9C"/>
<path d="M59.3305 79.5906C59.2967 79.5755 59.2816 79.5643 59.2478 79.5492C58.6881 79.245 58.3801 78.8167 58.365 78.3471C58.35 77.8775 58.6543 77.4418 59.199 77.1112C60.2659 76.4538 62.024 76.4162 63.1209 77.0285C63.6806 77.3328 63.9887 77.7611 64.0037 78.2307C64.0187 78.7002 63.7145 79.136 63.1697 79.4666C62.1254 80.0752 60.4349 80.1465 59.3305 79.5906ZM62.9068 77.2389C61.885 76.7243 60.311 76.7693 59.3455 77.3554C58.891 77.6296 58.6468 77.9902 58.6543 78.3509C58.6618 78.7115 58.9285 79.0571 59.3906 79.3088C60.4124 79.8648 62.0428 79.8272 63.0345 79.2374C63.4891 78.9632 63.7332 78.6026 63.7257 78.2419C63.7182 77.8813 63.4515 77.5357 62.9932 77.284C62.9556 77.2615 62.9218 77.2464 62.9068 77.2389Z" fill="black"/>
<path d="M63.8084 78.5312C63.6995 78.2457 63.459 77.9789 63.0646 77.7573C62.009 77.1863 60.3185 77.2126 59.2854 77.8475C58.8985 78.0729 58.6731 78.3584 58.5717 78.6401C58.6806 78.9256 58.921 79.1923 59.3155 79.414C60.3711 79.985 62.0616 79.9587 63.0946 79.3238C63.4778 79.0984 63.722 78.8242 63.8084 78.5312Z" fill="#EA824A"/>
<path d="M59.3305 79.5905C59.2967 79.5755 59.2817 79.5642 59.2478 79.5492C58.8384 79.32 58.5641 79.0345 58.4364 78.7002L58.4214 78.6513L58.4477 78.6025C58.5491 78.2757 58.8271 77.9751 59.2215 77.7347C60.2884 77.0773 62.0465 77.0398 63.1435 77.6521C63.5529 77.8812 63.8272 78.1667 63.9549 78.5011L63.9699 78.5499L63.9436 78.5987C63.8422 78.9256 63.5642 79.2261 63.1698 79.4665C62.1254 80.0751 60.4349 80.1465 59.3305 79.5905ZM58.7144 78.6476C58.8233 78.8918 59.0487 79.1096 59.3756 79.2937C60.3974 79.8497 62.0277 79.8121 63.0195 79.2223C63.3463 79.0308 63.5492 78.7978 63.6506 78.5537C63.5417 78.3095 63.3163 78.0916 62.9894 77.9075C61.9676 77.3516 60.3373 77.3891 59.3455 77.9789C59.0412 78.163 58.8233 78.3884 58.7144 78.6476Z" fill="black"/>
<path d="M63.4541 80.1891L63.1724 80.1953L63.1983 81.3747L63.48 81.3685L63.4541 80.1891Z" fill="black"/>
<path d="M58.9816 80.1347L58.7 80.1409L58.7259 81.3202L59.0076 81.314L58.9816 80.1347Z" fill="black"/>
<path d="M60.4462 79.29L60.0367 79.0609L61.1262 78.3922L61.3027 78.2908L61.5056 78.1818C61.3816 78.1818 61.2727 78.1894 61.2276 78.1894L60.8331 78.1781L60.8745 77.9264L61.9789 77.979L62.3057 78.1631L60.4462 79.29Z" fill="black"/>
<path d="M30.0964 66.4422C29.98 66.3408 29.8372 66.2506 29.6869 66.1717C28.1392 65.3303 25.6786 65.3904 24.176 66.2882C24.0257 66.3784 23.8905 66.4798 23.7815 66.5737L23.0527 66.8141L23.0753 67.896C23.0903 68.7 23.8341 69.4738 25.3067 69.8795C26.4299 70.1913 27.617 70.1613 28.7177 69.8157C30.1678 69.3499 30.874 68.5309 30.859 67.727L30.8365 66.6451L30.0964 66.4422Z" fill="#FFBE9C"/>
<path d="M24.3037 69.6505C23.451 69.2222 22.9513 68.5911 22.9363 67.9111L22.9062 66.679H23.0302L23.7102 66.4536C23.8454 66.3521 23.9806 66.2545 24.1046 66.1681C25.6411 65.2439 28.1693 65.1763 29.7508 66.0328C29.8861 66.1004 30.0251 66.1944 30.1603 66.3033L30.8553 66.5062H30.9792L31.0093 67.7383C31.0243 68.67 30.1903 69.4852 28.7591 69.9585C27.6283 70.3304 26.4225 70.3529 25.2654 70.0224C24.901 69.9284 24.5892 69.7932 24.3037 69.6505ZM23.1842 66.9269L23.2143 67.9074C23.2293 68.7113 24.0408 69.3912 25.3443 69.7556C26.4337 70.0524 27.5983 70.0299 28.6689 69.688C29.9687 69.271 30.7313 68.546 30.72 67.7421L30.69 66.7616L30.0138 66.5663L29.9988 66.5588C29.8635 66.4498 29.7396 66.3672 29.6043 66.2995C28.1054 65.4844 25.6937 65.5257 24.2361 66.4273C24.1084 66.5099 23.9844 66.5926 23.8492 66.694L23.8229 66.7015L23.1842 66.9269Z" fill="black"/>
<path d="M29.6533 64.9847C31.201 65.8262 31.2198 67.2425 29.7284 68.1666C28.2182 69.0832 25.7651 69.1283 24.2174 68.283C22.6697 67.4416 22.6509 66.0253 24.1423 65.1012C25.6449 64.1996 28.1093 64.1432 29.6533 64.9847Z" fill="white"/>
<path d="M24.2662 68.4784C24.2324 68.4633 24.1835 68.437 24.1497 68.4183C23.3646 67.9787 22.9138 67.3777 22.8988 66.739C22.8913 66.0854 23.3045 65.4768 24.0671 64.9997C25.6036 64.0756 28.1318 64.008 29.7133 64.8645C30.4984 65.304 30.9492 65.9051 30.9643 66.5437C30.9718 67.1974 30.5585 67.8059 29.7959 68.283C28.3121 69.1921 25.8552 69.2785 24.2662 68.4784ZM29.4804 65.0411C27.974 64.2822 25.6524 64.3498 24.2286 65.2251C23.5412 65.6346 23.188 66.168 23.1843 66.7128C23.1993 67.265 23.59 67.7759 24.285 68.1478C25.7839 68.963 28.1956 68.9216 29.6532 68.0201C30.3407 67.6106 30.6938 67.0771 30.6975 66.5324C30.6825 65.9802 30.2918 65.4656 29.5968 65.0974C29.5443 65.0749 29.5142 65.0598 29.4804 65.0411Z" fill="black"/>
<path d="M28.8079 65.4994C29.8635 66.0704 29.8936 67.0509 28.8605 67.6857C27.8274 68.3206 26.137 68.3469 25.0813 67.7759C24.0257 67.2049 23.9957 66.2244 25.0288 65.5895C26.0618 64.9547 27.7373 64.9209 28.8079 65.4994Z" fill="#FFBE9C"/>
<path d="M25.0813 67.9449C25.0475 67.9299 25.0325 67.9186 24.9987 67.9036C24.439 67.5993 24.1309 67.1711 24.1159 66.7015C24.1009 66.2319 24.4051 65.7961 24.9499 65.4656C26.0167 64.8082 27.7748 64.7706 28.8718 65.3829C29.4315 65.6872 29.7396 66.1155 29.7546 66.585C29.7696 67.0546 29.4653 67.4904 28.9206 67.821C27.8763 68.4295 26.1858 68.5009 25.0813 67.9449ZM28.6576 65.5933C27.6358 65.0786 26.0618 65.1237 25.0964 65.7097C24.6418 65.984 24.3976 66.3446 24.4051 66.7052C24.4127 67.0659 24.6794 67.4115 25.1414 67.6632C26.1632 68.2192 27.7936 68.1816 28.7854 67.5918C29.2399 67.3176 29.4841 66.9569 29.4766 66.5963C29.4691 66.2357 29.2024 65.8901 28.744 65.6384C28.7065 65.6158 28.6727 65.6008 28.6576 65.5933Z" fill="black"/>
<path d="M29.5592 66.8855C29.4503 66.6 29.2099 66.3333 28.8154 66.1117C27.7598 65.5407 26.0693 65.567 25.0363 66.2018C24.6493 66.4272 24.4239 66.7127 24.3225 66.9945C24.4315 67.28 24.6719 67.5467 25.0663 67.7683C26.1219 68.3393 27.8124 68.313 28.8455 67.6782C29.2287 67.4528 29.4728 67.1785 29.5592 66.8855Z" fill="#FFBE9C"/>
<path d="M25.0813 67.9449C25.0475 67.9298 25.0325 67.9186 24.9987 67.9036C24.5892 67.6744 24.315 67.3889 24.1873 67.0546L24.1722 67.0057L24.1985 66.9569C24.3 66.6301 24.578 66.3295 24.9724 66.0891C26.0393 65.4317 27.7974 65.3941 28.8943 66.0065C29.3038 66.2356 29.578 66.5211 29.7058 66.8555L29.7208 66.9043L29.6945 66.9531C29.5931 67.2799 29.3151 67.5805 28.9206 67.8209C27.8763 68.4295 26.1858 68.5009 25.0813 67.9449ZM24.4653 67.0057C24.5742 67.2499 24.7996 67.4678 25.1264 67.6519C26.1482 68.2078 27.7786 68.1703 28.7704 67.5805C29.0972 67.3889 29.3 67.156 29.4015 66.9118C29.2925 66.6676 29.0671 66.4497 28.7403 66.2657C27.7185 65.7097 26.0881 65.7472 25.0964 66.337C24.7921 66.5211 24.5742 66.7465 24.4653 67.0057Z" fill="black"/>
<path d="M29.2031 68.5442L28.9214 68.5504L28.9473 69.7298L29.229 69.7236L29.2031 68.5442Z" fill="black"/>
<path d="M24.7325 68.4881L24.4508 68.4943L24.4768 69.6736L24.7584 69.6674L24.7325 68.4881Z" fill="black"/>
<path d="M26.1971 67.6444L25.7876 67.4153L26.877 66.7466L27.0536 66.6452L27.2564 66.5362C27.1325 66.5362 27.0235 66.5437 26.9784 66.5437L26.584 66.5325L26.6253 66.2808L27.7298 66.3334L28.0566 66.5174L26.1971 67.6444Z" fill="black"/>
<path d="M68.275 70.6384C68.1585 70.537 68.0158 70.4468 67.8655 70.3679C66.3178 69.5264 63.8535 69.5865 62.3546 70.4844C62.2043 70.5745 62.0691 70.676 61.9601 70.7699L61.2313 71.0103L61.2539 72.0922C61.2689 72.8961 62.0127 73.67 63.4853 74.0757C64.6085 74.3875 65.7956 74.3575 66.8963 74.0118C68.3464 73.546 69.0526 72.7271 69.0376 71.9232L69.0151 70.8412L68.275 70.6384Z" fill="#FFBE9C"/>
<path d="M62.4861 73.8466C61.6333 73.4184 61.1337 72.7873 61.1187 72.1073L61.0886 70.8751H61.2126L61.8925 70.6497C62.0278 70.5483 62.163 70.4506 62.287 70.3642C63.8234 69.4401 66.3516 69.3725 67.9332 70.229C68.0684 70.2966 68.2074 70.3905 68.3427 70.4995L69.0376 70.7023H69.1616L69.1917 71.9345C69.2067 72.8662 68.3727 73.6813 66.9414 74.1547C65.8107 74.5266 64.6048 74.5491 63.4478 74.2185C63.0796 74.1246 62.7716 73.9894 62.4861 73.8466ZM61.3629 71.1231L61.3929 72.1036C61.4079 72.9075 62.2194 73.5874 63.5229 73.9518C64.6123 74.2486 65.7769 74.226 66.8475 73.8842C68.1473 73.471 68.9099 72.7422 68.8986 71.9383L68.8686 70.9578L68.1924 70.7624L68.1774 70.7549C68.0421 70.646 67.9182 70.5633 67.7829 70.4957C66.284 69.6805 63.8723 69.7219 62.4147 70.6234C62.287 70.7061 62.163 70.7887 62.0278 70.8902L62.0015 70.8977L61.3629 71.1231Z" fill="black"/>
<path d="M67.8355 69.1809C69.3832 70.0224 69.402 71.4386 67.9106 72.3628C66.4005 73.2794 63.9474 73.3245 62.3997 72.4792C60.8519 71.6377 60.8332 70.2215 62.3245 69.2974C63.8272 68.3995 66.2878 68.3394 67.8355 69.1809Z" fill="white"/>
<path d="M62.4486 72.6745C62.4148 72.6595 62.3659 72.6332 62.3321 72.6144C61.547 72.1749 61.0962 71.5738 61.0812 70.9352C61.0736 70.2816 61.4869 69.673 62.2495 69.1959C63.7859 68.2718 66.3141 68.2041 67.8957 69.0607C68.6808 69.5002 69.1316 70.1012 69.1466 70.7399C69.1541 71.3935 68.7409 72.0021 67.9783 72.4792C66.4907 73.3883 64.0376 73.4747 62.4486 72.6745ZM67.659 69.2372C66.1526 68.4784 63.831 68.546 62.4072 69.4213C61.7198 69.8308 61.3667 70.3642 61.3629 70.9089C61.3779 71.4611 61.7686 71.9758 62.4636 72.3439C63.9625 73.1591 66.3742 73.1178 67.8318 72.2162C68.5193 71.8067 68.8724 71.2733 68.8762 70.7286C68.8611 70.1764 68.4704 69.6655 67.7755 69.2936C67.7266 69.271 67.6928 69.256 67.659 69.2372Z" fill="black"/>
<path d="M66.9903 69.6956C68.0459 70.2666 68.076 71.247 67.0429 71.8819C66.0098 72.5168 64.3193 72.5431 63.2637 71.9721C62.2081 71.4011 62.1781 70.4206 63.2111 69.7857C64.2442 69.1546 65.9197 69.117 66.9903 69.6956Z" fill="#FFBE9C"/>
<path d="M63.2637 72.1411C63.2299 72.1261 63.2149 72.1148 63.1811 72.0998C62.6213 71.7955 62.3133 71.3672 62.2983 70.8977C62.2832 70.4281 62.5875 69.9923 63.1322 69.6617C64.1991 69.0043 65.9572 68.9668 67.0541 69.5791C67.6139 69.8834 67.9219 70.3116 67.9369 70.7812C67.952 71.2508 67.6477 71.6866 67.103 72.0171C66.0586 72.6257 64.3682 72.6971 63.2637 72.1411ZM66.8363 69.7895C65.8145 69.2748 64.2404 69.3199 63.275 69.9059C62.8204 70.1801 62.5763 70.5408 62.5838 70.9014C62.5913 71.2621 62.858 71.6077 63.3163 71.8594C64.3381 72.4153 65.9685 72.3778 66.9602 71.788C67.4148 71.5137 67.659 71.1531 67.6514 70.7925C67.6439 70.4318 67.3772 70.0862 66.9189 69.8345C66.8889 69.8158 66.855 69.797 66.8363 69.7895Z" fill="black"/>
<path d="M67.7378 71.0817C67.6289 70.7962 67.3885 70.5295 66.994 70.3078C65.9384 69.7368 64.2479 69.7631 63.2149 70.398C62.8279 70.6234 62.6025 70.9089 62.5011 71.1906C62.61 71.4762 62.8505 71.7429 63.2449 71.9645C64.3005 72.5355 65.991 72.5092 67.0241 71.8744C67.411 71.649 67.6552 71.3747 67.7378 71.0817Z" fill="#EA824A"/>
<path d="M63.2637 72.141C63.2299 72.126 63.2149 72.1147 63.1811 72.0997C62.7716 71.8706 62.4974 71.5851 62.3696 71.2507L62.3546 71.2019L62.3809 71.153C62.4823 70.8262 62.7603 70.5257 63.1548 70.2853C64.2217 69.6279 65.9798 69.5903 67.0767 70.2026C67.4862 70.4318 67.7604 70.7173 67.8881 71.0516L67.9032 71.1005L67.8769 71.1493C67.7754 71.4761 67.4974 71.7766 67.103 72.0171C66.0586 72.6256 64.3682 72.697 63.2637 72.141ZM62.6439 71.2019C62.7528 71.4461 62.9782 71.6639 63.305 71.848C64.3268 72.404 65.9572 72.3664 66.949 71.7766C67.2758 71.5851 67.4787 71.3521 67.5801 71.108C67.4711 70.8638 67.2457 70.6459 66.9189 70.4618C65.8971 69.9058 64.2667 69.9434 63.275 70.5332C62.9745 70.7173 62.7566 70.9427 62.6439 71.2019Z" fill="black"/>
<path d="M67.3856 72.7411L67.1039 72.7473L67.1298 73.9267L67.4115 73.9205L67.3856 72.7411Z" fill="black"/>
<path d="M62.9166 72.683L62.6349 72.6892L62.6608 73.8685L62.9425 73.8623L62.9166 72.683Z" fill="black"/>
<path d="M64.3758 71.8443L63.9663 71.6151L65.0557 70.9464L65.2323 70.845L65.4351 70.736C65.3112 70.736 65.2022 70.7436 65.1572 70.7436L64.7627 70.7323L64.804 70.4806L65.9085 70.5332L66.2353 70.7173L64.3758 71.8443Z" fill="black"/>
<path d="M67.3809 67.9863C67.2645 67.8849 67.1217 67.7947 66.9715 67.7158C65.4237 66.8743 62.9594 66.9344 61.4605 67.8323C61.3102 67.9224 61.175 68.0239 61.0661 68.1178L60.3373 68.3582L60.3598 69.4401C60.3748 70.244 61.1187 71.0179 62.5913 71.4236C63.7145 71.7354 64.9016 71.7054 66.0023 71.3597C67.4523 70.8939 68.1586 70.075 68.1435 69.2711L68.121 68.1891L67.3809 67.9863Z" fill="#FFBE9C"/>
<path d="M61.592 71.1945C60.7393 70.7663 60.2397 70.1352 60.2246 69.4552L60.1946 68.223H60.3185L60.9985 67.9976C61.1337 67.8962 61.269 67.7985 61.3929 67.7121C62.9294 66.788 65.4576 66.7204 67.0392 67.5769C67.1744 67.6445 67.3134 67.7384 67.4486 67.8474L68.1436 68.0502H68.2676L68.2976 69.2824C68.3126 70.214 67.4787 71.0292 66.0474 71.5026C64.9167 71.8745 63.7108 71.897 62.5537 71.5664C62.1856 71.4725 61.8738 71.3373 61.592 71.1945ZM60.4688 68.4672L60.4989 69.4477C60.5139 70.2516 61.3253 70.9316 62.6289 71.2959C63.7183 71.5927 64.8828 71.5702 65.9535 71.2283C67.2533 70.8151 68.0159 70.0863 68.0046 69.2824L67.9745 68.3019L67.2984 68.1066L67.2833 68.0991C67.1481 67.9901 67.0241 67.9075 66.8889 67.8399C65.39 67.0247 62.9782 67.066 61.5207 67.9676C61.3929 68.0502 61.269 68.1329 61.1337 68.2343L61.1074 68.2418L60.4688 68.4672Z" fill="black"/>
<path d="M66.9415 66.525C68.4892 67.3665 68.508 68.7827 67.0166 69.7069C65.5064 70.6235 63.0534 70.6686 61.5056 69.8233C59.9579 68.9819 59.9391 67.5656 61.4305 66.6415C62.9294 65.7436 65.3937 65.6835 66.9415 66.525Z" fill="white"/>
<path d="M61.5507 70.0186C61.5169 70.0036 61.4681 69.9773 61.4343 69.9585C60.6492 69.519 60.1984 68.918 60.1833 68.2793C60.1758 67.6257 60.589 67.0171 61.3516 66.54C62.8881 65.6159 65.4163 65.5483 66.9978 66.4048C67.783 66.8443 68.2338 67.4454 68.2488 68.084C68.2563 68.7376 67.8431 69.3462 67.0805 69.8233C65.5966 70.7362 63.1398 70.8188 61.5507 70.0186ZM66.7649 66.5851C65.2585 65.8263 62.9369 65.8939 61.5132 66.7692C60.8257 67.1786 60.4726 67.7121 60.4688 68.2568C60.4839 68.809 60.8745 69.3199 61.5695 69.6918C63.0684 70.507 65.4802 70.4657 66.9377 69.5641C67.6252 69.1546 67.9783 68.6212 67.9821 68.0765C67.967 67.5243 67.5764 67.0134 66.8814 66.6414C66.8326 66.6189 66.7987 66.6001 66.7649 66.5851Z" fill="black"/>
<path d="M66.0925 67.0435C67.1481 67.6145 67.1781 68.595 66.1451 69.2298C65.112 69.8647 63.4215 69.891 62.3659 69.32C61.3103 68.749 61.2802 67.7685 62.3133 67.1336C63.3464 66.4988 65.0218 66.4612 66.0925 67.0435Z" fill="#FFBE9C"/>
<path d="M62.3659 69.4852C62.3321 69.4702 62.3171 69.4589 62.2832 69.4439C61.7235 69.1396 61.4155 68.7113 61.4004 68.2418C61.3854 67.7722 61.6897 67.3364 62.2344 67.0058C63.3013 66.3484 65.0594 66.3109 66.1563 66.9232C66.7161 67.2275 67.0241 67.6557 67.0391 68.1253C67.0542 68.5949 66.7499 69.0307 66.2052 69.3612C65.1608 69.9736 63.4703 70.0412 62.3659 69.4852ZM65.9422 67.1336C64.9204 66.6189 63.3464 66.664 62.3809 67.25C61.9264 67.5243 61.6822 67.8849 61.6897 68.2455C61.6972 68.6062 61.9639 68.9518 62.426 69.2035C63.4478 69.7594 65.0782 69.7219 66.0699 69.1283C66.5245 68.8541 66.7686 68.4935 66.7611 68.1328C66.7536 67.7722 66.4869 67.4266 66.0286 67.1749C65.991 67.1599 65.9572 67.1448 65.9422 67.1336Z" fill="black"/>
<path d="M66.8438 68.4258C66.7348 68.1403 66.4944 67.8736 66.1 67.652C65.0444 67.0809 63.3539 67.1072 62.3208 67.7421C61.9339 67.9675 61.7085 68.253 61.6071 68.5348C61.716 68.8203 61.9564 69.087 62.3509 69.3086C63.4065 69.8796 65.097 69.8533 66.13 69.2185C66.5132 68.9968 66.7574 68.7188 66.8438 68.4258Z" fill="#EA824A"/>
<path d="M62.3659 69.4852C62.3321 69.4701 62.3171 69.4589 62.2832 69.4438C61.8738 69.2147 61.5995 68.9292 61.4718 68.5948L61.4568 68.546L61.4831 68.4972C61.5845 68.1703 61.8625 67.8698 62.2569 67.6294C63.3238 66.972 65.0819 66.9344 66.1789 67.5467C66.5883 67.7759 66.8626 68.0614 66.9903 68.3957L67.0053 68.4446L66.979 68.4934C66.8776 68.8202 66.5996 69.1208 66.2052 69.3612C65.1608 69.9735 63.4703 70.0411 62.3659 69.4852ZM61.7498 68.546C61.8587 68.7902 62.0841 69.0081 62.411 69.1921C63.4328 69.7481 65.0631 69.7106 66.0549 69.1208C66.3817 68.9292 66.5846 68.6963 66.686 68.4521C66.5771 68.2079 66.3517 67.99 66.0248 67.8059C65.003 67.25 63.3727 67.2875 62.3809 67.8773C62.0766 68.0614 61.8587 68.2868 61.7498 68.546Z" fill="black"/>
<path d="M66.4892 70.0871L66.2075 70.0933L66.2335 71.2726L66.5152 71.2664L66.4892 70.0871Z" fill="black"/>
<path d="M62.0224 70.0308L61.7407 70.037L61.7667 71.2163L62.0484 71.2101L62.0224 70.0308Z" fill="black"/>
<path d="M63.4816 69.1885L63.0721 68.9593L64.1616 68.2907L64.3381 68.1892L64.541 68.0803C64.417 68.0803 64.3081 68.0878 64.263 68.0878L63.8685 68.0765L63.9099 67.8248L65.0143 67.8774L65.3411 68.0615L63.4816 69.1885Z" fill="black"/>
<path d="M25.7688 75.0749C25.6523 74.9735 25.5096 74.8833 25.3593 74.8044C23.8116 73.963 21.351 74.0231 19.8483 74.9209C19.6981 75.011 19.5628 75.1125 19.4539 75.2064L18.7251 75.4468L18.7476 76.5287C18.7627 77.3326 19.5065 78.1065 20.9791 78.5122C22.1023 78.824 23.2894 78.794 24.3901 78.4484C25.8401 77.9825 26.5464 77.1636 26.5314 76.3597L26.5088 75.2778L25.7688 75.0749Z" fill="#FFBE9C"/>
<path d="M19.9799 78.2831C19.1271 77.8549 18.6275 77.2238 18.6125 76.5438L18.5824 75.3117H18.7064L19.3863 75.0863C19.5216 74.9848 19.6568 74.8872 19.7808 74.8008C21.3172 73.8766 23.8454 73.809 25.427 74.6655C25.5622 74.7331 25.7012 74.8271 25.8364 74.936L26.5314 75.1389H26.6554L26.6854 76.371C26.7005 77.3027 25.8665 78.1179 24.4352 78.5912C23.3045 78.9631 22.0986 78.9856 20.9416 78.6551C20.5734 78.5611 20.2616 78.4259 19.9799 78.2831ZM18.8566 75.5596L18.8867 76.5401C18.9017 77.344 19.7131 78.0239 21.0167 78.3883C22.1061 78.6851 23.2707 78.6626 24.3413 78.3207C25.6411 77.9075 26.4037 77.1787 26.3924 76.3748L26.3624 75.3943L25.6862 75.199L25.6711 75.1914C25.5359 75.0825 25.4119 74.9999 25.2767 74.9322C23.7778 74.1171 21.3661 74.1584 19.9085 75.06C19.7808 75.1426 19.6568 75.2253 19.5216 75.3267L19.4953 75.3342L18.8566 75.5596Z" fill="black"/>
<path d="M25.3293 73.6174C26.877 74.4589 26.8958 75.8752 25.4044 76.7993C23.8943 77.7159 21.4412 77.761 19.8934 76.9157C18.3457 76.0743 18.3269 74.658 19.8183 73.7339C21.3172 72.836 23.7816 72.7759 25.3293 73.6174Z" fill="white"/>
<path d="M19.9386 77.1111C19.9047 77.096 19.8559 77.0697 19.8221 77.0509C19.037 76.6114 18.5862 76.0104 18.5711 75.3717C18.5636 74.7181 18.9769 74.1095 19.7395 73.6324C21.2759 72.7083 23.8041 72.6407 25.3857 73.4972C26.1708 73.9367 26.6216 74.5378 26.6366 75.1764C26.6441 75.83 26.2309 76.4386 25.4683 76.9157C23.9844 77.8248 21.5276 77.9112 19.9386 77.1111ZM25.1528 73.6737C23.6463 72.9149 21.3248 72.9825 19.901 73.8578C19.2135 74.2673 18.8604 74.8007 18.8566 75.3454C18.8717 75.8977 19.2624 76.4123 19.9573 76.7805C21.4562 77.5957 23.868 77.5543 25.3256 76.6527C26.013 76.2433 26.3661 75.7098 26.3699 75.1651C26.3549 74.6129 25.9642 74.102 25.2692 73.7301C25.2204 73.7076 25.1866 73.6925 25.1528 73.6737Z" fill="black"/>
<path d="M24.4803 74.1321C25.5359 74.7031 25.5659 75.6836 24.5329 76.3184C23.4998 76.9533 21.8093 76.9796 20.7537 76.4086C19.6981 75.8376 19.668 74.8571 20.7011 74.2222C21.7342 73.5911 23.4096 73.5536 24.4803 74.1321Z" fill="#FFBE9C"/>
<path d="M20.7537 76.5776C20.7199 76.5626 20.7049 76.5513 20.6711 76.5363C20.1113 76.232 19.8033 75.8038 19.7883 75.3342C19.7732 74.8646 20.0775 74.4288 20.6222 74.0983C21.6891 73.4408 23.4472 73.4033 24.5441 74.0156C25.1039 74.3199 25.4119 74.7482 25.4269 75.2177C25.442 75.6873 25.1377 76.1231 24.593 76.4537C23.5524 77.0622 21.8582 77.1336 20.7537 76.5776ZM24.33 74.226C23.3082 73.7113 21.7342 73.7564 20.7687 74.3424C20.3142 74.6167 20.07 74.9773 20.0775 75.3379C20.085 75.6986 20.3517 76.0442 20.8101 76.2959C21.8319 76.8519 23.4622 76.8143 24.454 76.2245C24.9085 75.9503 25.1527 75.5896 25.1452 75.229C25.1377 74.8684 24.871 74.5228 24.4127 74.2711C24.3788 74.2523 24.345 74.2335 24.33 74.226Z" fill="black"/>
<path d="M25.2316 75.5182C25.1227 75.2327 24.8822 74.966 24.4878 74.7444C23.4322 74.1734 21.7417 74.1997 20.7086 74.8345C20.3217 75.0599 20.0963 75.3454 19.9949 75.6272C20.1038 75.9127 20.3442 76.1794 20.7387 76.401C21.7943 76.972 23.4848 76.9457 24.5179 76.3109C24.901 76.0855 25.1452 75.8112 25.2316 75.5182Z" fill="#EA824A"/>
<path d="M20.7537 76.5776C20.7199 76.5625 20.7049 76.5513 20.6711 76.5362C20.2616 76.3071 19.9874 76.0216 19.8596 75.6872L19.8446 75.6384L19.8709 75.5896C19.9723 75.2627 20.2503 74.9622 20.6448 74.7218C21.7116 74.0644 23.4697 74.0268 24.5667 74.6391C24.9762 74.8683 25.2504 75.1538 25.3781 75.4881L25.3931 75.537L25.3668 75.5858C25.2654 75.9126 24.9874 76.2132 24.593 76.4536C23.5524 77.0622 21.8582 77.1335 20.7537 76.5776ZM20.1376 75.6384C20.2466 75.8826 20.472 76.1005 20.7988 76.2845C21.8206 76.8405 23.451 76.803 24.4427 76.2132C24.7695 76.0216 24.9724 75.7887 25.0738 75.5445C24.9649 75.3003 24.7395 75.0824 24.4127 74.8984C23.3909 74.3424 21.7605 74.3799 20.7687 74.9697C20.4644 75.1538 20.2466 75.3792 20.1376 75.6384Z" fill="black"/>
<path d="M24.8775 77.1779L24.5958 77.1841L24.6218 78.3634L24.9035 78.3572L24.8775 77.1779Z" fill="black"/>
<path d="M20.4086 77.1211L20.127 77.1273L20.1529 78.3067L20.4346 78.3005L20.4086 77.1211Z" fill="black"/>
<path d="M21.8694 76.2771L21.46 76.048L22.5494 75.3793L22.7259 75.2778L22.9288 75.1689C22.8048 75.1689 22.6959 75.1764 22.6508 75.1764L22.2564 75.1651L22.2977 74.9135L23.4021 74.966L23.729 75.1501L21.8694 76.2771Z" fill="black"/>
<path d="M24.8709 72.4228C24.7545 72.3214 24.6117 72.2312 24.4615 72.1523C22.9137 71.3108 20.4532 71.371 18.9505 72.2688C18.8002 72.359 18.665 72.4604 18.5561 72.5543L17.8273 72.7947L17.8498 73.8766C17.8648 74.6806 18.6086 75.4544 20.0812 75.8601C21.2045 76.1719 22.3916 76.1419 23.4923 75.7963C24.9423 75.3305 25.6486 74.5115 25.6335 73.7076L25.611 72.6257L24.8709 72.4228Z" fill="#FFBE9C"/>
<path d="M19.082 75.631C18.2293 75.2028 17.7296 74.5717 17.7146 73.8917L17.6846 72.6596H17.8085L18.4885 72.4342C18.6237 72.3327 18.759 72.2351 18.8829 72.1487C20.4194 71.2245 22.9476 71.1569 24.5291 72.0134C24.6644 72.081 24.8034 72.175 24.9386 72.2839L25.6336 72.4868H25.7576L25.7876 73.7189C25.8026 74.6506 24.9687 75.4657 23.5374 75.9391C22.4066 76.311 21.2008 76.3335 20.0437 76.0029C19.6756 75.909 19.3675 75.7738 19.082 75.631ZM17.9588 72.9037L17.9889 73.8842C18.0039 74.6881 18.8153 75.3681 20.1189 75.7325C21.2083 76.0292 22.3728 76.0067 23.4435 75.6649C24.7433 75.2516 25.5059 74.5228 25.4946 73.7189L25.4645 72.7384L24.7883 72.5431L24.7733 72.5356C24.6381 72.4266 24.5141 72.344 24.3789 72.2764C22.88 71.4612 20.4682 71.5025 19.0107 72.4041C18.8829 72.4868 18.759 72.5694 18.6237 72.6708L18.5974 72.6783L17.9588 72.9037Z" fill="black"/>
<path d="M24.4316 70.9615C25.9793 71.803 25.9981 73.2193 24.5067 74.1434C22.9965 75.06 20.5435 75.1051 18.9957 74.2599C17.448 73.4184 17.4292 72.0021 18.9206 71.078C20.4233 70.1802 22.8838 70.1201 24.4316 70.9615Z" fill="white"/>
<path d="M19.0445 74.4552C19.0107 74.4401 18.9619 74.4138 18.9281 74.3951C18.1429 73.9555 17.6921 73.3545 17.6771 72.7159C17.6696 72.0622 18.0828 71.4536 18.8454 70.9765C20.3819 70.0524 22.9101 69.9848 24.4916 70.8413C25.2768 71.2808 25.7275 71.8819 25.7426 72.5205C25.7501 73.1742 25.3369 73.7827 24.5743 74.2598C23.0866 75.1727 20.6336 75.2553 19.0445 74.4552ZM24.255 71.0216C22.7485 70.2628 20.427 70.3304 19.0032 71.2057C18.3157 71.6152 17.9626 72.1486 17.9588 72.6933C17.9739 73.2455 18.3646 73.7602 19.0595 74.1283C20.5584 74.9435 22.9702 74.9022 24.4278 74.0006C25.1152 73.5912 25.4683 73.0577 25.4721 72.513C25.4571 71.9608 25.0664 71.4499 24.3714 71.078C24.3226 71.0554 24.2888 71.0366 24.255 71.0216Z" fill="black"/>
<path d="M23.5825 71.48C24.6381 72.051 24.6681 73.0315 23.635 73.6664C22.602 74.3012 20.9115 74.3275 19.8559 73.7565C18.8003 73.1855 18.7702 72.205 19.8033 71.5701C20.8364 70.9353 22.5118 70.8977 23.5825 71.48Z" fill="#FFBE9C"/>
<path d="M19.8597 73.9217C19.8259 73.9067 19.8108 73.8955 19.777 73.8804C19.2173 73.5761 18.9092 73.1479 18.8942 72.6783C18.8792 72.2087 19.1835 71.773 19.7282 71.4424C20.7951 70.785 22.5532 70.7474 23.6501 71.3597C24.2098 71.664 24.5179 72.0923 24.5329 72.5618C24.5479 73.0314 24.2436 73.4672 23.6989 73.7978C22.6546 74.4101 20.9604 74.4777 19.8597 73.9217ZM23.4322 71.5701C22.4104 71.0554 20.8364 71.1005 19.8709 71.6866C19.4164 71.9608 19.1722 72.3214 19.1797 72.6821C19.1872 73.0427 19.4539 73.3883 19.9123 73.64C20.9341 74.196 22.5644 74.1584 23.5562 73.5686C24.0107 73.2944 24.2549 72.9338 24.2474 72.5731C24.2399 72.2125 23.9732 71.8669 23.5149 71.6152C23.4848 71.5964 23.451 71.5776 23.4322 71.5701Z" fill="black"/>
<path d="M24.3338 72.8623C24.2248 72.5768 23.9844 72.3101 23.59 72.0885C22.5344 71.5175 20.8439 71.5438 19.8108 72.1786C19.4239 72.404 19.1985 72.6895 19.097 72.9713C19.206 73.2568 19.4464 73.5235 19.8409 73.7451C20.8965 74.3162 22.5869 74.2899 23.62 73.655C24.007 73.4333 24.2511 73.1554 24.3338 72.8623Z" fill="#EA824A"/>
<path d="M19.8597 73.9217C19.8259 73.9067 19.8108 73.8954 19.777 73.8804C19.3675 73.6512 19.0933 73.3657 18.9656 73.0314L18.9506 72.9825L18.9769 72.9337C19.0783 72.6069 19.3563 72.3063 19.7507 72.0659C20.8176 71.4085 22.5757 71.3709 23.6726 71.9833C24.0821 72.2124 24.3563 72.4979 24.4841 72.8323L24.4991 72.8811L24.4728 72.9299C24.3714 73.2568 24.0934 73.5573 23.6989 73.7977C22.6546 74.41 20.9604 74.4777 19.8597 73.9217ZM19.2398 72.9825C19.3488 73.2267 19.5742 73.4446 19.901 73.6287C20.9228 74.1846 22.5532 74.1471 23.5449 73.5573C23.8717 73.3657 24.0746 73.1328 24.176 72.8886C24.0671 72.6444 23.8417 72.4265 23.5149 72.2425C22.4931 71.6865 20.8627 71.7241 19.8709 72.3138C19.5704 72.4979 19.3488 72.7233 19.2398 72.9825Z" fill="black"/>
<path d="M23.9814 74.5252L23.6997 74.5314L23.7257 75.7107L24.0073 75.7045L23.9814 74.5252Z" fill="black"/>
<path d="M19.5108 74.4651L19.2291 74.4713L19.2551 75.6507L19.5368 75.6445L19.5108 74.4651Z" fill="black"/>
<path d="M20.9716 73.625L20.5621 73.3959L21.6516 72.7272L21.8281 72.6257L22.031 72.5168C21.907 72.5168 21.7981 72.5243 21.753 72.5243L21.3585 72.513L21.3999 72.2614L22.5043 72.3139L22.8311 72.498L20.9716 73.625Z" fill="black"/>
<path d="M100.244 32.4073L86.2504 24.3305C85.9273 24.1427 85.6306 24.1089 85.4014 24.1991C85.3413 24.2216 85.2887 24.2554 85.2399 24.293L82.5126 25.8783L84.9356 27.8205V33.9513C84.9356 34.789 85.5291 35.8145 86.2542 36.2315L92.8583 40.0445L93.1438 40.5366L94.1431 46.6299C94.1543 46.7088 94.2445 46.7501 94.3121 46.7088L96.5285 45.409L96.3069 44.5299L96.4759 44.8192C96.7239 45.2437 97.1446 45.285 97.1446 44.883V44.6952L98.3467 46.0476L101.104 44.436C101.157 44.4135 101.206 44.3834 101.254 44.3496C101.446 44.1956 101.562 43.9213 101.562 43.5494V34.6913C101.559 33.8536 100.965 32.828 100.244 32.4073Z" fill="white"/>
<path d="M100.184 33.414L86.194 25.3373C85.8709 25.1494 85.5742 25.1156 85.345 25.2058C85.2849 25.2283 85.2323 25.2584 85.1835 25.2997L82.4562 26.885L84.8792 28.8272V34.958C84.8792 35.7957 85.4727 36.8213 86.1978 37.2382L92.8019 41.0512L93.0874 41.5433L101.506 35.6943C101.502 34.8603 100.909 33.8347 100.184 33.414Z" fill="#FFBE9C"/>
<path d="M94.252 46.8815C94.2144 46.8815 94.1769 46.874 94.1393 46.8552C94.0604 46.8177 94.0041 46.7463 93.989 46.6599L92.9935 40.5929L92.7456 40.1609L86.1753 36.3667C85.4051 35.9235 84.7815 34.8416 84.7815 33.9512V27.8918L82.2421 25.8557L85.1647 24.1615C85.206 24.1277 85.2737 24.0863 85.3488 24.0563C85.6305 23.9436 85.9799 23.9962 86.3293 24.199L100.319 32.2758C101.085 32.7191 101.713 33.801 101.713 34.6913V43.5494C101.713 43.9551 101.581 44.2819 101.345 44.4698C101.288 44.5149 101.228 44.5487 101.16 44.5787L98.3129 46.2467L97.2648 45.0708C97.2235 45.191 97.1408 45.2775 97.0206 45.3113C96.8967 45.3451 96.7614 45.3113 96.6337 45.2286L96.7013 45.4916L94.3872 46.8477C94.3459 46.8665 94.2971 46.8815 94.252 46.8815ZM82.7793 25.897L85.0858 27.7453V33.9475C85.0858 34.7251 85.6531 35.7093 86.3255 36.0963L92.9672 39.9318L93.2903 40.5103L95.8936 43.5231L96.9868 44.2932L98.6059 36.3179L101.405 34.6838C101.405 33.9062 100.837 32.9219 100.165 32.535L86.1753 24.462C85.9048 24.308 85.6493 24.2629 85.4577 24.3418C85.4127 24.3606 85.3713 24.3831 85.3338 24.4132L82.7793 25.897Z" fill="black"/>
<path d="M97.4414 34.0413L83.4518 25.9646C82.723 25.5438 82.1332 25.8857 82.1332 26.7234V35.5815C82.1332 36.423 82.723 37.4448 83.4518 37.8618L90.7058 42.0504C91.0927 42.2758 91.4646 42.6665 91.7426 43.1399L93.6735 46.4532C93.9215 46.8777 94.3422 46.919 94.3422 46.5171V44.7439C94.3422 44.4171 94.5714 44.2819 94.8569 44.4472L97.4414 45.9385C98.1702 46.3593 98.76 46.0174 98.76 45.1797V36.3253C98.76 35.4839 98.1702 34.4621 97.4414 34.0413Z" fill="white"/>
<path d="M94.1243 46.9529C93.9177 46.9529 93.6961 46.7951 93.542 46.5359L91.6111 43.2226C91.3519 42.7755 90.9913 42.3961 90.6307 42.1895L83.3766 38.0008C82.6065 37.5576 81.9829 36.4757 81.9829 35.5853V26.7272C81.9829 26.2652 82.1482 25.9158 82.445 25.743C82.7417 25.5702 83.1287 25.604 83.5306 25.8369L97.5203 33.9136C98.2867 34.3569 98.914 35.4388 98.914 36.3292V45.1873C98.914 45.6493 98.7487 45.9987 98.452 46.1715C98.1552 46.3443 97.7682 46.3105 97.37 46.0776L94.778 44.5825C94.6916 44.5336 94.6127 44.5186 94.5676 44.5449C94.5225 44.5712 94.4925 44.6463 94.4925 44.7477V46.5209C94.4925 46.7388 94.391 46.8928 94.222 46.9416C94.1919 46.9491 94.1581 46.9529 94.1243 46.9529ZM82.862 25.9383C82.7643 25.9383 82.6741 25.9609 82.5952 26.0059C82.3961 26.1224 82.2872 26.3779 82.2872 26.7272V35.5853C82.2872 36.3742 82.8432 37.3397 83.5269 37.7341L90.7809 41.9228C91.1942 42.1632 91.5811 42.5689 91.8741 43.0685L93.805 46.3819C93.9327 46.5998 94.0868 46.6636 94.1431 46.6486C94.1769 46.6411 94.1882 46.5772 94.1882 46.5246V44.7515C94.1882 44.5374 94.2708 44.3683 94.4136 44.2857C94.5563 44.203 94.7479 44.2143 94.932 44.3232L97.5166 45.8146C97.8208 45.9912 98.0951 46.0212 98.2942 45.9085C98.4933 45.7921 98.6022 45.5366 98.6022 45.1873V36.3254C98.6022 35.5365 98.0462 34.5711 97.3625 34.1766L83.3729 26.0999C83.1925 25.9909 83.016 25.9383 82.862 25.9383Z" fill="black"/>
<path d="M93.6435 36.9865L89.391 31.87C89.1281 31.5545 88.8275 31.4568 88.6359 31.5582C88.6322 31.5582 87.7719 32.0804 87.7719 32.0804C87.7531 32.0917 87.7456 32.1142 87.7569 32.133L88.234 33.0083V37.4373C88.234 37.9971 88.7524 38.6545 89.1806 38.6319L92.4377 38.4742L92.9373 38.7597L93.7976 38.2413L93.8163 38.23C94.0793 38.0459 94.0229 37.4449 93.6435 36.9865Z" fill="#FFBE9C"/>
<path d="M93.6435 37.5952L89.391 32.4787C89.1281 32.1631 88.8275 32.0654 88.6359 32.1669C88.6322 32.1669 87.7719 32.689 87.7719 32.689C87.7531 32.7003 87.7456 32.7228 87.7569 32.7416L88.234 33.6169V38.046C88.234 38.6057 92.2949 38.4818 92.2949 38.4818C92.2949 38.4818 94.023 38.0497 93.6435 37.5952Z" fill="white"/>
<path d="M92.9373 38.9363L92.3963 38.6282L89.1844 38.786C88.9853 38.7973 88.7674 38.6958 88.5721 38.508C88.2753 38.2225 88.08 37.8018 88.08 37.4374V33.0496L87.6217 32.2081C87.5728 32.118 87.6029 32.0053 87.693 31.9489C87.693 31.9489 88.5571 31.4268 88.5608 31.423C88.8388 31.2765 89.2182 31.4155 89.5112 31.7686L93.7637 36.8851C94.0267 37.2045 94.1694 37.6214 94.1244 37.9483C94.0981 38.1286 94.0229 38.2676 93.9027 38.3502L92.9373 38.9363ZM92.2724 38.3314L93.7487 37.4674C93.6999 37.3397 93.6285 37.2082 93.5233 37.0842L89.2708 31.9677C89.0529 31.7048 88.82 31.6334 88.7036 31.6935L87.9372 32.1593L88.3805 33.0121V37.4411C88.3805 37.7229 88.5383 38.0647 88.7787 38.2901C88.9139 38.4178 89.0604 38.4855 89.1656 38.4817L92.2724 38.3314Z" fill="black"/>
<path d="M87.5503 32.5162V37.8431C87.5503 38.4028 88.0687 39.0602 88.497 39.0377L92.7495 38.8311C93.1965 38.8086 93.1965 38.0685 92.7495 37.5313L88.4932 32.4148C88.0687 31.9001 87.5503 31.9565 87.5503 32.5162Z" fill="#FFBE9C"/>
<path d="M88.4744 39.1917C88.2828 39.1917 88.0762 39.094 87.8884 38.9137C87.5878 38.6282 87.3962 38.2074 87.3962 37.8431V32.5162C87.3962 32.2231 87.5202 32.0128 87.7306 31.9376C87.9973 31.84 88.3354 31.9865 88.6096 32.3171L92.8621 37.4336C93.1889 37.828 93.3204 38.354 93.1739 38.6883C93.095 38.8686 92.9448 38.9738 92.7532 38.9813L88.5007 39.1879C88.4932 39.1917 88.4857 39.1917 88.4744 39.1917ZM87.9034 32.2119C87.8771 32.2119 87.8545 32.2156 87.8358 32.2231C87.7193 32.2645 87.7005 32.426 87.7005 32.5162V37.8431C87.7005 38.1248 87.8583 38.4667 88.0987 38.6921C88.234 38.8198 88.3805 38.8874 88.4857 38.8836L92.7382 38.677C92.7832 38.6733 92.8509 38.662 92.8959 38.5643C92.9823 38.3652 92.9072 37.9595 92.6292 37.6252L88.3767 32.5086C88.2002 32.2983 88.0273 32.2119 87.9034 32.2119Z" fill="black"/>
</g>
<defs>
<clipPath id="clip0">
<rect x="8" y="24" width="112" height="74.4676" fill="white"/>
</clipPath>
</defs>
</svg>
