<svg width="128" height="128" viewBox="0 0 128 128" fill="none" xmlns="http://www.w3.org/2000/svg">
<path d="M95.5213 43.1354L34.9748 8.60611C34.2158 8.17367 33.5319 8.19573 33.0421 8.57964L30.0723 10.3579L32.2698 13.4865V60.4243C32.2698 62.3923 33.4789 64.6781 34.9748 65.5297L91.5101 97.7732L94.4225 101.917L97.2246 100.236C97.8335 99.931 98.2262 99.1588 98.2262 98.0424V48.2408C98.2262 46.2728 97.0128 43.987 95.5213 43.1354Z" fill="white"/>
<path d="M81.1933 40.6423L33.3598 13.9588L32.5567 12.1187L34.7939 10.7817C35.2837 10.3978 35.9721 10.3757 36.7267 10.8081L94.7888 43.868C95.6183 44.3401 96.3597 45.258 96.8583 46.317L96.9333 46.6215L93.3458 48.7705L81.1933 40.6423Z" fill="#FFBE9C"/>
<path d="M97.326 48.4349L94.0695 50.3721L94.3563 51.59L97.326 49.7632V48.4349Z" fill="#FFBE9C"/>
<path d="M32.8611 8.35026C33.4656 7.88251 34.2864 7.88251 35.116 8.35467L95.6624 42.8839C97.2333 43.7797 98.513 46.1802 98.513 48.2365V98.0337C98.513 99.2251 98.0894 100.116 97.3745 100.474L94.343 102.292L91.3159 97.9851L34.8336 65.7769C33.2626 64.8812 31.983 62.4807 31.983 60.4244V13.5749L29.7281 10.3669L30.2091 9.93883L32.8611 8.35026ZM32.5566 13.394V60.4244C32.5566 62.2953 33.7039 64.4752 35.116 65.2827L91.6513 97.5262L94.5019 101.533L95.1064 101.171L95.2212 100.28L97.4363 98.9162C97.7408 98.7309 97.9438 98.4043 97.9438 98.0513V98.0469V48.2409C97.9438 46.37 96.7965 44.1901 95.3844 43.3826L34.8292 8.85772C34.2026 8.50029 33.6289 8.48264 33.1832 8.82683L30.4827 10.4419L32.5566 13.394Z" fill="black"/>
<path d="M49.6646 85.5591L61.9407 78.5914C63.1322 77.9119 65.1267 77.9913 66.4902 78.7679L73.9565 83.0306L77.5043 84.6147V86.2386H77.4822C77.4028 86.6578 77.1071 87.0285 76.6261 87.3065L61.4995 95.9024C60.9567 96.2113 60.2463 96.3657 59.5005 96.3657C58.618 96.3657 57.6913 96.1495 56.95 95.7303L47.1185 90.1218C46.4037 89.7114 45.9845 89.173 45.9359 88.5597C45.9359 88.5067 45.9315 88.4582 45.9359 88.4273V87.1079L49.6646 85.5591Z" fill="black"/>
<path d="M76.4849 85.8063L61.3583 94.4022C60.2639 95.0244 58.3576 94.9494 57.0956 94.2257L47.2641 88.6172C46.0021 87.8979 45.8653 86.808 46.9597 86.1858L62.0863 77.5899C63.1807 76.9677 65.087 77.0471 66.349 77.7664L76.1805 83.3749C77.4381 84.0942 77.5749 85.1797 76.4849 85.8063Z" fill="white"/>
<path d="M48.6144 87.4433L52.7226 85.0075C54.0641 84.2132 55.7321 84.1999 57.0868 84.9722L67.386 90.8587L61.1641 94.3932C60.0697 95.0154 58.1635 94.9404 56.9014 94.2167L48.9233 89.8702C47.6613 89.1554 47.5245 88.0699 48.6144 87.4433Z" fill="#FFBE9C"/>
<path d="M59.5005 95.1079C60.2419 95.1079 60.9567 94.9535 61.4995 94.6446L76.6262 86.0487C77.1954 85.7266 77.5087 85.2588 77.5087 84.7426C77.5087 84.1424 77.0762 83.5467 76.3217 83.1187L66.4902 77.5102C65.1267 76.7335 63.1322 76.6585 61.9407 77.3337L46.8141 85.9296C46.2448 86.2561 45.9315 86.7194 45.9315 87.2357C45.9315 87.8358 46.364 88.4271 47.1185 88.8596L56.95 94.4681C57.6913 94.8961 58.618 95.1079 59.5005 95.1079ZM76.3393 85.5545L61.2126 94.1504C60.2021 94.7285 58.415 94.649 57.2324 93.9783L47.4009 88.3698C46.8317 88.0432 46.5008 87.6329 46.5008 87.2445C46.5008 86.8562 46.8229 86.5915 47.0921 86.437L62.2187 77.8411C63.2337 77.2631 65.0164 77.3425 66.199 78.0176L76.0304 83.6261C76.5997 83.9527 76.9306 84.3631 76.9306 84.7514C76.935 85.1353 76.6129 85.4 76.3393 85.5545Z" fill="black"/>
<path d="M30.0679 10.0138C30.6548 9.674 31.3873 9.72254 32.133 10.1462L92.6794 44.6754C94.2504 45.5712 95.53 47.9717 95.53 50.028V99.8251C95.53 100.937 95.0799 101.436 94.7049 101.652C94.4578 101.793 94.1665 101.864 93.8444 101.864C93.3325 101.864 92.7368 101.687 92.1235 101.334L31.8506 67.5684C30.2797 66.6727 29 64.2677 29 62.2114V12.4143C29 11.2802 29.3883 10.4065 30.0679 10.0138Z" fill="black"/>
<path d="M29.2868 56.4263V62.4628C29.2868 64.2941 30.5886 66.5225 32.1948 67.4359L92.3353 101.736C93.9415 102.649 95.2432 101.908 95.2432 100.077V94.04L29.2868 56.4263Z" fill="white"/>
<path d="M93.637 102.411C93.9679 102.411 94.2724 102.332 94.546 102.173C95.1814 101.802 95.53 101.056 95.53 100.072V93.8725L95.3844 93.7887L29 55.9323V62.463C29 64.3825 30.3679 66.7257 32.0536 67.6832L92.1941 101.983C92.6971 102.27 93.1869 102.411 93.637 102.411ZM94.9564 94.2035V100.072C94.9564 100.845 94.7093 101.418 94.2548 101.679C93.7959 101.948 93.1648 101.877 92.4765 101.48L32.336 67.1846C30.8136 66.3153 29.5736 64.1972 29.5736 62.4586V56.9163L94.9564 94.2035Z" fill="black"/>
<path d="M91.3071 88.0347L33.2229 54.9087C32.6978 54.6086 32.2698 53.8011 32.2698 53.1083V15.071C32.2698 14.3782 32.6978 14.0561 33.2229 14.3605L91.3071 47.4866C91.8322 47.7866 92.2603 48.5942 92.2603 49.2869V87.3243C92.2603 88.0171 91.8366 88.3348 91.3071 88.0347Z" fill="white"/>
<path d="M91.6866 88.436C91.8278 88.436 91.9602 88.4006 92.0794 88.33C92.3794 88.158 92.5471 87.7917 92.5471 87.3195V49.2822C92.5471 48.4835 92.0661 47.5833 91.4483 47.2347L33.3642 14.1087C33.042 13.9234 32.7155 13.9057 32.4507 14.0602C32.1507 14.2323 31.983 14.6029 31.983 15.0707V53.108C31.983 53.9067 32.464 54.8069 33.0818 55.1599L91.1659 88.2859C91.3424 88.383 91.5189 88.436 91.6866 88.436ZM32.8435 14.5323C32.9317 14.5323 33.0244 14.5764 33.0773 14.6073L91.1615 47.7334C91.5984 47.9849 91.969 48.6953 91.969 49.2866V87.324C91.969 87.5755 91.8984 87.7696 91.7837 87.8358C91.6734 87.8976 91.5234 87.8314 91.4439 87.7873L33.3642 54.6613C32.9273 54.4097 32.5567 53.6993 32.5567 53.108V15.0707C32.5567 14.8191 32.6273 14.625 32.742 14.5588C32.7729 14.5411 32.8082 14.5323 32.8435 14.5323Z" fill="black"/>
<path d="M96.7435 96.7851L95.9537 97.2396C95.8389 97.3058 95.7507 97.2352 95.7507 97.0851V94.6273C95.7507 94.4772 95.8433 94.3007 95.9537 94.2345L96.7435 93.78C96.8583 93.7138 96.9465 93.7844 96.9465 93.9345V96.3923C96.9465 96.5424 96.8538 96.7189 96.7435 96.7851Z" fill="#FFBE9C"/>
<path d="M96.2492 96.5555C96.1919 96.5555 96.1389 96.5423 96.086 96.5114C95.9712 96.4452 95.905 96.3128 95.905 96.1539V93.6961C95.905 93.4622 96.0374 93.2195 96.2183 93.1136L97.0082 92.6591C97.1273 92.5885 97.2553 92.5885 97.3612 92.6459C97.476 92.7121 97.5421 92.8444 97.5421 93.0033V95.4612C97.5421 95.695 97.4098 95.9377 97.2288 96.0436L96.439 96.4981C96.3816 96.5379 96.3154 96.5555 96.2492 96.5555ZM97.1053 93.1136L96.4434 93.4975C96.4081 93.5196 96.3507 93.6167 96.3507 93.7005V96.0525L97.0126 95.6686C97.0479 95.6465 97.1053 95.5494 97.1053 95.4656V93.1136Z" fill="black"/>
<path d="M98.1118 50.4766L95.1293 52.2985L95.3594 52.675L98.3419 50.8532L98.1118 50.4766Z" fill="black"/>
<path d="M35.424 8.8256L32.4415 10.6475L32.6715 11.024L35.654 9.20218L35.424 8.8256Z" fill="black"/>
<path d="M98.111 89.9357L95.1285 91.7576L95.3586 92.1341L98.3411 90.3123L98.111 89.9357Z" fill="black"/>
<path d="M84.9793 59.811L39.3875 33.4894C38.7388 33.1143 38.2093 32.1082 38.2093 31.2389V24.8096C38.2093 23.9403 38.7388 23.5432 39.3875 23.9182L84.9793 50.2399C85.628 50.615 86.1575 51.6211 86.1575 52.4904V58.9197C86.1575 59.789 85.6324 60.1861 84.9793 59.811Z" fill="white"/>
<path d="M88.6197 64.3428L53.1153 43.6296C52.4666 43.2545 51.9371 42.2484 51.9371 41.3791V34.9499C51.9371 34.0806 52.4666 33.6834 53.1153 34.0585L88.6197 54.7761C89.2684 55.1511 89.7979 56.1572 89.7979 57.0265V63.4558C89.7979 64.3207 89.2728 64.7223 88.6197 64.3428Z" fill="#FFBE9C"/>
<path d="M85.4471 60.12C85.2705 60.12 85.0852 60.0671 84.8955 59.9567L39.308 33.6351C38.602 33.2291 38.046 32.1745 38.046 31.239V24.8097C38.046 24.2934 38.2225 23.8919 38.5358 23.7154C38.805 23.5609 39.1359 23.583 39.4713 23.7772L85.0631 50.0988C85.7692 50.5092 86.3252 51.5594 86.3252 52.4949V58.9242C86.3252 59.4405 86.1487 59.842 85.8354 60.0185C85.7162 60.0847 85.5838 60.12 85.4471 60.12ZM38.9197 23.9448C38.8447 23.9448 38.7697 23.9625 38.6991 24.0022C38.4917 24.1213 38.3725 24.417 38.3725 24.8097V31.239C38.3725 32.0509 38.8623 32.9997 39.4669 33.3483L85.0587 59.6699C85.222 59.7626 85.4603 59.8508 85.6633 59.7317C85.8707 59.6126 85.9898 59.3169 85.9898 58.9242V52.4949C85.9898 51.683 85.5 50.7342 84.8955 50.3856L39.308 24.064C39.1977 24.0022 39.0609 23.9448 38.9197 23.9448Z" fill="black"/>
<path d="M48.0717 33.679C48.0717 35.5103 46.7876 36.2516 45.199 35.3382C43.6149 34.4247 42.3264 32.1963 42.3264 30.3651C42.3264 28.5338 43.6104 27.7925 45.199 28.7059C46.7876 29.6193 48.0717 31.8477 48.0717 33.679Z" fill="#EA824A"/>
<path d="M45.6006 35.4531C45.177 35.4531 44.7136 35.3119 44.2371 35.0383C42.6088 34.0984 41.285 31.8038 41.285 29.924C41.285 28.9753 41.6115 28.2648 42.2072 27.9206C42.8029 27.5765 43.584 27.6471 44.4047 28.1236C46.033 29.0635 47.3568 31.3581 47.3568 33.2379C47.3568 34.1867 47.0303 34.8971 46.4346 35.2413C46.1831 35.3825 45.9006 35.4531 45.6006 35.4531ZM43.0368 28.0354C42.7941 28.0354 42.5691 28.0927 42.3705 28.2075C41.8807 28.4899 41.6115 29.0988 41.6115 29.924C41.6115 31.6979 42.8603 33.8645 44.4003 34.7515C45.1108 35.1619 45.7727 35.2369 46.2669 34.9545C46.7567 34.6721 47.0259 34.0631 47.0259 33.2379C47.0259 31.464 45.7771 29.2974 44.2371 28.4105C43.809 28.1589 43.3986 28.0354 43.0368 28.0354Z" fill="black"/>
<path d="M51.7871 48.9691L39.8022 42.0501C39.1668 41.6838 38.6549 40.6998 38.6549 39.8525V37.9772C38.6549 37.1299 39.1712 36.7416 39.8022 37.1079L51.7871 44.0269C52.4225 44.3932 52.9344 45.3772 52.9344 46.2245V48.0999C52.9344 48.9471 52.4225 49.3354 51.7871 48.9691Z" fill="#EA824A"/>
<path d="M51.8003 47.9496C51.6282 47.9496 51.4473 47.8967 51.262 47.7908L39.2771 40.8717C38.5843 40.4745 38.046 39.4464 38.046 38.533V36.6576C38.046 36.1501 38.2225 35.7618 38.527 35.5853C38.7873 35.4353 39.1139 35.4573 39.4448 35.6471L51.4297 42.5661C52.1225 42.9633 52.6608 43.9914 52.6608 44.9049V46.7803C52.6608 47.2877 52.4843 47.676 52.1798 47.8525C52.0651 47.9143 51.9371 47.9496 51.8003 47.9496ZM51.4252 47.5039C51.5841 47.5966 51.8136 47.6805 52.0121 47.5657C52.2107 47.451 52.3254 47.1642 52.3254 46.7803V44.9049C52.3254 44.1106 51.8489 43.1928 51.2576 42.853L39.2771 35.9295C39.1183 35.8368 38.8888 35.753 38.6902 35.8677C38.4917 35.9824 38.3769 36.2692 38.3769 36.6532V38.5285C38.3769 39.3228 38.8535 40.2407 39.4448 40.5804L51.4252 47.5039Z" fill="black"/>
<path d="M68.6083 58.6813L56.6235 51.7622C55.9881 51.396 55.4762 50.4119 55.4762 49.5647V47.6893C55.4762 46.8421 55.9925 46.4538 56.6235 46.82L68.6083 53.7391C69.2438 54.1054 69.7556 55.0894 69.7556 55.9366V57.812C69.7601 58.6592 69.2438 59.0476 68.6083 58.6813Z" fill="#EA824A"/>
<path d="M68.626 57.662C68.4539 57.662 68.273 57.6091 68.0877 57.5032L56.0984 50.5841C55.4056 50.1869 54.8672 49.1588 54.8672 48.2454V46.37C54.8672 45.8625 55.0438 45.4742 55.3482 45.2977C55.6086 45.1477 55.9351 45.1697 56.2661 45.3595L68.2509 52.2786C68.9437 52.6757 69.4821 53.7039 69.4821 54.6173V56.4927C69.4821 57.0001 69.3056 57.3884 69.0011 57.565C68.8863 57.6311 68.7628 57.662 68.626 57.662ZM55.7277 45.5227C55.6571 45.5227 55.5821 45.5404 55.5159 45.5801C55.3173 45.6948 55.2026 45.9817 55.2026 46.3656V48.2409C55.2026 49.0352 55.6792 49.9531 56.2705 50.2928L68.2553 57.2119C68.4142 57.3046 68.6437 57.3884 68.8422 57.2737C69.0408 57.159 69.1555 56.8722 69.1555 56.4883V54.6129C69.1555 53.8186 68.679 52.9007 68.0877 52.561L56.0984 45.6419C55.9969 45.5801 55.8645 45.5227 55.7277 45.5227Z" fill="black"/>
<path d="M85.4338 68.3981L73.449 61.479C72.8136 61.1128 72.3017 60.1287 72.3017 59.2815V57.4061C72.3017 56.5589 72.818 56.1706 73.449 56.5368L85.4338 63.4559C86.0693 63.8222 86.5811 64.8062 86.5811 65.6534V67.5288C86.5811 68.3716 86.0693 68.7644 85.4338 68.3981Z" fill="#EA824A"/>
<path d="M85.4471 67.3743C85.2751 67.3743 85.0941 67.3214 84.9088 67.2155L72.9239 60.2964C72.2312 59.8948 71.6928 58.8711 71.6928 57.9576V56.0822C71.6928 55.5748 71.8693 55.1865 72.1738 55.01C72.4341 54.8599 72.7607 54.882 73.0916 55.0717L85.0765 61.9908C85.7693 62.3924 86.3076 63.4161 86.3076 64.3296V66.2049C86.3076 66.7124 86.1311 67.1007 85.8266 67.2772C85.7119 67.3434 85.5839 67.3743 85.4471 67.3743ZM72.5489 55.2394C72.4783 55.2394 72.4033 55.2571 72.3371 55.2968C72.1385 55.4115 72.0238 55.6983 72.0238 56.0822V57.9576C72.0238 58.7519 72.5003 59.6698 73.0916 60.0095L85.0765 66.9286C85.2353 67.0213 85.4648 67.1051 85.6634 66.9904C85.8619 66.8757 85.9767 66.5888 85.9767 66.2049V64.3296C85.9767 63.5353 85.5001 62.6174 84.9088 62.2777L72.9239 55.3586C72.8225 55.2924 72.6857 55.2394 72.5489 55.2394Z" fill="black"/>
<path d="M51.2356 61.3468L39.4846 54.5601C38.7874 54.1585 38.2181 53.073 38.2181 52.1419V43.7975C38.2181 42.8665 38.783 42.4384 39.4846 42.84L51.2356 49.6267C51.9328 50.0282 52.502 51.1138 52.502 52.0448V60.3892C52.502 61.3247 51.9372 61.7527 51.2356 61.3468Z" fill="white"/>
<path d="M51.7386 61.6643C51.5533 61.6643 51.3547 61.607 51.1517 61.4922L39.4008 54.7055C38.6462 54.2687 38.0505 53.1434 38.0505 52.1417V43.7974C38.0505 43.2458 38.2402 42.8222 38.5712 42.6324C38.8536 42.4691 39.2066 42.4912 39.564 42.6986L51.315 49.4853C52.0696 49.9222 52.6653 51.0474 52.6653 52.0491V60.3935C52.6653 60.9451 52.4755 61.3687 52.1446 61.5584C52.0255 61.629 51.8842 61.6643 51.7386 61.6643ZM38.9816 42.8575C38.8933 42.8575 38.8095 42.8795 38.7389 42.9192C38.5138 43.0472 38.3858 43.3693 38.3858 43.7974V52.1417C38.3858 53.0199 38.9154 54.0392 39.5684 54.4187L51.3194 61.2054C51.5754 61.351 51.8004 61.3731 51.9813 61.2716C52.2064 61.1436 52.3343 60.8215 52.3343 60.3891V52.0447C52.3343 51.1665 51.8048 50.1472 51.1517 49.7677L39.4008 42.9854C39.2507 42.8972 39.1095 42.8575 38.9816 42.8575Z" fill="black"/>
<path d="M68.0611 71.0633L56.3101 64.2766C55.6129 63.8751 55.0437 62.7896 55.0437 61.8585V53.5141C55.0437 52.583 55.6085 52.155 56.3101 52.5565L68.0611 59.3432C68.7583 59.7448 69.3276 60.8303 69.3276 61.7614V70.1058C69.3276 71.0369 68.7583 71.4649 68.0611 71.0633Z" fill="white"/>
<path d="M68.5641 71.3766C68.3788 71.3766 68.1802 71.3192 67.9772 71.2045L56.2263 64.4178C55.4717 63.9809 54.876 62.8557 54.876 61.854V53.5096C54.876 52.9581 55.0657 52.5344 55.3967 52.3447C55.6791 52.1814 56.0321 52.2035 56.3895 52.4109L68.1405 59.1976C68.8951 59.6344 69.4908 60.7597 69.4908 61.7614V70.1058C69.4908 70.6573 69.301 71.081 68.9701 71.2707C68.8465 71.3413 68.7097 71.3766 68.5641 71.3766ZM55.8071 52.5697C55.7188 52.5697 55.635 52.5918 55.5644 52.6315C55.3393 52.7595 55.2113 53.0816 55.2113 53.5096V61.854C55.2113 62.7322 55.7409 63.7515 56.3939 64.131L68.1449 70.9177C68.4009 71.0633 68.6259 71.0854 68.8068 70.9839C69.0319 70.8559 69.1598 70.5338 69.1598 70.1013V61.757C69.1598 60.8788 68.6303 59.8595 67.9772 59.48L56.2263 52.6977C56.0762 52.6139 55.935 52.5697 55.8071 52.5697Z" fill="black"/>
<path d="M84.8823 80.7756L73.1313 73.9889C72.4341 73.5873 71.8649 72.5018 71.8649 71.5708V63.2264C71.8649 62.2953 72.4297 61.8673 73.1313 62.2688L84.8823 69.0555C85.5795 69.4571 86.1487 70.5426 86.1487 71.4737V79.8181C86.1487 80.7491 85.5839 81.1772 84.8823 80.7756Z" fill="white"/>
<path d="M85.3853 81.0934C85.2 81.0934 85.0014 81.036 84.7984 80.9213L73.0474 74.1346C72.2929 73.6977 71.6971 72.5725 71.6971 71.5708V63.2264C71.6971 62.6749 71.8869 62.2512 72.2178 62.0615C72.5003 61.8982 72.8533 61.9203 73.2107 62.1277L84.9617 68.9144C85.7162 69.3512 86.312 70.4765 86.312 71.4782V79.8225C86.312 80.3741 86.1222 80.7977 85.7913 80.9875C85.6721 81.0581 85.5309 81.0934 85.3853 81.0934ZM84.9661 80.6301C85.222 80.7757 85.4515 80.8022 85.628 80.6963C85.853 80.5683 85.981 80.2462 85.981 79.8137V71.4693C85.981 70.5912 85.4515 69.5719 84.7984 69.1924L73.0474 62.4101C72.7915 62.2645 72.562 62.238 72.3855 62.3439C72.1605 62.4719 72.0325 62.794 72.0325 63.2264V71.5708C72.0325 72.4489 72.562 73.4683 73.2151 73.8478L84.9661 80.6301Z" fill="black"/>
<path d="M95.0137 44.8078C95.1637 44.896 95.1637 45.0372 95.0137 45.1255C94.8637 45.2137 94.6166 45.2137 94.4621 45.1255C94.3121 45.0372 94.3121 44.896 94.4621 44.8078C94.6166 44.7195 94.8637 44.7195 95.0137 44.8078Z" fill="black"/>
<path d="M93.5752 43.9738C93.7252 44.062 93.7252 44.2032 93.5752 44.2915C93.4251 44.3797 93.178 44.3797 93.0236 44.2915C92.8736 44.2032 92.8736 44.062 93.0236 43.9738C93.1736 43.8855 93.4207 43.8855 93.5752 43.9738Z" fill="black"/>
<path d="M91.8586 43.5282C92.073 43.5282 92.2469 43.4275 92.2469 43.3032C92.2469 43.1789 92.073 43.0781 91.8586 43.0781C91.6441 43.0781 91.4703 43.1789 91.4703 43.3032C91.4703 43.4275 91.6441 43.5282 91.8586 43.5282Z" fill="black"/>
<path d="M90.6805 42.3014C90.8305 42.3897 90.8305 42.5309 90.6805 42.6191C90.5304 42.7074 90.2833 42.7074 90.1289 42.6191C89.9788 42.5309 89.9788 42.3897 90.1289 42.3014C90.2833 42.2176 90.5304 42.2176 90.6805 42.3014Z" fill="black"/>
<path d="M89.2419 41.4718C89.392 41.5601 89.392 41.7013 89.2419 41.7895C89.0919 41.8778 88.8448 41.8778 88.6903 41.7895C88.5403 41.7013 88.5403 41.5601 88.6903 41.4718C88.8448 41.3836 89.0919 41.3836 89.2419 41.4718Z" fill="black"/>
<path d="M87.8034 40.6422C87.9534 40.7305 87.9534 40.8717 87.8034 40.96C87.6534 41.0482 87.4063 41.0482 87.2518 40.96C87.1018 40.8717 87.1018 40.7305 87.2518 40.6422C87.4018 40.554 87.6489 40.554 87.8034 40.6422Z" fill="black"/>
<path d="M86.3605 39.8081C86.5105 39.8964 86.5105 40.0376 86.3605 40.1258C86.2104 40.2141 85.9633 40.2141 85.8089 40.1258C85.6588 40.0376 85.6588 39.8964 85.8089 39.8081C85.9633 39.7199 86.2104 39.7199 86.3605 39.8081Z" fill="black"/>
<path d="M84.9219 38.9785C85.0719 39.0668 85.0719 39.208 84.9219 39.2963C84.7718 39.3845 84.5247 39.3845 84.3703 39.2963C84.2202 39.208 84.2202 39.0668 84.3703 38.9785C84.5247 38.8903 84.7718 38.8903 84.9219 38.9785Z" fill="black"/>
<path d="M83.4834 38.1491C83.6335 38.2373 83.6335 38.3785 83.4834 38.4668C83.3334 38.5551 83.0863 38.5551 82.9319 38.4668C82.7818 38.3785 82.7818 38.2373 82.9319 38.1491C83.0819 38.0608 83.329 38.0608 83.4834 38.1491Z" fill="black"/>
<path d="M82.0447 37.3151C82.1948 37.4033 82.1948 37.5446 82.0447 37.6328C81.8947 37.7211 81.6476 37.7211 81.4931 37.6328C81.3431 37.5446 81.3431 37.4033 81.4931 37.3151C81.6432 37.2268 81.8903 37.2268 82.0447 37.3151Z" fill="black"/>
<path d="M80.6019 36.4855C80.7519 36.5738 80.7519 36.715 80.6019 36.8032C80.4519 36.8915 80.2048 36.8915 80.0503 36.8032C79.9003 36.715 79.9003 36.5738 80.0503 36.4855C80.2048 36.3972 80.4519 36.3972 80.6019 36.4855Z" fill="black"/>
<path d="M79.1502 35.6426C79.3002 35.7309 79.3002 35.8721 79.1502 35.9603C79.0002 36.0486 78.7531 36.0486 78.5986 35.9603C78.4486 35.8721 78.4486 35.7309 78.5986 35.6426C78.7531 35.5544 79.0002 35.5544 79.1502 35.6426Z" fill="black"/>
<path d="M77.7115 34.8131C77.8616 34.9014 77.8616 35.0426 77.7115 35.1309C77.5615 35.2191 77.3144 35.2191 77.1599 35.1309C77.0099 35.0426 77.0099 34.9014 77.1599 34.8131C77.31 34.7249 77.5571 34.7249 77.7115 34.8131Z" fill="black"/>
<path d="M76.2687 33.9834C76.4187 34.0717 76.4187 34.2129 76.2687 34.3011C76.1186 34.3894 75.8715 34.3894 75.7171 34.3011C75.567 34.2129 75.567 34.0717 75.7171 33.9834C75.8715 33.8952 76.1186 33.8952 76.2687 33.9834Z" fill="black"/>
<path d="M74.5565 33.5332C74.771 33.5332 74.9448 33.4325 74.9448 33.3082C74.9448 33.1839 74.771 33.0831 74.5565 33.0831C74.3421 33.0831 74.1682 33.1839 74.1682 33.3082C74.1682 33.4325 74.3421 33.5332 74.5565 33.5332Z" fill="black"/>
<path d="M42.1012 14.4971C42.2512 14.5854 42.2512 14.7266 42.1012 14.8148C41.9512 14.9031 41.7041 14.9031 41.5496 14.8148C41.3996 14.7266 41.3996 14.5854 41.5496 14.4971C41.6997 14.4088 41.9468 14.4088 42.1012 14.4971Z" fill="black"/>
<path d="M40.3847 14.047C40.5992 14.047 40.773 13.9463 40.773 13.822C40.773 13.6977 40.5992 13.5969 40.3847 13.5969C40.1703 13.5969 39.9964 13.6977 39.9964 13.822C39.9964 13.9463 40.1703 14.047 40.3847 14.047Z" fill="black"/>
<path d="M38.9462 13.2177C39.1607 13.2177 39.3345 13.1169 39.3345 12.9926C39.3345 12.8683 39.1607 12.7676 38.9462 12.7676C38.7317 12.7676 38.5579 12.8683 38.5579 12.9926C38.5579 13.1169 38.7317 13.2177 38.9462 13.2177Z" fill="black"/>
<path d="M37.768 11.995C37.9181 12.0833 37.9181 12.2245 37.768 12.3127C37.618 12.401 37.3709 12.401 37.2164 12.3127C37.0664 12.2245 37.0664 12.0833 37.2164 11.995C37.3665 11.9068 37.6136 11.9068 37.768 11.995Z" fill="black"/>
<path d="M36.0514 11.5448C36.2659 11.5448 36.4397 11.4441 36.4397 11.3198C36.4397 11.1955 36.2659 11.0947 36.0514 11.0947C35.8369 11.0947 35.6631 11.1955 35.6631 11.3198C35.6631 11.4441 35.8369 11.5448 36.0514 11.5448Z" fill="black"/>
<path d="M60.0433 93.8019C60.1933 93.8902 60.1933 94.0314 60.0433 94.1196C59.8932 94.2079 59.6461 94.2079 59.4917 94.1196C59.3416 94.0314 59.3416 93.8902 59.4917 93.8019C59.6461 93.7137 59.8932 93.7137 60.0433 93.8019Z" fill="black"/>
<path d="M58.5915 92.9635C58.7415 93.0518 58.7415 93.193 58.5915 93.2812C58.4414 93.3695 58.1943 93.3695 58.0399 93.2812C57.8899 93.193 57.8899 93.0518 58.0399 92.9635C58.1943 92.8753 58.4414 92.8753 58.5915 92.9635Z" fill="black"/>
<path d="M60.0344 92.1295C60.1844 92.2178 60.1844 92.359 60.0344 92.4473C59.8844 92.5355 59.6373 92.5355 59.4828 92.4473C59.3328 92.359 59.3328 92.2178 59.4828 92.1295C59.6329 92.0413 59.88 92.0413 60.0344 92.1295Z" fill="black"/>
<path d="M57.1529 92.1295C57.303 92.2178 57.303 92.359 57.1529 92.4473C57.0029 92.5355 56.7558 92.5355 56.6014 92.4473C56.4513 92.359 56.4513 92.2178 56.6014 92.1295C56.7558 92.0413 57.0029 92.0413 57.1529 92.1295Z" fill="black"/>
<path d="M58.5915 91.3C58.7415 91.3882 58.7415 91.5294 58.5915 91.6177C58.4414 91.7059 58.1943 91.7059 58.0399 91.6177C57.8899 91.5294 57.8899 91.3882 58.0399 91.3C58.1943 91.2117 58.4414 91.2117 58.5915 91.3Z" fill="black"/>
<path d="M59.7564 90.8541C59.9709 90.8541 60.1447 90.7534 60.1447 90.6291C60.1447 90.5048 59.9709 90.4041 59.7564 90.4041C59.542 90.4041 59.3681 90.5048 59.3681 90.6291C59.3681 90.7534 59.542 90.8541 59.7564 90.8541Z" fill="black"/>
<path d="M55.7144 91.3C55.8644 91.3882 55.8644 91.5294 55.7144 91.6177C55.5644 91.7059 55.3173 91.7059 55.1628 91.6177C55.0128 91.5294 55.0128 91.3882 55.1628 91.3C55.3128 91.2117 55.56 91.2117 55.7144 91.3Z" fill="black"/>
<path d="M56.8793 90.8541C57.0938 90.8541 57.2677 90.7534 57.2677 90.6291C57.2677 90.5048 57.0938 90.4041 56.8793 90.4041C56.6649 90.4041 56.491 90.5048 56.491 90.6291C56.491 90.7534 56.6649 90.8541 56.8793 90.8541Z" fill="black"/>
<path d="M58.5915 89.6363C58.7415 89.7245 58.7415 89.8657 58.5915 89.954C58.4414 90.0422 58.1943 90.0422 58.0399 89.954C57.8899 89.8657 57.8899 89.7245 58.0399 89.6363C58.1943 89.548 58.4414 89.548 58.5915 89.6363Z" fill="black"/>
<path d="M60.0344 88.8067C60.1844 88.8949 60.1844 89.0361 60.0344 89.1244C59.8844 89.2126 59.6373 89.2126 59.4828 89.1244C59.3328 89.0361 59.3328 88.8949 59.4828 88.8067C59.6329 88.7184 59.88 88.7184 60.0344 88.8067Z" fill="black"/>
<path d="M47.9834 87.2401C48.1979 87.2401 48.3717 87.1394 48.3717 87.0151C48.3717 86.8908 48.1979 86.79 47.9834 86.79C47.7689 86.79 47.5951 86.8908 47.5951 87.0151C47.5951 87.1394 47.7689 87.2401 47.9834 87.2401Z" fill="black"/>
<path d="M49.6955 86.0268C49.8455 86.115 49.8455 86.2562 49.6955 86.3445C49.5454 86.4327 49.2983 86.4327 49.1439 86.3445C48.9939 86.2562 48.9939 86.115 49.1439 86.0268C49.2983 85.9385 49.5454 85.9385 49.6955 86.0268Z" fill="black"/>
<path d="M50.8605 85.5766C51.0749 85.5766 51.2488 85.4758 51.2488 85.3515C51.2488 85.2272 51.0749 85.1265 50.8605 85.1265C50.646 85.1265 50.4722 85.2272 50.4722 85.3515C50.4722 85.4758 50.646 85.5766 50.8605 85.5766Z" fill="black"/>
<path d="M52.3034 84.7471C52.5179 84.7471 52.6917 84.6463 52.6917 84.522C52.6917 84.3978 52.5179 84.297 52.3034 84.297C52.089 84.297 51.9151 84.3978 51.9151 84.522C51.9151 84.6463 52.089 84.7471 52.3034 84.7471Z" fill="black"/>
<path d="M54.0155 83.5292C54.1656 83.6174 54.1656 83.7587 54.0155 83.8469C53.8655 83.9352 53.6184 83.9352 53.464 83.8469C53.3139 83.7587 53.3139 83.6174 53.464 83.5292C53.6184 83.4453 53.8655 83.4453 54.0155 83.5292Z" fill="black"/>
<path d="M83.3687 119.691C81.8552 119.285 82.7068 118.76 83.863 118.35L63.697 106.608C62.863 106.052 62.3644 105.116 62.3732 104.114L62.5365 69.9249C61.4642 69.1571 60.7626 68.2834 61.2215 67.4582C62.0511 65.9535 63.0395 66.0859 63.7146 66.28C63.8867 66.3198 64.0677 66.3904 64.2574 66.5051C64.2751 66.5139 64.2839 66.5183 64.2839 66.5183L84.9794 78.5826C85.8001 79.1298 86.2855 80.052 86.2767 81.0361L86.0914 117.78C86.0914 117.785 86.2723 120.468 83.3687 119.691Z" fill="black"/>
<path d="M84.3307 120C84.0262 120 83.6952 119.952 83.329 119.855C82.9318 119.749 82.4067 119.568 82.3935 119.201C82.3803 118.901 82.72 118.623 83.4834 118.319L63.6219 106.753C62.7306 106.162 62.2099 105.174 62.2187 104.114L62.3776 70.0132C61.0802 69.0601 60.6434 68.1776 61.0802 67.3833C61.9451 65.8079 63.0262 65.9138 63.7676 66.1257C63.9529 66.1654 64.1515 66.2492 64.35 66.3684L85.0676 78.4459C85.9457 79.0328 86.4576 79.9991 86.4488 81.0449L86.2634 117.789C86.2678 117.825 86.334 118.976 85.5662 119.607C85.2353 119.868 84.8249 120 84.3307 120ZM62.9997 66.3331C62.4526 66.3331 61.8833 66.5978 61.3626 67.5377C61.0096 68.1776 61.4377 68.9365 62.6291 69.7926L62.6997 69.8411L62.5408 104.114C62.532 105.063 62.9997 105.946 63.7896 106.471L84.2556 118.389L83.9203 118.509C82.7244 118.932 82.72 119.179 82.72 119.188C82.72 119.193 82.7333 119.351 83.4128 119.532C84.2689 119.762 84.9176 119.7 85.3456 119.347C85.9854 118.822 85.9236 117.803 85.9236 117.794L86.109 81.0361C86.1178 80.105 85.6589 79.2357 84.8867 78.7195L64.2 66.6596C64.0058 66.5449 63.8426 66.4743 63.6793 66.439C63.4631 66.3772 63.2336 66.3331 62.9997 66.3331Z" fill="black"/>
<path d="M61.0449 68.076L60.8728 104.953C60.864 105.954 61.3626 106.894 62.1966 107.446L82.9053 119.506C83.6864 120.027 84.7322 119.471 84.741 118.535L84.9263 81.7906C84.9352 80.8066 84.4454 79.8844 83.629 79.3372L62.9335 67.2729C61.9054 66.686 61.1067 67.2067 61.0449 68.076Z" fill="white"/>
<path d="M84.2953 80.4092L63.5998 68.3449C62.5673 67.7624 61.773 68.2831 61.7112 69.1524L61.5391 106.029C61.5391 106.272 61.5656 106.515 61.623 106.744C61.8039 106.96 62.0113 107.159 62.254 107.318L82.9627 119.378C83.7437 119.898 84.7896 119.342 84.7984 118.407L84.9837 81.6624C84.9837 81.4241 84.9572 81.1902 84.9043 80.9652C84.7278 80.7533 84.5248 80.5636 84.2953 80.4092Z" fill="#FFBE9C"/>
<path d="M83.5584 119.876C83.2981 119.876 83.0421 119.801 82.8127 119.647L62.1128 107.592C61.2214 107 60.7007 106.012 60.7095 104.953L60.8816 68.0671C60.9169 67.5861 61.1508 67.1978 61.5215 66.9992C61.9407 66.7742 62.4746 66.8183 63.0174 67.1272L83.7129 79.1915C84.591 79.7784 85.1028 80.7447 85.094 81.7905L84.9087 118.535C84.9043 119.038 84.6351 119.479 84.1938 119.713C83.9909 119.823 83.7746 119.876 83.5584 119.876ZM61.2082 68.0847L61.0361 104.953C61.0272 105.901 61.495 106.784 62.2849 107.309L82.9848 119.365C83.3113 119.581 83.6996 119.598 84.0306 119.422C84.3659 119.245 84.5689 118.91 84.5733 118.535L84.7587 81.7905C84.7675 80.8595 84.3086 79.9902 83.5363 79.4739L62.8497 67.414C62.4084 67.1625 61.9892 67.1184 61.6759 67.2905C61.4067 67.4317 61.239 67.7229 61.2082 68.0847Z" fill="black"/>
<path d="M62.0687 69.1528L83.8276 82.0555C83.9776 82.157 84.0659 82.3247 84.0615 82.5012L83.9732 117.375C83.9732 117.516 83.8144 117.6 83.6996 117.52L61.8568 104.697C61.7201 104.609 61.6406 104.454 61.6406 104.291L61.8083 69.2852C61.8171 69.1572 61.9628 69.0822 62.0687 69.1528Z" fill="white"/>
<path d="M83.8011 117.719C83.7349 117.719 83.6687 117.701 83.6114 117.661L61.7774 104.842C61.5877 104.714 61.4773 104.511 61.4818 104.291L61.6494 69.285C61.6494 69.1614 61.72 69.0555 61.8259 68.9981C61.9318 68.9452 62.0554 68.9496 62.1569 69.0158L83.9158 81.9185C84.1188 82.0553 84.2336 82.2759 84.2336 82.5098L84.1453 117.379C84.1453 117.507 84.0747 117.617 83.9644 117.679C83.9114 117.705 83.8585 117.719 83.8011 117.719ZM62.0686 69.1526L61.976 69.2894L61.8127 104.291C61.8127 104.401 61.8657 104.498 61.9539 104.56L83.7879 117.379L83.8982 82.5054C83.8982 82.3818 83.8364 82.2671 83.7349 82.1965L61.976 69.2938L62.0686 69.1526Z" fill="black"/>
<path d="M62.0068 69.1526L61.8392 104.158C61.8392 104.322 61.9186 104.476 62.0554 104.564L83.8982 117.388C83.9158 117.401 83.8761 117.383 83.8982 117.388C83.8673 117.498 83.7967 117.577 83.6952 117.507L61.8524 104.684C61.7156 104.595 61.6362 104.441 61.6362 104.278L61.8039 69.2718C61.8039 69.1615 61.9142 69.0865 62.0157 69.1173C62.0068 69.1306 62.0068 69.1394 62.0068 69.1526Z" fill="white"/>
<path d="M83.7613 117.701C83.7083 117.701 83.651 117.683 83.598 117.648L61.764 104.829C61.5743 104.701 61.464 104.498 61.4684 104.277L61.6361 69.2717C61.6361 69.1658 61.6846 69.0731 61.7685 69.0113C61.8523 68.9495 61.9626 68.9319 62.0597 68.9628L62.2097 69.0113L62.1744 69.1613L62.0067 104.158C62.0067 104.269 62.0597 104.366 62.1479 104.428L83.9598 117.233L84.1055 117.268L84.0922 117.313L84.1187 117.326L84.026 117.511C84.0216 117.524 84.0128 117.533 84.0084 117.542L83.9775 117.599L83.9687 117.595C83.9334 117.635 83.8937 117.661 83.8495 117.679C83.8186 117.696 83.7922 117.701 83.7613 117.701Z" fill="black"/>
<path d="M71.8603 73.636L71.8471 73.6271C71.7765 73.583 71.7147 73.6271 71.7147 73.7242C71.7147 73.8213 71.7721 73.9316 71.8427 73.9757L71.8559 73.9846C71.9265 74.0287 71.9883 73.9846 71.9883 73.8875C71.9883 73.7904 71.9309 73.6757 71.8603 73.636Z" fill="black"/>
<path d="M74.755 75.3393L72.2663 73.8743C72.1957 73.8302 72.1339 73.8743 72.1339 73.9714C72.1339 74.0685 72.1913 74.1788 72.2619 74.2229L74.7506 75.6879C74.8212 75.7321 74.883 75.6879 74.883 75.5909C74.883 75.4938 74.8257 75.3835 74.755 75.3393Z" fill="black"/>
<path d="M74.0624 112.459L72.7077 111.656C72.4341 111.497 72.2134 111.664 72.2134 112.026C72.2134 112.388 72.4341 112.812 72.7077 112.966L74.0624 113.769C74.3359 113.928 74.5566 113.76 74.5566 113.399C74.5566 113.037 74.3359 112.613 74.0624 112.459Z" fill="white"/>
<path d="M73.5859 113.531C73.5065 113.531 73.4182 113.505 73.3344 113.456L71.9797 112.648C71.6752 112.472 71.4325 112.017 71.4325 111.611C71.4325 111.382 71.5163 111.201 71.6575 111.117C71.7811 111.047 71.9355 111.055 72.09 111.144L73.4447 111.951C73.7536 112.128 73.9919 112.582 73.9919 112.988C73.9919 113.218 73.908 113.399 73.7668 113.482C73.7094 113.513 73.6477 113.531 73.5859 113.531ZM71.8385 111.294C71.812 111.294 71.7899 111.298 71.7679 111.311C71.6973 111.351 71.6531 111.466 71.6531 111.616C71.6531 111.938 71.8517 112.326 72.09 112.463L73.4447 113.271C73.502 113.306 73.5859 113.337 73.6565 113.297C73.7271 113.257 73.7712 113.143 73.7712 112.993C73.7712 112.671 73.5727 112.282 73.3344 112.145L71.9797 111.338C71.94 111.311 71.8914 111.294 71.8385 111.294Z" fill="black"/>
<path d="M71.7192 111.461C71.7192 111.823 71.9398 112.247 72.2134 112.401L73.5681 113.204C73.8946 113.39 73.5857 113.469 73.3916 113.359L72.0369 112.556C71.7633 112.397 71.5427 111.978 71.5427 111.616C71.5427 111.378 71.7192 111.064 71.7192 111.461Z" fill="#0D1756"/>
<path d="M73.5769 113.522C73.493 113.522 73.4048 113.5 73.3298 113.456L71.9751 112.649C71.6706 112.472 71.4279 112.018 71.4279 111.612C71.4279 111.475 71.4897 111.241 71.5956 111.179L71.6486 111.148L71.728 111.179C71.7942 111.219 71.8206 111.298 71.8206 111.462C71.8206 111.784 72.0192 112.168 72.2575 112.309L73.6122 113.116C73.696 113.165 73.8063 113.24 73.8063 113.35C73.8063 113.408 73.7755 113.461 73.7225 113.492C73.6916 113.509 73.6387 113.522 73.5769 113.522Z" fill="black"/>
<path d="M85.5176 92.1163C85.4426 92.1163 85.372 92.0899 85.319 92.0369C85.2705 91.9884 85.2396 91.9266 85.2352 91.8516L85.2484 90.3424C85.2484 90.2409 85.2925 90.135 85.372 90.0556C85.4514 89.9718 85.5573 89.9232 85.6632 89.9232H85.6676C85.7426 89.9232 85.8132 89.9497 85.8662 90.0026C85.9147 90.0468 85.9412 90.1086 85.9456 90.1836C85.9456 90.1924 85.9456 90.1924 85.9324 91.6795C85.9324 91.6927 85.9324 91.7059 85.9324 91.7192V91.7236C85.9235 91.8163 85.8794 91.9089 85.8088 91.9839C85.725 92.0722 85.6147 92.1163 85.5176 92.1163ZM85.6676 90.1439C85.6235 90.1439 85.5705 90.1703 85.5308 90.21C85.4911 90.2498 85.469 90.2983 85.469 90.3424L85.4558 91.8471C85.4558 91.856 85.4602 91.8692 85.469 91.878C85.4999 91.9089 85.5838 91.8913 85.65 91.8251C85.6985 91.7721 85.7161 91.7192 85.7117 91.6839L85.7073 91.6309L85.7117 91.6265C85.7117 91.3838 85.725 90.2189 85.725 90.188C85.725 90.1792 85.7206 90.1659 85.7117 90.1571C85.6985 90.1483 85.6808 90.1439 85.6676 90.1439Z" fill="white"/>
<path d="M85.5176 94.4196C85.4425 94.4196 85.3719 94.3932 85.319 94.3446C85.2705 94.2961 85.2484 94.2122 85.2396 94.1769L85.2528 92.6502C85.2528 92.5487 85.2969 92.4428 85.3764 92.3633C85.4558 92.2795 85.5617 92.231 85.6632 92.231C85.7294 92.231 85.8132 92.2574 85.8662 92.306C85.9147 92.3501 85.9368 92.4339 85.9456 92.4692C85.95 92.5001 85.9324 93.9828 85.9324 93.9828C85.9412 94.0799 85.8971 94.199 85.8088 94.2873C85.7294 94.3711 85.6235 94.4196 85.5176 94.4196C85.522 94.4196 85.522 94.4196 85.5176 94.4196ZM85.4778 94.1858C85.4911 94.1946 85.5087 94.2034 85.522 94.199C85.5661 94.199 85.6146 94.1725 85.6544 94.1328C85.7073 94.0799 85.7205 94.0225 85.7161 93.9916C85.7161 93.9784 85.7294 92.5134 85.7294 92.4957C85.7294 92.5001 85.7161 92.4692 85.7117 92.4604C85.7029 92.4516 85.6852 92.4472 85.672 92.4516C85.6279 92.4516 85.5793 92.4781 85.5396 92.5178C85.4999 92.5575 85.4778 92.606 85.4778 92.6502L85.4646 94.1549C85.4602 94.1505 85.469 94.1769 85.4778 94.1858Z" fill="white"/>
<path d="M85.5407 89.7951C85.4657 89.7951 85.3951 89.7686 85.3422 89.7201C85.2936 89.6715 85.2627 89.6098 85.2583 89.5347L85.2539 89.12L85.2583 89.1155C85.2716 89.0317 85.3113 88.9434 85.3775 88.8773C85.4569 88.7934 85.5628 88.7449 85.6687 88.7449H85.6731C85.7481 88.7449 85.8187 88.7714 85.8717 88.8243C85.9202 88.8684 85.9467 88.9302 85.9511 89.0052L85.9555 89.3627C85.9555 89.3715 85.9555 89.3803 85.9555 89.3891V89.4068C85.9467 89.4994 85.9026 89.5921 85.832 89.6671C85.7525 89.7421 85.6466 89.7907 85.5407 89.7951ZM85.479 89.2038L85.4834 89.5259C85.4834 89.5347 85.4878 89.548 85.4966 89.5612C85.5098 89.5745 85.5275 89.5745 85.5407 89.5745C85.5849 89.5745 85.6334 89.548 85.6731 89.5083C85.7128 89.4641 85.7393 89.4112 85.7349 89.3671L85.7305 89.3141L85.7349 89.3097L85.7305 89.0229C85.7305 89.0008 85.7261 88.9876 85.7172 88.9787C85.704 88.9655 85.6819 88.9655 85.6731 88.9655C85.629 88.9655 85.5804 88.992 85.5407 89.0317C85.501 89.0714 85.479 89.12 85.479 89.1641V89.2038Z" fill="white"/>
<path d="M83.1259 77.8852C83.1127 78.0088 83.0156 78.1191 82.8612 78.1853C82.592 78.3088 82.2125 78.2824 82.0007 78.1323C81.8948 78.0573 81.8419 77.9558 81.8507 77.8455C81.8639 77.7219 81.961 77.6116 82.1154 77.5454C82.3846 77.4219 82.7641 77.4484 82.9759 77.5984C83.0333 77.6381 83.073 77.6866 83.0995 77.7396C83.1215 77.7881 83.1304 77.8367 83.1259 77.8852ZM82.1066 77.9955C82.2655 78.1103 82.5832 78.1279 82.795 78.0308C82.8921 77.9867 82.9539 77.9249 82.9583 77.8676C82.9627 77.8102 82.9186 77.7661 82.8788 77.7396C82.72 77.6249 82.4023 77.6072 82.1905 77.7043C82.0934 77.7484 82.0316 77.8102 82.0272 77.8676C82.0272 77.8852 82.0272 77.9029 82.036 77.9205C82.0493 77.9514 82.0801 77.9735 82.1066 77.9955Z" fill="white"/>
<path d="M84.7719 80.8507L84.7189 80.6345C84.7278 80.6345 85.522 80.4359 86.0339 79.9637L86.1839 80.127C85.6279 80.6389 84.8028 80.8419 84.7719 80.8507Z" fill="white"/>
<path d="M84.7675 118.641L84.7189 118.425C84.7278 118.425 85.4603 118.248 86.0163 117.705L86.1707 117.864C85.5662 118.451 84.7984 118.636 84.7675 118.641Z" fill="white"/>
<path d="M86.387 83.3438H86.1664V87.3284H86.387V83.3438Z" fill="white"/>
<path d="M81.7758 92.937L64.0235 82.6863C63.6396 82.4657 63.3307 81.8744 63.3307 81.3625V74.9421C63.3307 74.4346 63.6396 74.2007 64.0235 74.417L81.7758 84.6676C82.1597 84.8883 82.4686 85.4796 82.4686 85.9914V92.4163C82.4686 92.9238 82.1597 93.1576 81.7758 92.937Z" fill="white"/>
<path d="M82.0539 93.184C81.9392 93.184 81.8156 93.1487 81.6965 93.0781L63.9442 82.8274C63.5118 82.5759 63.1676 81.9316 63.1676 81.3624V74.9419C63.1676 74.6154 63.2867 74.3551 63.4897 74.2403C63.6707 74.1388 63.8913 74.1521 64.1075 74.2756L81.8597 84.5263C82.2922 84.7778 82.6364 85.4221 82.6364 85.9913V92.4162C82.6364 92.7427 82.5172 92.9987 82.3142 93.1178C82.2348 93.1619 82.1466 93.184 82.0539 93.184ZM81.8597 92.7913C81.9392 92.8398 82.0539 92.8795 82.1466 92.8266C82.2436 92.7692 82.301 92.6147 82.301 92.4118V85.9869C82.301 85.5368 82.023 84.9985 81.6921 84.8087L63.9398 74.558C63.8604 74.5139 63.7457 74.4654 63.653 74.5227C63.5559 74.5801 63.4986 74.7346 63.4986 74.9375V81.3624C63.4986 81.8125 63.7766 82.3508 64.1075 82.5406L81.8597 92.7913Z" fill="black"/>
<path d="M71.247 82.6775C71.247 84.2573 70.135 84.9015 68.7671 84.1116C67.3992 83.3218 66.2872 81.3978 66.2872 79.8137C66.2872 78.2295 67.3992 77.5897 68.7671 78.3796C70.135 79.1694 71.247 81.0934 71.247 82.6775Z" fill="#EA824A"/>
<path d="M68.9921 84.1734C68.6215 84.1734 68.2199 84.0498 67.8007 83.8115C66.3886 82.9952 65.2369 81.0051 65.2369 79.3724C65.2369 78.5472 65.5238 77.925 66.0445 77.625C66.5652 77.3249 67.2491 77.3867 67.964 77.7971C69.376 78.6134 70.5277 80.6035 70.5277 82.2362C70.5277 83.0614 70.2409 83.6836 69.7202 83.9836C69.504 84.1116 69.2569 84.1734 68.9921 84.1734ZM66.777 77.7662C66.5696 77.7662 66.3798 77.8147 66.2121 77.9118C65.7973 78.1501 65.5679 78.6708 65.5679 79.3724C65.5679 80.8992 66.6446 82.7613 67.964 83.5247C68.5729 83.8777 69.1378 83.9395 69.5525 83.6968C69.9673 83.4585 70.1968 82.9378 70.1968 82.2318C70.1968 80.705 69.1201 78.8429 67.8007 78.0795C67.4345 77.8721 67.0859 77.7662 66.777 77.7662Z" fill="black"/>
<path d="M72.2752 95.3288L65.2502 91.2736C64.8398 91.0353 64.5045 90.3955 64.5045 89.8483V86.4991C64.5045 85.9475 64.8398 85.696 65.2502 85.9342L72.2752 89.9895C72.6856 90.2278 73.0209 90.8676 73.0209 91.4148V94.764C73.0254 95.3156 72.69 95.5671 72.2752 95.3288Z" fill="#FFBE9C"/>
<path d="M71.397 93.8726C71.2735 93.8726 71.1455 93.8373 71.0175 93.7623L63.9926 89.707C63.5292 89.4379 63.163 88.7495 63.163 88.1361V84.7869C63.163 84.4383 63.2865 84.1647 63.5027 84.0412C63.6925 83.9308 63.9219 83.9441 64.1558 84.0809L71.1808 88.1361C71.6441 88.4053 72.0104 89.0937 72.0104 89.707V93.0563C72.0104 93.4049 71.8868 93.6785 71.6706 93.802C71.5912 93.8461 71.4985 93.8726 71.397 93.8726ZM63.7852 84.3015C63.7499 84.3015 63.7101 84.3103 63.6748 84.328C63.5645 84.3898 63.4983 84.5618 63.4983 84.7869V88.1361C63.4983 88.6215 63.8028 89.2084 64.1602 89.4202L71.1852 93.4755C71.2735 93.5284 71.4014 93.5725 71.5074 93.5152C71.6177 93.4534 71.6839 93.2813 71.6839 93.0563V89.707C71.6839 89.2216 71.3794 88.6348 71.022 88.4229L63.997 84.3677C63.9352 84.3324 63.8602 84.3015 63.7852 84.3015Z" fill="black"/>
<path d="M81.7714 112.649L64.028 102.402C63.644 102.182 63.3307 101.586 63.3307 101.074V94.3669C63.3307 93.855 63.644 93.6167 64.028 93.8418L81.7714 104.088C82.1553 104.309 82.4686 104.904 82.4686 105.416V112.124C82.4686 112.635 82.1597 112.874 81.7714 112.649Z" fill="white"/>
<path d="M82.0493 112.9C81.9345 112.9 81.811 112.865 81.6874 112.794L63.944 102.552C63.5072 102.301 63.163 101.652 63.163 101.078V94.3712C63.163 94.0402 63.2821 93.7843 63.4851 93.6651C63.666 93.5636 63.8866 93.5725 64.1073 93.7004L81.8507 103.942C82.2875 104.194 82.6317 104.842 82.6317 105.416V112.123C82.6317 112.454 82.5126 112.71 82.3096 112.829C82.2302 112.878 82.1419 112.9 82.0493 112.9ZM63.7543 93.9211C63.719 93.9211 63.6881 93.9299 63.6572 93.9476C63.5601 94.0049 63.4983 94.1594 63.4983 94.3668V101.074C63.4983 101.524 63.7807 102.067 64.1117 102.261L81.8551 112.507C81.9345 112.556 82.0537 112.6 82.1463 112.543C82.2434 112.485 82.3052 112.331 82.3052 112.123V105.416C82.3052 104.966 82.0228 104.423 81.6918 104.229L63.9484 93.9829C63.8911 93.952 63.8205 93.9211 63.7543 93.9211Z" fill="black"/>
<path d="M82.8525 98.0115L74.2831 93.0649C74.0051 92.906 73.7844 92.478 73.7844 92.1073V91.3042C73.7844 90.938 74.0095 90.7659 74.2831 90.9247L82.8525 95.8713C83.1305 96.0302 83.3511 96.4582 83.3511 96.8289V97.632C83.3511 98.0027 83.1261 98.1703 82.8525 98.0115Z" fill="#EA824A"/>
<path d="M82.1684 96.9129C82.0758 96.9129 81.9831 96.8864 81.886 96.829L73.3166 91.8824C72.9901 91.6927 72.7341 91.2117 72.7341 90.7836V89.9805C72.7341 89.7246 72.8268 89.526 72.9901 89.4334C73.1357 89.3495 73.3078 89.3583 73.4843 89.4598L82.0537 94.4065C82.3803 94.5962 82.6362 95.0772 82.6362 95.5052V96.3083C82.6362 96.5643 82.5435 96.7628 82.3803 96.8555C82.3141 96.8952 82.2435 96.9129 82.1684 96.9129ZM82.0537 96.5422C82.0934 96.5643 82.164 96.5996 82.217 96.5687C82.2611 96.5422 82.3052 96.4628 82.3052 96.3083V95.5052C82.3052 95.1963 82.1155 94.8257 81.886 94.6933L73.3166 89.7467C73.2769 89.7246 73.2063 89.6893 73.1533 89.7202C73.1092 89.7467 73.0651 89.8261 73.0651 89.9805V90.7836C73.0651 91.0925 73.2548 91.4676 73.4843 91.5956L82.0537 96.5422Z" fill="black"/>
<path d="M82.8525 101.215L74.2831 96.2686C74.0051 96.1097 73.7844 95.6817 73.7844 95.3111V94.5079C73.7844 94.1417 74.0095 93.9696 74.2831 94.1284L82.8525 99.0751C83.1305 99.2339 83.3511 99.662 83.3511 100.033V100.836C83.3511 101.206 83.1261 101.374 82.8525 101.215Z" fill="#EA824A"/>
<path d="M82.1684 100.116C82.0758 100.116 81.9831 100.09 81.886 100.033L73.3166 95.0859C72.9901 94.8961 72.7341 94.4152 72.7341 93.9871V93.184C72.7341 92.9281 72.8268 92.7295 72.9901 92.6368C73.1357 92.553 73.3078 92.5618 73.4843 92.6633L82.0537 97.6099C82.3803 97.7997 82.6362 98.2807 82.6362 98.7087V99.5118C82.6362 99.7678 82.5435 99.9663 82.3803 100.059C82.3141 100.099 82.2435 100.116 82.1684 100.116ZM73.2019 92.9148C73.1842 92.9148 73.171 92.9193 73.1577 92.9281C73.1136 92.9546 73.0695 93.034 73.0695 93.1884V93.9915C73.0695 94.3004 73.2592 94.6755 73.4887 94.8035L82.0581 99.7501C82.0978 99.7722 82.1684 99.803 82.2214 99.7766C82.2655 99.7501 82.3097 99.6707 82.3097 99.5162V98.7131C82.3097 98.4042 82.1199 98.0291 81.8905 97.9012L73.321 92.9546C73.2901 92.9369 73.246 92.9148 73.2019 92.9148Z" fill="black"/>
<path d="M82.9098 104.45L64.6545 93.9123C64.4118 93.7711 64.2133 93.396 64.2133 93.0695V92.1119C64.2133 91.7854 64.4118 91.6398 64.6545 91.7766L82.9098 102.314C83.1525 102.455 83.3511 102.83 83.3511 103.157V104.114C83.3511 104.441 83.1525 104.591 82.9098 104.45Z" fill="#EA824A"/>
<path d="M82.2037 103.347C82.1199 103.347 82.0316 103.32 81.9434 103.272L63.6881 92.7341C63.3924 92.562 63.163 92.1296 63.163 91.7457V90.7881C63.163 90.5587 63.2468 90.3734 63.3968 90.2895C63.5292 90.2145 63.6925 90.2233 63.8513 90.3116L82.1066 100.849C82.4023 101.017 82.6317 101.454 82.6317 101.838V102.795C82.6317 103.025 82.5479 103.21 82.3979 103.294C82.3405 103.329 82.2743 103.347 82.2037 103.347ZM82.111 102.985C82.1375 102.998 82.1993 103.029 82.2346 103.007C82.2655 102.989 82.3052 102.923 82.3052 102.795V101.838C82.3052 101.573 82.1375 101.246 81.9478 101.136L63.6925 90.5984C63.666 90.5852 63.6086 90.5499 63.5689 90.5763C63.538 90.594 63.4983 90.6602 63.4983 90.7881V91.7457C63.4983 92.006 63.666 92.337 63.8558 92.4473L82.111 102.985Z" fill="black"/>
</svg>
