<svg width="40" height="40" viewBox="0 0 40 40" fill="none" xmlns="http://www.w3.org/2000/svg">
<path d="M30.5001 9.51666C30.3459 9.36215 30.1628 9.23957 29.9612 9.15594C29.7595 9.0723 29.5434 9.02925 29.3251 9.02925C29.1068 9.02925 28.8907 9.0723 28.6891 9.15594C28.4875 9.23957 28.3043 9.36215 28.1501 9.51666L20.0001 17.65L11.8501 9.49999C11.6958 9.34569 11.5126 9.22329 11.311 9.13978C11.1094 9.05627 10.8933 9.01329 10.6751 9.01329C10.4569 9.01329 10.2408 9.05627 10.0392 9.13978C9.83762 9.22329 9.65443 9.34569 9.50013 9.49999C9.34583 9.65429 9.22343 9.83748 9.13992 10.0391C9.05641 10.2407 9.01343 10.4568 9.01343 10.675C9.01343 10.8932 9.05641 11.1093 9.13992 11.3109C9.22343 11.5125 9.34583 11.6957 9.50013 11.85L17.6501 20L9.50013 28.15C9.34583 28.3043 9.22343 28.4875 9.13992 28.6891C9.05641 28.8907 9.01343 29.1068 9.01343 29.325C9.01343 29.5432 9.05641 29.7593 9.13992 29.9609C9.22343 30.1625 9.34583 30.3457 9.50013 30.5C9.65443 30.6543 9.83762 30.7767 10.0392 30.8602C10.2408 30.9437 10.4569 30.9867 10.6751 30.9867C10.8933 30.9867 11.1094 30.9437 11.311 30.8602C11.5126 30.7767 11.6958 30.6543 11.8501 30.5L20.0001 22.35L28.1501 30.5C28.3044 30.6543 28.4876 30.7767 28.6892 30.8602C28.8908 30.9437 29.1069 30.9867 29.3251 30.9867C29.5433 30.9867 29.7594 30.9437 29.961 30.8602C30.1626 30.7767 30.3458 30.6543 30.5001 30.5C30.6544 30.3457 30.7768 30.1625 30.8603 29.9609C30.9438 29.7593 30.9868 29.5432 30.9868 29.325C30.9868 29.1068 30.9438 28.8907 30.8603 28.6891C30.7768 28.4875 30.6544 28.3043 30.5001 28.15L22.3501 20L30.5001 11.85C31.1335 11.2167 31.1335 10.15 30.5001 9.51666Z" fill="white"/>
</svg>
