<svg width="114" height="22" viewBox="0 0 114 22" fill="none" xmlns="http://www.w3.org/2000/svg">
<path d="M3.29559 17.97C2.81559 17.97 2.33559 17.88 1.85559 17.7C1.37559 17.52 0.995586 17.3 0.715586 17.04C0.435586 16.76 0.305586 16.5 0.325586 16.26C0.365586 15.62 0.705586 15.3 1.34559 15.3L1.61559 15.33C2.17559 15.43 2.68559 15.48 3.14559 15.48C3.96559 15.48 4.72559 15.37 5.42559 15.15C6.14559 14.91 6.71559 14.58 7.13559 14.16C7.69559 13.6 7.97559 13.15 7.97559 12.81C7.97559 12.43 7.69559 12.06 7.13559 11.7C6.73559 11.42 6.22559 11.18 5.60559 10.98C4.98559 10.78 4.47559 10.69 4.07559 10.71C3.77559 10.75 3.29559 10.6 2.63559 10.26C2.51559 10.14 2.40559 9.92 2.30559 9.6C2.20559 9.26 2.13559 9.05 2.09559 8.97C2.05559 8.83 2.25559 8.61 2.69559 8.31C3.13559 8.01 4.02559 7.5 5.36559 6.78L6.68559 6.06C7.28559 5.74 7.76559 5.47 8.12559 5.25C8.50559 5.03 8.79559 4.83 8.99559 4.65C9.21559 4.39 9.32559 4.21 9.32559 4.11C9.32559 4.01 9.26559 3.93 9.14559 3.87C9.02559 3.79 8.81559 3.72 8.51559 3.66C8.33559 3.64 8.08559 3.63 7.76559 3.63C7.16559 3.63 6.86559 3.69 6.86559 3.81H6.74559C6.60559 3.75 6.21559 3.79 5.57559 3.93C4.95559 4.07 4.63559 4.18 4.61559 4.26C4.59559 4.32 4.34559 4.42 3.86559 4.56C3.38559 4.7 3.09559 4.77 2.99559 4.77C2.85559 4.73 2.68559 4.47 2.48559 3.99C2.28559 3.51 2.21559 3.19 2.27559 3.03C2.31559 2.91 2.57559 2.7 3.05559 2.4C3.53559 2.1 3.97559 1.86 4.37559 1.68C4.79559 1.58 5.48559 1.48 6.44559 1.38C7.42559 1.26 8.09559 1.21 8.45559 1.23C9.41559 1.33 10.1656 1.58 10.7056 1.98C11.2456 2.36 11.5956 2.93 11.7556 3.69C11.7956 3.89 11.8156 4.04 11.8156 4.14C11.8156 4.86 11.3656 5.63 10.4656 6.45C9.86559 6.85 9.56559 7.05 9.56559 7.05C9.00559 7.45 8.55559 7.73 8.21559 7.89C8.03559 8.03 7.63559 8.21 7.01559 8.43C6.55559 8.61 6.32559 8.72 6.32559 8.76C6.44559 8.78 6.67559 8.82 7.01559 8.88C7.35559 8.94 7.59559 9.03 7.73559 9.15C8.23559 9.33 8.72559 9.64 9.20559 10.08C9.68559 10.52 10.0756 10.94 10.3756 11.34C10.5356 11.7 10.6156 12.06 10.6156 12.42C10.6156 13.26 10.3156 14.12 9.71559 15C9.11559 15.86 8.38559 16.54 7.52559 17.04C6.66559 17.52 5.25559 17.83 3.29559 17.97ZM30.9371 6.9C31.0971 7.06 31.1771 7.28 31.1771 7.56C31.1771 7.82 31.1171 8.08 30.9971 8.34C30.8771 8.58 30.7371 8.77 30.5771 8.91C30.0771 9.29 29.5271 9.73 28.9271 10.23C27.6271 11.27 26.6571 12.02 26.0171 12.48C26.1371 12.66 26.3871 13.11 26.7671 13.83L27.0971 14.46C27.1771 14.58 27.2771 14.74 27.3971 14.94C27.5171 15.14 27.6471 15.28 27.7871 15.36C27.9271 15.42 28.1571 15.45 28.4771 15.45C28.8371 15.61 29.0671 15.78 29.1671 15.96C29.2671 16.12 29.3171 16.29 29.3171 16.47C29.3171 16.63 29.3271 16.76 29.3471 16.86L29.1671 17.34C29.1671 17.34 29.0671 17.46 28.8671 17.7C28.6871 17.94 28.3471 18.06 27.8471 18.06C27.6671 18.06 27.4271 18.01 27.1271 17.91C26.5871 17.73 26.0171 17.3 25.4171 16.62C25.2771 16.44 24.8871 15.61 24.2471 14.13C23.9271 13.37 23.6671 12.78 23.4671 12.36C23.2271 12.98 23.1071 13.48 23.1071 13.86C22.9271 14.16 22.7671 14.56 22.6271 15.06C22.4871 15.56 22.3971 15.87 22.3571 15.99C22.2371 16.49 21.9271 16.93 21.4271 17.31C21.0071 17.33 20.6971 17.3 20.4971 17.22C20.3171 17.12 20.0871 16.9 19.8071 16.56C19.6671 16.26 19.5971 15.95 19.5971 15.63C19.5971 15.41 19.6371 15.14 19.7171 14.82C19.7571 14.68 20.1071 13.7 20.7671 11.88C21.3071 10.36 21.5871 9.56 21.6071 9.48C21.6671 9.28 21.7571 9.05 21.8771 8.79C22.0171 8.53 22.1171 8.35 22.1771 8.25C22.5371 7.63 22.7671 7.11 22.8671 6.69C22.9471 6.39 23.0971 6.15 23.3171 5.97C23.5571 5.77 23.8071 5.67 24.0671 5.67C24.4071 5.67 24.6971 5.82 24.9371 6.12V6.09C24.9971 6.11 25.0671 6.16 25.1471 6.24C25.2471 6.3 25.3171 6.36 25.3571 6.42C25.6171 6.72 25.7471 7.06 25.7471 7.44C25.7471 7.7 25.6771 7.94 25.5371 8.16L25.0271 9.09C24.6871 9.61 24.3971 10.17 24.1571 10.77C24.5371 10.71 24.8171 10.65 24.9971 10.59C25.1771 10.53 25.3571 10.39 25.5371 10.17C25.7571 9.95 26.0271 9.68 26.3471 9.36C26.6871 9.04 27.0171 8.72 27.3371 8.4C27.7371 8.04 28.1071 7.69 28.4471 7.35C28.4671 7.31 28.5371 7.21 28.6571 7.05C28.7971 6.87 28.9371 6.72 29.0771 6.6C29.2371 6.48 29.4071 6.39 29.5871 6.33C29.9871 6.37 30.2871 6.43 30.4871 6.51C30.7071 6.59 30.8571 6.72 30.9371 6.9ZM38.7216 17.94C38.5416 17.76 38.3916 17.53 38.2716 17.25C38.1716 16.95 38.0416 16.5 37.8816 15.9C37.8416 15.78 37.8216 15.61 37.8216 15.39C37.8216 15.15 37.8216 14.98 37.8216 14.88C37.7416 15.06 37.6416 15.26 37.5216 15.48C37.4016 15.68 37.2816 15.82 37.1616 15.9C36.7016 16.36 36.2416 16.7 35.7816 16.92C35.1416 17.32 34.5916 17.52 34.1316 17.52C33.5716 17.52 33.0916 17.26 32.6916 16.74C32.0516 16.22 31.7316 15.6 31.7316 14.88C31.7316 14.78 31.7516 14.59 31.7916 14.31C31.8316 13.57 31.9316 12.86 32.0916 12.18C32.2716 11.5 32.6016 10.63 33.0816 9.57L33.9816 7.77L34.4616 6.84C34.5616 6.8 34.7216 6.78 34.9416 6.78C35.2616 6.78 35.5616 6.84 35.8416 6.96C36.1216 7.08 36.2716 7.24 36.2916 7.44C36.3516 7.52 36.3816 7.67 36.3816 7.89C36.3816 8.53 36.1116 9.38 35.5716 10.44L35.3316 11.01C34.9716 11.87 34.7116 12.54 34.5516 13.02C34.3916 13.5 34.3116 13.9 34.3116 14.22C34.3116 14.54 34.4316 14.75 34.6716 14.85C34.7716 14.91 34.8916 14.94 35.0316 14.94C35.4316 14.94 35.9116 14.63 36.4716 14.01C37.0516 13.39 37.6416 12.35 38.2416 10.89C38.5216 10.21 38.6916 9.51 38.7516 8.79C38.7116 8.57 38.7716 8.33 38.9316 8.07C39.0916 7.81 39.3016 7.6 39.5616 7.44C39.6416 7.32 39.7516 7.23 39.8916 7.17C40.0316 7.09 40.1216 7.09 40.1616 7.17L40.6416 7.14C40.7016 7.12 40.7916 7.21 40.9116 7.41C41.0516 7.61 41.1516 7.73 41.2116 7.77C41.4116 7.93 41.5116 8.25 41.5116 8.73C41.5116 9.39 41.2716 10.3 40.7916 11.46C40.4116 12.26 40.1516 12.88 40.0116 13.32C39.8916 13.74 39.8216 14.15 39.8016 14.55C39.8016 14.97 39.8316 15.3 39.8916 15.54C39.9716 15.76 40.1516 15.99 40.4316 16.23C40.7516 16.45 40.8816 16.97 40.8216 17.79C40.7816 17.93 40.6716 18.04 40.4916 18.12C40.3116 18.2 40.0916 18.24 39.8316 18.24C39.3916 18.24 39.0216 18.14 38.7216 17.94ZM57.3251 17.07C57.2851 17.09 57.1851 17.1 57.0251 17.1C56.7251 17.1 56.4351 17.02 56.1551 16.86C55.8751 16.7 55.6951 16.46 55.6151 16.14C55.5951 16.08 55.5051 15.89 55.3451 15.57C55.2051 15.25 55.1351 14.88 55.1351 14.46C55.1351 14.28 55.1451 14.14 55.1651 14.04L55.3151 13.11C55.3551 12.73 55.3951 12.5 55.4351 12.42V12.15C55.4351 11.81 55.4051 11.64 55.3451 11.64C55.1851 11.64 54.7651 12.01 54.0851 12.75C53.4251 13.49 52.8551 14.22 52.3751 14.94C52.2351 15.12 52.0751 15.39 51.8951 15.75C51.7351 16.09 51.6351 16.27 51.5951 16.29C51.5151 16.37 51.3951 16.41 51.2351 16.41C51.0551 16.41 50.8551 16.35 50.6351 16.23C50.4151 16.11 50.2551 15.96 50.1551 15.78C50.1151 15.7 50.0351 15.63 49.9151 15.57C49.7951 15.49 49.7351 15.35 49.7351 15.15C49.7351 14.81 49.8651 14.25 50.1251 13.47C50.3451 12.81 50.5251 12.24 50.6651 11.76C50.8251 11.28 50.9251 10.96 50.9651 10.8C50.9651 10.66 50.4651 11.02 49.4651 11.88C48.3651 13.16 47.3851 14.38 46.5251 15.54C46.1051 16.12 45.7751 16.54 45.5351 16.8C45.2951 17.04 45.0851 17.16 44.9051 17.16C44.7651 17.16 44.6151 17.07 44.4551 16.89C44.3751 16.81 44.2351 16.71 44.0351 16.59C43.8551 16.47 43.7651 16.37 43.7651 16.29C43.7651 16.13 43.7151 16.05 43.6151 16.05C43.4951 15.93 43.6951 15.28 44.2151 14.1C44.7551 12.9 45.2351 11.98 45.6551 11.34C45.7351 11.28 45.7951 11.2 45.8351 11.1C45.8751 10.98 45.8751 10.92 45.8351 10.92C45.8751 10.86 45.9351 10.76 46.0151 10.62C46.0951 10.48 46.1751 10.36 46.2551 10.26C46.5951 9.6 46.7351 9.07 46.6751 8.67C46.5951 8.59 46.5051 8.56 46.4051 8.58C46.3251 8.6 46.2751 8.62 46.2551 8.64C46.2151 8.66 46.1051 8.7 45.9251 8.76C45.7651 8.8 45.6251 8.86 45.5051 8.94C45.0251 9.26 44.6951 9.42 44.5151 9.42C44.2951 9.42 44.0851 9.18 43.8851 8.7C43.8251 8.52 43.7951 8.35 43.7951 8.19C43.7951 7.93 43.8751 7.73 44.0351 7.59C44.1951 7.45 44.4051 7.3 44.6651 7.14C44.9251 6.98 45.0751 6.88 45.1151 6.84C45.3351 6.72 45.6151 6.59 45.9551 6.45C46.3151 6.29 46.5851 6.18 46.7651 6.12C47.0051 6.04 47.2451 6 47.4851 6C48.1451 6 48.6151 6.32 48.8951 6.96C49.1751 7.3 49.3151 7.66 49.3151 8.04C49.3151 8.38 49.1751 8.85 48.8951 9.45L48.5951 9.9C48.5351 10.02 48.5051 10.1 48.5051 10.14C48.5051 10.18 48.5151 10.2 48.5351 10.2C48.6151 10.2 48.7051 10.13 48.8051 9.99C48.9051 9.89 49.0351 9.77 49.1951 9.63C49.3551 9.47 49.4651 9.39 49.5251 9.39C49.5451 9.39 49.5751 9.38 49.6151 9.36C49.6551 9.32 49.6751 9.24 49.6751 9.12L49.9751 8.85C50.0351 8.85 50.1451 8.8 50.3051 8.7C50.4651 8.58 50.6851 8.41 50.9651 8.19C51.1851 8.03 51.3851 7.95 51.5651 7.95C51.6251 7.93 51.7151 7.92 51.8351 7.92C52.2151 7.92 52.5251 8.13 52.7651 8.55C53.0051 8.95 53.1251 9.47 53.1251 10.11L52.4951 11.73L53.5751 10.41C53.7551 10.19 53.9951 9.95 54.2951 9.69C54.3351 9.57 54.3851 9.5 54.4451 9.48C54.5251 9.44 54.5751 9.42 54.5951 9.42C54.6151 9.42 54.6351 9.41 54.6551 9.39C54.6951 9.37 54.7151 9.34 54.7151 9.3C54.7951 9.24 54.8951 9.17 55.0151 9.09C55.1551 8.99 55.2451 8.91 55.2851 8.85C55.4651 8.77 55.7051 8.73 56.0051 8.73C56.3251 8.73 56.6251 8.8 56.9051 8.94C57.1851 9.06 57.3951 9.26 57.5351 9.54C57.5951 9.64 57.6751 9.78 57.7751 9.96C57.8951 10.12 57.9751 10.28 58.0151 10.44C58.0751 10.58 58.1051 10.76 58.1051 10.98L57.9851 11.64C57.9851 11.62 57.9351 11.96 57.8351 12.66C57.7351 12.88 57.6851 13.22 57.6851 13.68C57.6851 13.96 57.6951 14.14 57.7151 14.22C57.7551 14.3 57.8351 14.34 57.9551 14.34C58.2151 14.28 58.4351 14.19 58.6151 14.07C58.8151 13.95 59.0451 13.77 59.3051 13.53C59.4651 13.37 59.6251 13.29 59.7851 13.29C59.9651 13.29 60.1151 13.37 60.2351 13.53C60.3751 13.67 60.4751 13.84 60.5351 14.04C60.5951 14.16 60.4851 14.48 60.2051 15C59.9451 15.52 59.7451 15.78 59.6051 15.78C59.5651 15.78 59.4551 15.86 59.2751 16.02C59.0951 16.16 58.9451 16.27 58.8251 16.35C58.4851 16.73 58.2051 16.92 57.9851 16.92C57.9051 16.92 57.7951 16.95 57.6551 17.01C57.5351 17.05 57.4251 17.07 57.3251 17.07ZM65.4675 17.58C65.2675 17.62 65.0875 17.64 64.9275 17.64C64.6675 17.64 64.4275 17.62 64.2075 17.58C63.9875 17.52 63.8775 17.45 63.8775 17.37C63.8775 17.31 63.8675 17.27 63.8475 17.25C63.8275 17.23 63.7875 17.22 63.7275 17.22C63.6675 17.16 63.5275 17.06 63.3075 16.92C63.1075 16.76 62.9375 16.65 62.7975 16.59C62.5575 16.25 62.4375 15.88 62.4375 15.48C62.4375 15.1 62.5575 14.49 62.7975 13.65C62.8175 12.87 63.0975 12 63.6375 11.04C64.1975 10.06 64.8675 9.16 65.6475 8.34C66.4275 7.5 67.1275 6.9 67.7475 6.54C68.0475 6.24 68.4675 6.09 69.0075 6.09C69.4275 6.09 69.7975 6.18 70.1175 6.36C70.3775 6.52 70.6975 6.86 71.0775 7.38C71.4775 7.9 71.7775 8.37 71.9775 8.79C72.0175 8.93 72.0675 9.12 72.1275 9.36C72.2075 9.6 72.2475 9.89 72.2475 10.23L72.1875 11.07C71.9475 11.89 71.8275 12.63 71.8275 13.29C71.7875 13.57 71.8075 13.8 71.8875 13.98C71.9675 14.14 72.0775 14.22 72.2175 14.22C72.3175 14.22 72.4275 14.19 72.5475 14.13C72.6675 14.07 72.8075 14.04 72.9675 14.04C73.2275 14.04 73.4475 14.12 73.6275 14.28C73.8075 14.44 73.8975 14.64 73.8975 14.88C73.8975 15.08 73.8475 15.27 73.7475 15.45C73.5675 15.85 73.2275 16.21 72.7275 16.53C72.2475 16.85 71.7975 17.01 71.3775 17.01C71.0375 17.01 70.7075 16.83 70.3875 16.47C70.0875 16.11 69.8475 15.64 69.6675 15.06L69.4875 14.37L68.4075 15.36L67.7175 16.05C67.3975 16.37 67.2175 16.56 67.1775 16.62C67.0775 16.78 66.8975 16.93 66.6375 17.07C66.3975 17.21 66.0075 17.38 65.4675 17.58ZM66.2775 14.7C66.6375 14.5 66.9375 14.25 67.1775 13.95C67.4375 13.65 67.7575 13.23 68.1375 12.69C68.2175 12.57 68.2975 12.45 68.3775 12.33C68.4575 12.19 68.5575 12.05 68.6775 11.91C69.0175 11.45 69.2575 11.08 69.3975 10.8C69.5575 10.52 69.6775 10.22 69.7575 9.9C69.6775 9.64 69.5575 9.4 69.3975 9.18C69.2575 8.94 69.1275 8.81 69.0075 8.79C68.4475 8.79 67.6875 9.45 66.7275 10.77C66.6275 10.91 66.4675 11.16 66.2475 11.52C66.0475 11.88 65.9175 12.12 65.8575 12.24C65.7575 12.38 65.6175 12.72 65.4375 13.26C65.2775 13.78 65.1975 14.12 65.1975 14.28C65.1975 14.72 65.3275 14.94 65.5875 14.94C65.7875 14.94 66.0175 14.86 66.2775 14.7ZM82.7904 18.18C82.6504 18.26 82.4604 18.23 82.2204 18.09C82.0004 17.95 81.7804 17.74 81.5604 17.46C81.4004 17.2 81.2904 16.95 81.2304 16.71C81.1704 16.45 81.1404 16.08 81.1404 15.6L81.1704 14.91C81.1704 14.73 81.1404 14.64 81.0804 14.64C81.0204 14.64 80.8804 14.74 80.6604 14.94C80.4604 15.12 80.2004 15.36 79.8804 15.66C79.2804 16.24 78.7704 16.69 78.3504 17.01C77.9504 17.31 77.6204 17.45 77.3604 17.43C77.1404 17.43 76.8304 17.24 76.4304 16.86C76.0304 16.46 75.7604 16.08 75.6204 15.72C75.5604 15.48 75.5304 15.21 75.5304 14.91C75.5304 13.99 75.7304 12.87 76.1304 11.55C76.5304 10.23 77.0004 9.09 77.5404 8.13C78.0804 7.15 78.5304 6.68 78.8904 6.72C79.2104 6.76 79.4904 6.92 79.7304 7.2C79.9904 7.46 80.2004 7.78 80.3604 8.16C80.4204 8.28 80.4504 8.38 80.4504 8.46C80.4504 8.6 80.3704 8.74 80.2104 8.88C79.9104 9.28 79.5304 9.94 79.0704 10.86C78.6104 11.76 78.2404 12.59 77.9604 13.35C77.6804 14.09 77.6104 14.46 77.7504 14.46C78.0304 14.46 78.2804 14.39 78.5004 14.25C78.7404 14.11 79.0504 13.86 79.4304 13.5C80.1504 12.78 80.8504 11.86 81.5304 10.74C82.3704 9.4 82.8304 8.62 82.9104 8.4L83.2404 7.8C83.4404 7.4 83.5904 7.14 83.6904 7.02C83.7904 6.88 83.9104 6.79 84.0504 6.75H84.7404C84.8604 6.77 85.0004 6.86 85.1604 7.02C85.3404 7.1 85.5104 7.21 85.6704 7.35C85.8304 7.49 85.9104 7.61 85.9104 7.71L85.4304 8.82L85.1604 9.45C84.6204 10.65 84.2104 11.61 83.9304 12.33C83.6504 13.03 83.4404 13.76 83.3004 14.52C83.2804 14.62 83.2704 14.79 83.2704 15.03C83.2704 15.63 83.3304 16.05 83.4504 16.29C83.6304 16.65 83.8104 16.91 83.9904 17.07C84.1504 17.19 84.1504 17.34 83.9904 17.52C83.8304 17.68 83.6004 17.83 83.3004 17.97C83.0204 18.11 82.8504 18.18 82.7904 18.18ZM82.4904 4.92C81.7904 4.96 81.2104 4.77 80.7504 4.35C80.3104 3.91 79.9404 3.22 79.6404 2.28C79.6004 2.08 79.5804 1.95 79.5804 1.89C79.5804 1.65 79.6404 1.44 79.7604 1.26C79.8404 1.12 79.9604 1.03 80.1204 0.989999C80.3004 0.929999 80.4604 0.919999 80.6004 0.959999C80.9804 1.1 81.2604 1.26 81.4404 1.44C81.6204 1.6 81.7104 1.83 81.7104 2.13C81.7104 2.21 81.7204 2.29 81.7404 2.37C81.7804 2.45 81.8004 2.5 81.8004 2.52C81.8804 2.8 82.0304 2.94 82.2504 2.94L82.4904 2.88C82.9104 2.7 83.2604 2.54 83.5404 2.4C83.8204 2.24 84.0704 2.05 84.2904 1.83C84.5504 1.57 84.9804 1.18 85.5804 0.66C85.7404 0.519999 85.9204 0.469999 86.1204 0.51C86.4604 0.569999 86.6404 0.659999 86.6604 0.78L86.7204 0.839999C86.8404 1.08 86.9004 1.37 86.9004 1.71V1.74C86.9004 1.92 86.8404 2.11 86.7204 2.31C86.6404 2.55 86.5204 2.75 86.3604 2.91C86.2004 3.07 85.9304 3.3 85.5504 3.6C85.0704 3.96 84.4304 4.34 83.6304 4.74C83.4504 4.84 83.2304 4.9 82.9704 4.92C82.7304 4.92 82.5704 4.92 82.4904 4.92ZM99.136 16.14C98.956 17.26 98.386 18.62 97.426 20.22C97.226 20.52 97.016 20.81 96.796 21.09L96.826 21.06C96.526 21.54 96.176 21.78 95.776 21.78C95.356 21.78 94.976 21.51 94.636 20.97L94.606 20.58C94.606 20.38 94.636 20.14 94.696 19.86C94.776 19.6 94.876 19.28 94.996 18.9C95.016 18.76 95.156 18.45 95.416 17.97C95.776 17.29 95.956 16.86 95.956 16.68L94.276 17.64C93.876 17.84 93.506 18 93.166 18.12C92.826 18.24 92.426 18.37 91.966 18.51L91.036 18.54C90.376 18.54 89.856 18.49 89.476 18.39C89.116 18.31 88.786 18.16 88.486 17.94C87.986 17.56 87.676 17.1 87.556 16.56C87.436 16.02 87.396 15.58 87.436 15.24C87.456 14.98 87.556 14.62 87.736 14.16C87.916 13.68 88.056 13.32 88.156 13.08C88.536 12.34 88.926 11.39 89.326 10.23C89.366 10.11 89.486 9.77 89.686 9.21C89.886 8.65 89.996 8.28 90.016 8.1C90.096 7.62 90.256 7.26 90.496 7.02C90.736 6.78 91.066 6.61 91.486 6.51C91.726 6.55 91.926 6.62 92.086 6.72C92.266 6.82 92.476 6.96 92.716 7.14C92.876 7.34 92.956 7.58 92.956 7.86C92.956 8.18 92.866 8.61 92.686 9.15C92.606 9.39 92.306 10.13 91.786 11.37C91.626 11.69 91.446 12.1 91.246 12.6C90.686 14.04 90.296 15.15 90.076 15.93C90.276 16.07 90.506 16.14 90.766 16.14C91.046 16.14 91.336 16.08 91.636 15.96C91.956 15.84 92.266 15.71 92.566 15.57C92.886 15.41 93.116 15.3 93.256 15.24L93.496 14.55C93.716 14.01 94.046 13.11 94.486 11.85C94.686 11.25 94.856 10.75 94.996 10.35C95.156 9.93 95.266 9.66 95.326 9.54C95.366 8.92 95.516 8.37 95.776 7.89C96.036 7.39 96.346 7.06 96.706 6.9C96.846 6.88 97.016 6.87 97.216 6.87C97.436 6.87 97.656 6.95 97.876 7.11C98.256 7.43 98.486 7.68 98.566 7.86C98.646 8.02 98.686 8.29 98.686 8.67C98.646 8.73 98.586 8.89 98.506 9.15C98.426 9.41 98.336 9.62 98.236 9.78C97.976 10.14 97.846 10.39 97.846 10.53L97.006 12.69L96.376 14.37C96.496 14.37 96.576 14.37 96.616 14.37C96.676 14.35 96.716 14.34 96.736 14.34C96.796 14.34 96.936 14.34 97.156 14.34C97.396 14.32 97.626 14.35 97.846 14.43C98.086 14.49 98.316 14.6 98.536 14.76C98.636 14.74 98.756 14.95 98.896 15.39C99.036 15.83 99.116 16.08 99.136 16.14ZM101.356 17.37C101.296 17.25 101.126 17.09 100.846 16.89C100.566 16.69 100.426 16.57 100.426 16.53C100.426 16.45 100.376 16.34 100.276 16.2C100.196 16.04 100.116 15.9 100.036 15.78C99.8757 15.62 99.9857 15.1 100.366 14.22C100.746 13.34 101.256 12.3 101.896 11.1C102.016 10.98 102.166 10.77 102.346 10.47C102.546 10.17 102.676 10 102.736 9.96C102.736 9.88 102.766 9.81 102.826 9.75C102.886 9.67 102.956 9.63 103.036 9.63L103.276 9.15C103.356 8.97 103.746 8.54 104.446 7.86C105.146 7.18 105.696 6.72 106.096 6.48C106.476 6.22 106.886 6.09 107.326 6.09C107.806 6.09 108.216 6.23 108.556 6.51L109.366 7.2C109.966 7.7 110.306 7.99 110.386 8.07L111.496 9.06L110.986 10.56C110.806 11.1 110.716 11.61 110.716 12.09C110.716 12.85 110.926 13.56 111.346 14.22C111.446 14.44 111.576 14.61 111.736 14.73C111.916 14.85 112.146 14.93 112.426 14.97C112.866 15.05 113.086 15.27 113.086 15.63C113.086 16.07 113.006 16.4 112.846 16.62C112.686 16.84 112.496 16.98 112.276 17.04C111.956 17.08 111.736 17.1 111.616 17.1C111.036 17.1 110.506 16.95 110.026 16.65C109.546 16.35 109.126 15.84 108.766 15.12C108.686 15 108.576 14.78 108.436 14.46C108.316 14.14 108.246 13.92 108.226 13.8C108.086 14 107.856 14.26 107.536 14.58C105.476 16.66 103.806 17.7 102.526 17.7C102.086 17.7 101.696 17.59 101.356 17.37ZM103.006 14.88C103.326 14.92 103.946 14.56 104.866 13.8C104.966 13.72 105.076 13.63 105.196 13.53C105.316 13.41 105.446 13.29 105.586 13.17C106.146 12.71 106.576 12.33 106.876 12.03C107.196 11.71 107.516 11.33 107.836 10.89L108.496 9.81C108.296 9.37 108.116 9.08 107.956 8.94C107.796 8.78 107.636 8.7 107.476 8.7C107.076 8.7 106.576 9.06 105.976 9.78C105.376 10.48 104.656 11.55 103.816 12.99C103.596 13.35 103.416 13.73 103.276 14.13C103.136 14.51 103.046 14.76 103.006 14.88Z" fill="white"/>
</svg>
